<svg version="1.1" viewBox="0.0 0.0 960.0 540.0" fill="none" stroke="none" stroke-linecap="square" stroke-miterlimit="10" xmlns:xlink="http://www.w3.org/1999/xlink" xmlns="http://www.w3.org/2000/svg"><clipPath id="g54cbbb2bee_0_52.0"><path d="m0 0l960.0 0l0 540.0l-960.0 0l0 -540.0z" clip-rule="nonzero"/></clipPath><g clip-path="url(#g54cbbb2bee_0_52.0)"><path fill="#ffffff" d="m0 0l960.0 0l0 540.0l-960.0 0z" fill-rule="evenodd"/><path fill="#000000" fill-opacity="0.0" d="m52.70866 54.643044l854.58264 0" fill-rule="evenodd"/><path stroke="#5c6d7e" stroke-width="12.0" stroke-linejoin="round" stroke-linecap="butt" d="m52.70866 54.643044l854.58264 0" fill-rule="evenodd"/><path fill="#000000" fill-opacity="0.0" d="m52.70866 489.57742l854.58264 0" fill-rule="evenodd"/><path stroke="#5c6d7e" stroke-width="1.0" stroke-linejoin="round" stroke-linecap="butt" d="m52.70866 489.57742l854.58264 0" fill-rule="evenodd"/><path fill="#000000" fill-opacity="0.0" d="m84.67979 93.34646l752.1575 0l0 54.488182l-752.1575 0z" fill-rule="evenodd"/><path fill="#34495e" d="m111.47666 121.519585l4.734375 0l0 9.078117q-1.828125 1.375 -4.234375 2.125q-2.390625 0.734375 -4.828125 0.734375q-3.484375 0 -6.265625 -1.484375q-2.78125 -1.5 -4.375 -4.1406174q-1.578125 -2.640625 -1.578125 -5.96875q0 -3.328125 1.578125 -5.96875q1.59375 -2.640625 4.40625 -4.125q2.8125 -1.484375 6.328125 -1.484375q2.953125 0 5.34375 1.0q2.40625 0.984375 4.03125 2.875l-3.328125 3.0625q-2.390625 -2.53125 -5.78125 -2.53125q-2.140625 0 -3.8125 0.90625q-1.65625 0.890625 -2.59375 2.53125q-0.921875 1.625 -0.921875 3.734375q0 2.078125 0.921875 3.71875q0.9375 1.625 2.578125 2.5468674q1.640625 0.90625 3.765625 0.90625q2.234375 0 4.03125 -0.953125l0 -6.5624924zm20.375175 11.937492q-3.484375 0 -6.2812576 -1.5q-2.796875 -1.515625 -4.390625 -4.1562424q-1.578125 -2.640625 -1.578125 -5.9375q0 -3.296875 1.578125 -5.9375q1.59375 -2.640625 4.390625 -4.140625q2.7968826 -1.5 6.2812576 -1.5q3.484375 0 6.265625 1.5q2.796875 1.5 4.390625 4.140625q1.609375 2.640625 1.609375 5.9375q0 3.296875 -1.609375 5.9375q-1.59375 2.6406174 -4.390625 4.1562424q-2.78125 1.5 -6.265625 1.5zm0 -4.421875q1.984375 0 3.578125 -0.90625q1.609375 -0.9218674 2.515625 -2.5468674q0.921875 -1.640625 0.921875 -3.71875q0 -2.078125 -0.921875 -3.703125q-0.90625 -1.640625 -2.515625 -2.546875q-1.59375 -0.921875 -3.578125 -0.921875q-1.984375 0 -3.59375 0.921875q-1.5937576 0.90625 -2.5000076 2.546875q-0.90625 1.625 -0.90625 3.703125q0 2.078125 0.90625 3.71875q0.90625 1.625 2.5000076 2.5468674q1.609375 0.90625 3.59375 0.90625zm30.5943 -0.765625l-10.390625 0l-1.984375 4.796875l-5.3125 0l9.984375 -22.406242l5.109375 0l10.015625 22.406242l-5.4375 0l-1.984375 -4.796875zm-1.625 -3.9374924l-3.5625 -8.578125l-3.546875 8.578125l7.109375 0zm11.387054 -13.671875l5.1875 0l0 18.187492l11.234375 0l0 4.21875l-16.421875 0l0 -22.406242zm26.559402 22.796867q-2.65625 0 -5.140625 -0.71875q-2.46875 -0.734375 -3.984375 -1.875l1.765625 -3.9062424q1.4375 1.0468674 3.421875 1.6874924q1.984375 0.640625 3.96875 0.640625q2.203125 0 3.265625 -0.65625q1.0625 -0.6562424 1.0625 -1.7343674q0 -0.796875 -0.625 -1.328125q-0.625 -0.53125 -1.609375 -0.84375q-0.96875 -0.328125 -2.640625 -0.71875q-2.5625 -0.59375 -4.1875 -1.203125q-1.625 -0.609375 -2.796875 -1.953125q-1.171875 -1.34375 -1.171875 -3.59375q0 -1.953125 1.046875 -3.53125q1.0625 -1.578125 3.1875 -2.5q2.140625 -0.9375 5.203125 -0.9375q2.140625 0 4.1875 0.515625q2.0625 0.5 3.59375 1.46875l-1.609375 3.9375q-3.09375 -1.765625 -6.203125 -1.765625q-2.171875 0 -3.21875 0.703125q-1.03125 0.703125 -1.03125 1.859375q0 1.15625 1.1875 1.71875q1.203125 0.546875 3.671875 1.09375q2.5625 0.609375 4.1875 1.21875q1.640625 0.609375 2.796875 1.921875q1.171875 1.3125 1.171875 3.546875q0 1.9218674 -1.078125 3.5156174q-1.0625 1.578125 -3.203125 2.515625q-2.140625 0.921875 -5.21875 0.921875z" fill-rule="nonzero"/><path fill="#000000" fill-opacity="0.0" d="m167.14174 219.57742l545.6693 0l0 41.322845l-545.6693 0z" fill-rule="evenodd"/><path fill="#595959" d="m185.61049 243.93742l-2.5625 -3.59375q-0.421875 0.046875 -0.890625 0.046875l-3.0 0l0 3.546875l-1.1875 0l0 -11.203125l4.1875 0q2.140625 0 3.359375 1.03125q1.21875 1.015625 1.21875 2.8125q0 1.3125 -0.671875 2.21875q-0.65625 0.90625 -1.890625 1.296875l2.734375 3.84375l-1.296875 0zm-3.484375 -4.5625q1.65625 0 2.53125 -0.734375q0.890625 -0.734375 0.890625 -2.0625q0 -1.359375 -0.890625 -2.078125q-0.875 -0.734375 -2.53125 -0.734375l-2.96875 0l0 5.609375l2.96875 0zm14.489899 0.703125l-7.03125 0q0.09375 1.3125 1.0 2.125q0.921875 0.8125 2.3125 0.8125q0.78125 0 1.4375 -0.28125q0.65625 -0.28125 1.140625 -0.828125l0.640625 0.734375q-0.5625 0.671875 -1.40625 1.03125q-0.84375 0.34375 -1.84375 0.34375q-1.296875 0 -2.296875 -0.546875q-1.0 -0.5625 -1.5625 -1.53125q-0.5625 -0.96875 -0.5625 -2.203125q0 -1.234375 0.53125 -2.203125q0.546875 -0.984375 1.484375 -1.53125q0.9375 -0.546875 2.09375 -0.546875q1.171875 0 2.09375 0.546875q0.9375 0.546875 1.453125 1.515625q0.53125 0.96875 0.53125 2.21875l-0.015625 0.34375zm-4.0625 -3.640625q-1.21875 0 -2.046875 0.78125q-0.8125 0.765625 -0.921875 2.015625l5.96875 0q-0.109375 -1.25 -0.9375 -2.015625q-0.828125 -0.78125 -2.0625 -0.78125zm14.085892 -4.375l0 11.875l-1.09375 0l0 -1.65625q-0.515625 0.84375 -1.359375 1.296875q-0.828125 0.4375 -1.890625 0.4375q-1.171875 0 -2.140625 -0.546875q-0.953125 -0.546875 -1.5 -1.515625q-0.546875 -0.96875 -0.546875 -2.21875q0 -1.25 0.546875 -2.21875q0.546875 -0.984375 1.5 -1.515625q0.96875 -0.546875 2.140625 -0.546875q1.03125 0 1.84375 0.4375q0.828125 0.421875 1.359375 1.234375l0 -5.0625l1.140625 0zm-4.234375 10.953125q0.875 0 1.578125 -0.40625q0.71875 -0.421875 1.125 -1.171875q0.40625 -0.75 0.40625 -1.703125q0 -0.96875 -0.40625 -1.71875q-0.40625 -0.75 -1.125 -1.15625q-0.703125 -0.40625 -1.578125 -0.40625q-0.90625 0 -1.625 0.40625q-0.703125 0.40625 -1.109375 1.15625q-0.40625 0.75 -0.40625 1.71875q0 0.953125 0.40625 1.703125q0.40625 0.75 1.109375 1.171875q0.71875 0.40625 1.625 0.40625zm14.988647 -7.5l0 8.421875l-1.09375 0l0 -1.53125q-0.453125 0.765625 -1.234375 1.1875q-0.78125 0.421875 -1.78125 0.421875q-1.65625 0 -2.609375 -0.921875q-0.953125 -0.921875 -0.953125 -2.6875l0 -4.890625l1.140625 0l0 4.78125q0 1.328125 0.65625 2.015625q0.65625 0.6875 1.875 0.6875q1.328125 0 2.09375 -0.8125q0.765625 -0.8125 0.765625 -2.25l0 -4.421875l1.140625 0zm6.6742706 8.5q-1.25 0 -2.234375 -0.546875q-0.984375 -0.546875 -1.546875 -1.515625q-0.5625 -0.984375 -0.5625 -2.21875q0 -1.234375 0.5625 -2.203125q0.5625 -0.984375 1.546875 -1.53125q0.984375 -0.546875 2.234375 -0.546875q1.078125 0 1.9375 0.4375q0.859375 0.421875 1.359375 1.234375l-0.859375 0.578125q-0.40625 -0.625 -1.046875 -0.9375q-0.640625 -0.3125 -1.390625 -0.3125q-0.921875 0 -1.65625 0.40625q-0.71875 0.40625 -1.125 1.15625q-0.40625 0.75 -0.40625 1.71875q0 0.96875 0.40625 1.71875q0.40625 0.734375 1.125 1.15625q0.734375 0.40625 1.65625 0.40625q0.75 0 1.390625 -0.296875q0.640625 -0.3125 1.046875 -0.9375l0.859375 0.578125q-0.5 0.8125 -1.375 1.234375q-0.859375 0.421875 -1.921875 0.421875zm12.692139 -3.9375l-7.03125 0q0.09375 1.3125 1.0 2.125q0.921875 0.8125 2.3125 0.8125q0.78125 0 1.4375 -0.28125q0.65625 -0.28125 1.140625 -0.828125l0.640625 0.734375q-0.5625 0.671875 -1.40625 1.03125q-0.84375 0.34375 -1.84375 0.34375q-1.296875 0 -2.296875 -0.546875q-1.0 -0.5625 -1.5625 -1.53125q-0.5625 -0.96875 -0.5625 -2.203125q0 -1.234375 0.53125 -2.203125q0.546875 -0.984375 1.484375 -1.53125q0.9375 -0.546875 2.09375 -0.546875q1.171875 0 2.09375 0.546875q0.9375 0.546875 1.453125 1.515625q0.53125 0.96875 0.53125 2.21875l-0.015625 0.34375zm-4.0625 -3.640625q-1.21875 0 -2.046875 0.78125q-0.8125 0.765625 -0.921875 2.015625l5.96875 0q-0.109375 -1.25 -0.9375 -2.015625q-0.828125 -0.78125 -2.0625 -0.78125zm15.027893 6.984375q-0.3125 0.296875 -0.796875 0.453125q-0.46875 0.140625 -0.984375 0.140625q-1.171875 0 -1.8125 -0.640625q-0.640625 -0.640625 -0.640625 -1.8125l0 -5.078125l-1.515625 0l0 -0.96875l1.515625 0l0 -1.828125l1.125 0l0 1.828125l2.5625 0l0 0.96875l-2.5625 0l0 5.015625q0 0.75 0.375 1.15625q0.375 0.390625 1.09375 0.390625q0.34375 0 0.671875 -0.109375q0.328125 -0.125 0.5625 -0.328125l0.40625 0.8125zm2.0585175 -7.90625l1.140625 0l0 8.421875l-1.140625 0l0 -8.421875zm0.578125 -1.828125q-0.359375 0 -0.59375 -0.234375q-0.234375 -0.25 -0.234375 -0.59375q0 -0.3125 0.234375 -0.546875q0.234375 -0.25 0.59375 -0.25q0.34375 0 0.578125 0.234375q0.25 0.234375 0.25 0.546875q0 0.359375 -0.25 0.609375q-0.234375 0.234375 -0.578125 0.234375zm14.225891 1.765625q1.578125 0 2.484375 0.921875q0.90625 0.90625 0.90625 2.6875l0 4.875l-1.125 0l0 -4.765625q0 -1.3125 -0.640625 -2.0q-0.625 -0.6875 -1.78125 -0.6875q-1.3125 0 -2.0625 0.8125q-0.75 0.796875 -0.75 2.21875l0 4.421875l-1.140625 0l0 -4.765625q0 -1.3125 -0.640625 -2.0q-0.625 -0.6875 -1.796875 -0.6875q-1.296875 0 -2.0625 0.8125q-0.75 0.796875 -0.75 2.21875l0 4.421875l-1.140625 0l0 -8.421875l1.09375 0l0 1.546875q0.453125 -0.765625 1.25 -1.1875q0.796875 -0.421875 1.84375 -0.421875q1.046875 0 1.828125 0.453125q0.78125 0.453125 1.15625 1.328125q0.46875 -0.828125 1.328125 -1.296875q0.875 -0.484375 2.0 -0.484375zm13.836151 4.625l-7.03125 0q0.09375 1.3125 1.0 2.125q0.921875 0.8125 2.3125 0.8125q0.78125 0 1.4375 -0.28125q0.65625 -0.28125 1.140625 -0.828125l0.640625 0.734375q-0.5625 0.671875 -1.40625 1.03125q-0.84375 0.34375 -1.84375 0.34375q-1.296875 0 -2.296875 -0.546875q-1.0 -0.5625 -1.5625 -1.53125q-0.5625 -0.96875 -0.5625 -2.203125q0 -1.234375 0.53125 -2.203125q0.546875 -0.984375 1.484375 -1.53125q0.9375 -0.546875 2.09375 -0.546875q1.171875 0 2.09375 0.546875q0.9375 0.546875 1.453125 1.515625q0.53125 0.96875 0.53125 2.21875l-0.015625 0.34375zm-4.0625 -3.640625q-1.21875 0 -2.046875 0.78125q-0.8125 0.765625 -0.921875 2.015625l5.96875 0q-0.109375 -1.25 -0.9375 -2.015625q-0.828125 -0.78125 -2.0625 -0.78125zm14.043518 7.578125q-1.21875 0 -2.203125 -0.546875q-0.96875 -0.5625 -1.53125 -1.53125q-0.5625 -0.96875 -0.5625 -2.203125q0 -1.234375 0.5625 -2.203125q0.5625 -0.984375 1.53125 -1.53125q0.984375 -0.546875 2.203125 -0.546875q1.203125 0 2.171875 0.546875q0.984375 0.546875 1.53125 1.53125q0.5625 0.96875 0.5625 2.203125q0 1.234375 -0.5625 2.203125q-0.546875 0.96875 -1.53125 1.53125q-0.96875 0.546875 -2.171875 0.546875zm0 -1.0q0.890625 0 1.59375 -0.40625q0.71875 -0.421875 1.109375 -1.171875q0.40625 -0.75 0.40625 -1.703125q0 -0.96875 -0.40625 -1.71875q-0.390625 -0.75 -1.109375 -1.15625q-0.703125 -0.40625 -1.59375 -0.40625q-0.90625 0 -1.625 0.40625q-0.703125 0.40625 -1.109375 1.15625q-0.40625 0.75 -0.40625 1.71875q0 0.953125 0.40625 1.703125q0.40625 0.75 1.109375 1.171875q0.71875 0.40625 1.625 0.40625zm9.375763 -10.0625q-0.75 0 -1.125 0.40625q-0.375 0.390625 -0.375 1.171875l0 0.984375l2.59375 0l0 0.96875l-2.5625 0l0 7.453125l-1.125 0l0 -7.453125l-1.515625 0l0 -0.96875l1.515625 0l0 -1.03125q0 -1.15625 0.65625 -1.828125q0.671875 -0.671875 1.875 -0.671875q0.484375 0 0.9375 0.140625q0.453125 0.125 0.75 0.390625l-0.390625 0.84375q-0.484375 -0.40625 -1.234375 -0.40625zm14.506622 -0.890625l0 11.875l-1.09375 0l0 -1.65625q-0.515625 0.84375 -1.359375 1.296875q-0.828125 0.4375 -1.890625 0.4375q-1.171875 0 -2.140625 -0.546875q-0.953125 -0.546875 -1.5 -1.515625q-0.546875 -0.96875 -0.546875 -2.21875q0 -1.25 0.546875 -2.21875q0.546875 -0.984375 1.5 -1.515625q0.96875 -0.546875 2.140625 -0.546875q1.03125 0 1.84375 0.4375q0.828125 0.421875 1.359375 1.234375l0 -5.0625l1.140625 0zm-4.234375 10.953125q0.875 0 1.578125 -0.40625q0.71875 -0.421875 1.125 -1.171875q0.40625 -0.75 0.40625 -1.703125q0 -0.96875 -0.40625 -1.71875q-0.40625 -0.75 -1.125 -1.15625q-0.703125 -0.40625 -1.578125 -0.40625q-0.90625 0 -1.625 0.40625q-0.703125 0.40625 -1.109375 1.15625q-0.40625 0.75 -0.40625 1.71875q0 0.953125 0.40625 1.703125q0.40625 0.75 1.109375 1.171875q0.71875 0.40625 1.625 0.40625zm14.723022 -2.9375l-7.03125 0q0.09375 1.3125 1.0 2.125q0.921875 0.8125 2.3125 0.8125q0.78125 0 1.4375 -0.28125q0.65625 -0.28125 1.140625 -0.828125l0.640625 0.734375q-0.5625 0.671875 -1.40625 1.03125q-0.84375 0.34375 -1.84375 0.34375q-1.296875 0 -2.296875 -0.546875q-1.0 -0.5625 -1.5625 -1.53125q-0.5625 -0.96875 -0.5625 -2.203125q0 -1.234375 0.53125 -2.203125q0.546875 -0.984375 1.484375 -1.53125q0.9375 -0.546875 2.09375 -0.546875q1.171875 0 2.09375 0.546875q0.9375 0.546875 1.453125 1.515625q0.53125 0.96875 0.53125 2.21875l-0.015625 0.34375zm-4.0625 -3.640625q-1.21875 0 -2.046875 0.78125q-0.8125 0.765625 -0.921875 2.015625l5.96875 0q-0.109375 -1.25 -0.9375 -2.015625q-0.828125 -0.78125 -2.0625 -0.78125zm8.664032 7.578125q-1.03125 0 -1.96875 -0.296875q-0.9375 -0.296875 -1.453125 -0.734375l0.5 -0.90625q0.53125 0.421875 1.328125 0.6875q0.8125 0.265625 1.671875 0.265625q1.15625 0 1.703125 -0.359375q0.546875 -0.359375 0.546875 -1.015625q0 -0.46875 -0.3125 -0.734375q-0.296875 -0.265625 -0.765625 -0.390625q-0.453125 -0.140625 -1.21875 -0.28125q-1.03125 -0.1875 -1.65625 -0.375q-0.625 -0.203125 -1.0625 -0.6875q-0.4375 -0.484375 -0.4375 -1.328125q0 -1.0625 0.875 -1.734375q0.890625 -0.671875 2.453125 -0.671875q0.8125 0 1.625 0.21875q0.828125 0.21875 1.359375 0.5625l-0.5 0.921875q-1.046875 -0.71875 -2.484375 -0.71875q-1.09375 0 -1.640625 0.390625q-0.546875 0.375 -0.546875 1.0q0 0.484375 0.3125 0.765625q0.3125 0.28125 0.765625 0.421875q0.46875 0.140625 1.28125 0.28125q1.015625 0.1875 1.625 0.390625q0.609375 0.1875 1.03125 0.65625q0.4375 0.453125 0.4375 1.28125q0 1.09375 -0.921875 1.75q-0.921875 0.640625 -2.546875 0.640625zm5.55838 -8.5l1.140625 0l0 8.421875l-1.140625 0l0 -8.421875zm0.578125 -1.828125q-0.359375 0 -0.59375 -0.234375q-0.234375 -0.25 -0.234375 -0.59375q0 -0.3125 0.234375 -0.546875q0.234375 -0.25 0.59375 -0.25q0.34375 0 0.578125 0.234375q0.25 0.234375 0.25 0.546875q0 0.359375 -0.25 0.609375q-0.234375 0.234375 -0.578125 0.234375zm11.522766 1.828125l0 7.390625q0 2.15625 -1.046875 3.1875q-1.046875 1.03125 -3.15625 1.03125q-1.171875 0 -2.21875 -0.34375q-1.046875 -0.34375 -1.703125 -0.953125l0.578125 -0.859375q0.609375 0.53125 1.46875 0.828125q0.875 0.3125 1.84375 0.3125q1.59375 0 2.34375 -0.75q0.75 -0.734375 0.75 -2.296875l0 -1.078125q-0.515625 0.796875 -1.375 1.21875q-0.859375 0.421875 -1.90625 0.421875q-1.171875 0 -2.140625 -0.515625q-0.96875 -0.53125 -1.53125 -1.46875q-0.546875 -0.9375 -0.546875 -2.125q0 -1.171875 0.546875 -2.09375q0.5625 -0.9375 1.515625 -1.453125q0.96875 -0.515625 2.15625 -0.515625q1.078125 0 1.9375 0.4375q0.875 0.4375 1.390625 1.25l0 -1.625l1.09375 0zm-4.296875 7.09375q0.90625 0 1.640625 -0.390625q0.734375 -0.390625 1.140625 -1.09375q0.40625 -0.703125 0.40625 -1.609375q0 -0.890625 -0.40625 -1.578125q-0.40625 -0.703125 -1.140625 -1.09375q-0.71875 -0.390625 -1.640625 -0.390625q-0.921875 0 -1.65625 0.390625q-0.71875 0.375 -1.125 1.078125q-0.40625 0.703125 -0.40625 1.59375q0 0.90625 0.40625 1.609375q0.40625 0.703125 1.125 1.09375q0.734375 0.390625 1.65625 0.390625zm11.772919 -7.15625q1.578125 0 2.515625 0.921875q0.9375 0.921875 0.9375 2.6875l0 4.875l-1.140625 0l0 -4.765625q0 -1.3125 -0.65625 -2.0q-0.65625 -0.6875 -1.875 -0.6875q-1.359375 0 -2.15625 0.8125q-0.78125 0.796875 -0.78125 2.21875l0 4.421875l-1.140625 0l0 -8.421875l1.09375 0l0 1.5625q0.46875 -0.765625 1.28125 -1.1875q0.828125 -0.4375 1.921875 -0.4375zm15.070892 0q1.1875 0 2.140625 0.546875q0.96875 0.53125 1.5 1.515625q0.546875 0.96875 0.546875 2.21875q0 1.265625 -0.546875 2.25q-0.53125 0.96875 -1.484375 1.5q-0.953125 0.53125 -2.15625 0.53125q-1.03125 0 -1.859375 -0.421875q-0.8125 -0.421875 -1.34375 -1.234375l0 4.6875l-1.140625 0l0 -11.53125l1.09375 0l0 1.671875q0.515625 -0.828125 1.34375 -1.28125q0.84375 -0.453125 1.90625 -0.453125zm-0.078125 7.5625q0.875 0 1.59375 -0.40625q0.71875 -0.421875 1.125 -1.171875q0.40625 -0.75 0.40625 -1.703125q0 -0.96875 -0.40625 -1.703125q-0.40625 -0.75 -1.125 -1.15625q-0.71875 -0.421875 -1.59375 -0.421875q-0.90625 0 -1.625 0.421875q-0.703125 0.40625 -1.109375 1.15625q-0.40625 0.734375 -0.40625 1.703125q0 0.953125 0.40625 1.703125q0.40625 0.75 1.109375 1.171875q0.71875 0.40625 1.625 0.40625zm7.6761475 -5.84375q0.40625 -0.84375 1.1875 -1.28125q0.796875 -0.4375 1.96875 -0.4375l0 1.109375l-0.28125 -0.015625q-1.328125 0 -2.078125 0.8125q-0.75 0.8125 -0.75 2.296875l0 4.28125l-1.140625 0l0 -8.421875l1.09375 0l0 1.65625zm8.567383 6.84375q-1.21875 0 -2.203125 -0.546875q-0.96875 -0.5625 -1.53125 -1.53125q-0.5625 -0.96875 -0.5625 -2.203125q0 -1.234375 0.5625 -2.203125q0.5625 -0.984375 1.53125 -1.53125q0.984375 -0.546875 2.203125 -0.546875q1.203125 0 2.171875 0.546875q0.984375 0.546875 1.53125 1.53125q0.5625 0.96875 0.5625 2.203125q0 1.234375 -0.5625 2.203125q-0.546875 0.96875 -1.53125 1.53125q-0.96875 0.546875 -2.171875 0.546875zm0 -1.0q0.890625 0 1.59375 -0.40625q0.71875 -0.421875 1.109375 -1.171875q0.40625 -0.75 0.40625 -1.703125q0 -0.96875 -0.40625 -1.71875q-0.390625 -0.75 -1.109375 -1.15625q-0.703125 -0.40625 -1.59375 -0.40625q-0.90625 0 -1.625 0.40625q-0.703125 0.40625 -1.109375 1.15625q-0.40625 0.75 -0.40625 1.71875q0 0.953125 0.40625 1.703125q0.40625 0.75 1.109375 1.171875q0.71875 0.40625 1.625 0.40625zm10.078888 1.0q-1.25 0 -2.234375 -0.546875q-0.984375 -0.546875 -1.546875 -1.515625q-0.5625 -0.984375 -0.5625 -2.21875q0 -1.234375 0.5625 -2.203125q0.5625 -0.984375 1.546875 -1.53125q0.984375 -0.546875 2.234375 -0.546875q1.078125 0 1.9375 0.4375q0.859375 0.421875 1.359375 1.234375l-0.859375 0.578125q-0.40625 -0.625 -1.046875 -0.9375q-0.640625 -0.3125 -1.390625 -0.3125q-0.921875 0 -1.65625 0.40625q-0.71875 0.40625 -1.125 1.15625q-0.40625 0.75 -0.40625 1.71875q0 0.96875 0.40625 1.71875q0.40625 0.734375 1.125 1.15625q0.734375 0.40625 1.65625 0.40625q0.75 0 1.390625 -0.296875q0.640625 -0.3125 1.046875 -0.9375l0.859375 0.578125q-0.5 0.8125 -1.375 1.234375q-0.859375 0.421875 -1.921875 0.421875zm12.692139 -3.9375l-7.03125 0q0.09375 1.3125 1.0 2.125q0.921875 0.8125 2.3125 0.8125q0.78125 0 1.4375 -0.28125q0.65625 -0.28125 1.140625 -0.828125l0.640625 0.734375q-0.5625 0.671875 -1.40625 1.03125q-0.84375 0.34375 -1.84375 0.34375q-1.296875 0 -2.296875 -0.546875q-1.0 -0.5625 -1.5625 -1.53125q-0.5625 -0.96875 -0.5625 -2.203125q0 -1.234375 0.53125 -2.203125q0.546875 -0.984375 1.484375 -1.53125q0.9375 -0.546875 2.09375 -0.546875q1.171875 0 2.09375 0.546875q0.9375 0.546875 1.453125 1.515625q0.53125 0.96875 0.53125 2.21875l-0.015625 0.34375zm-4.0625 -3.640625q-1.21875 0 -2.046875 0.78125q-0.8125 0.765625 -0.921875 2.015625l5.96875 0q-0.109375 -1.25 -0.9375 -2.015625q-0.828125 -0.78125 -2.0625 -0.78125zm8.664032 7.578125q-1.03125 0 -1.96875 -0.296875q-0.9375 -0.296875 -1.453125 -0.734375l0.5 -0.90625q0.53125 0.421875 1.328125 0.6875q0.8125 0.265625 1.671875 0.265625q1.15625 0 1.703125 -0.359375q0.546875 -0.359375 0.546875 -1.015625q0 -0.46875 -0.3125 -0.734375q-0.296875 -0.265625 -0.765625 -0.390625q-0.453125 -0.140625 -1.21875 -0.28125q-1.03125 -0.1875 -1.65625 -0.375q-0.625 -0.203125 -1.0625 -0.6875q-0.4375 -0.484375 -0.4375 -1.328125q0 -1.0625 0.875 -1.734375q0.890625 -0.671875 2.453125 -0.671875q0.8125 0 1.625 0.21875q0.828125 0.21875 1.359375 0.5625l-0.5 0.921875q-1.046875 -0.71875 -2.484375 -0.71875q-1.09375 0 -1.640625 0.390625q-0.546875 0.375 -0.546875 1.0q0 0.484375 0.3125 0.765625q0.3125 0.28125 0.765625 0.421875q0.46875 0.140625 1.28125 0.28125q1.015625 0.1875 1.625 0.390625q0.609375 0.1875 1.03125 0.65625q0.4375 0.453125 0.4375 1.28125q0 1.09375 -0.921875 1.75q-0.921875 0.640625 -2.546875 0.640625zm7.824005 0q-1.03125 0 -1.96875 -0.296875q-0.9375 -0.296875 -1.453125 -0.734375l0.5 -0.90625q0.53125 0.421875 1.328125 0.6875q0.8125 0.265625 1.671875 0.265625q1.15625 0 1.703125 -0.359375q0.546875 -0.359375 0.546875 -1.015625q0 -0.46875 -0.3125 -0.734375q-0.296875 -0.265625 -0.765625 -0.390625q-0.453125 -0.140625 -1.21875 -0.28125q-1.03125 -0.1875 -1.65625 -0.375q-0.625 -0.203125 -1.0625 -0.6875q-0.4375 -0.484375 -0.4375 -1.328125q0 -1.0625 0.875 -1.734375q0.890625 -0.671875 2.453125 -0.671875q0.8125 0 1.625 0.21875q0.828125 0.21875 1.359375 0.5625l-0.5 0.921875q-1.046875 -0.71875 -2.484375 -0.71875q-1.09375 0 -1.640625 0.390625q-0.546875 0.375 -0.546875 1.0q0 0.484375 0.3125 0.765625q0.3125 0.28125 0.765625 0.421875q0.46875 0.140625 1.28125 0.28125q1.015625 0.1875 1.625 0.390625q0.609375 0.1875 1.03125 0.65625q0.4375 0.453125 0.4375 1.28125q0 1.09375 -0.921875 1.75q-0.921875 0.640625 -2.546875 0.640625z" fill-rule="nonzero"/><path fill="#34495e" d="m92.56431 240.23622l0 0c0 -11.41098 9.250427 -20.661423 20.661415 -20.661423l0 0c5.479744 0 10.735062 2.1768188 14.609825 6.05159c3.8747635 3.874771 6.0515976 9.130081 6.0515976 14.609833l0 0c0 11.41098 -9.250435 20.661423 -20.661423 20.661423l0 0c-11.410988 0 -20.661415 -9.2504425 -20.661415 -20.661423z" fill-rule="evenodd"/><path fill="#000000" fill-opacity="0.0" d="m92.56431 219.5748l41.322838 0l0 41.322845l-41.322838 0z" fill-rule="evenodd"/><path fill="#ffffff" d="m115.334724 234.09372l0 13.0625l-3.015625 0l0 -10.640625l-2.625 0l0 -2.421875l5.640625 0z" fill-rule="nonzero"/><path fill="#34495e" d="m92.56431 301.12073l0 0c0 -11.41098 9.250427 -20.661407 20.661415 -20.661407l0 0c5.479744 0 10.735062 2.1768188 14.609825 6.0515747c3.8747635 3.8747864 6.0515976 9.130096 6.0515976 14.609833l0 0c0 11.41098 -9.250435 20.661438 -20.661423 20.661438l0 0c-11.410988 0 -20.661415 -9.250458 -20.661415 -20.661438z" fill-rule="evenodd"/><path fill="#000000" fill-opacity="0.0" d="m92.56431 280.45932l41.322838 0l0 41.322845l-41.322838 0z" fill-rule="evenodd"/><path fill="#ffffff" d="m118.206505 305.572l0 2.46875l-9.875 0l0 -1.953125l5.046875 -4.765625q0.796875 -0.765625 1.078125 -1.3125q0.28125 -0.546875 0.28125 -1.09375q0 -0.78125 -0.53125 -1.203125q-0.53125 -0.421875 -1.5625 -0.421875q-0.859375 0 -1.546875 0.328125q-0.6875 0.328125 -1.15625 0.984375l-2.203125 -1.421875q0.765625 -1.140625 2.109375 -1.78125q1.34375 -0.640625 3.078125 -0.640625q1.453125 0 2.546875 0.484375q1.09375 0.46875 1.703125 1.34375q0.609375 0.859375 0.609375 2.03125q0 1.0625 -0.453125 2.0q-0.453125 0.921875 -1.734375 2.125l-3.0 2.828125l5.609375 0z" fill-rule="nonzero"/><path fill="#34495e" d="m92.56431 362.00525l0 0c0 -11.41098 9.250427 -20.661407 20.661415 -20.661407l0 0c5.479744 0 10.735062 2.1768188 14.609825 6.0515747c3.8747635 3.8747864 6.0515976 9.130096 6.0515976 14.609833l0 0c0 11.41098 -9.250435 20.661407 -20.661423 20.661407l0 0c-11.410988 0 -20.661415 -9.250427 -20.661415 -20.661407z" fill-rule="evenodd"/><path fill="#000000" fill-opacity="0.0" d="m92.56431 341.34384l41.322838 0l0 41.322815l-41.322838 0z" fill-rule="evenodd"/><path fill="#ffffff" d="m114.53159 361.17526q1.71875 0.28125 2.625 1.28125q0.921875 1.0 0.921875 2.46875q0 1.140625 -0.609375 2.109375q-0.59375 0.953125 -1.8125 1.53125q-1.21875 0.578125 -2.984375 0.578125q-1.390625 0 -2.71875 -0.359375q-1.328125 -0.359375 -2.265625 -1.03125l1.171875 -2.3125q0.75 0.5625 1.71875 0.875q0.984375 0.296875 2.015625 0.296875q1.140625 0 1.78125 -0.4375q0.65625 -0.4375 0.65625 -1.25q0 -1.59375 -2.4375 -1.59375l-1.390625 0l0 -2.0l2.6875 -3.046875l-5.546875 0l0 -2.421875l9.140625 0l0 1.96875l-2.953125 3.34375z" fill-rule="nonzero"/><path fill="#000000" fill-opacity="0.0" d="m167.14174 280.45932l597.13385 0l0 41.322845l-597.13385 0z" fill-rule="evenodd"/><path fill="#595959" d="m185.61049 304.8193l-2.5625 -3.59375q-0.421875 0.046875 -0.890625 0.046875l-3.0 0l0 3.546875l-1.1875 0l0 -11.203125l4.1875 0q2.140625 0 3.359375 1.03125q1.21875 1.015625 1.21875 2.8125q0 1.3125 -0.671875 2.21875q-0.65625 0.90625 -1.890625 1.296875l2.734375 3.84375l-1.296875 0zm-3.484375 -4.5625q1.65625 0 2.53125 -0.734375q0.890625 -0.734375 0.890625 -2.0625q0 -1.359375 -0.890625 -2.078125q-0.875 -0.734375 -2.53125 -0.734375l-2.96875 0l0 5.609375l2.96875 0zm14.489899 0.703125l-7.03125 0q0.09375 1.3125 1.0 2.125q0.921875 0.8125 2.3125 0.8125q0.78125 0 1.4375 -0.28125q0.65625 -0.28125 1.140625 -0.828125l0.640625 0.734375q-0.5625 0.671875 -1.40625 1.03125q-0.84375 0.34375 -1.84375 0.34375q-1.296875 0 -2.296875 -0.546875q-1.0 -0.5625 -1.5625 -1.53125q-0.5625 -0.96875 -0.5625 -2.203125q0 -1.234375 0.53125 -2.203125q0.546875 -0.984375 1.484375 -1.53125q0.9375 -0.546875 2.09375 -0.546875q1.171875 0 2.09375 0.546875q0.9375 0.546875 1.453125 1.515625q0.53125 0.96875 0.53125 2.21875l-0.015625 0.34375zm-4.0625 -3.640625q-1.21875 0 -2.046875 0.78125q-0.8125 0.765625 -0.921875 2.015625l5.96875 0q-0.109375 -1.25 -0.9375 -2.015625q-0.828125 -0.78125 -2.0625 -0.78125zm9.195267 -3.484375q-0.75 0 -1.125 0.40625q-0.375 0.390625 -0.375 1.171875l0 0.984375l2.59375 0l0 0.96875l-2.5625 0l0 7.453125l-1.125 0l0 -7.453125l-1.515625 0l0 -0.96875l1.515625 0l0 -1.03125q0 -1.15625 0.65625 -1.828125q0.671875 -0.671875 1.875 -0.671875q0.484375 0 0.9375 0.140625q0.453125 0.125 0.75 0.390625l-0.390625 0.84375q-0.484375 -0.40625 -1.234375 -0.40625zm3.90625 2.5625l1.140625 0l0 8.421875l-1.140625 0l0 -8.421875zm0.578125 -1.828125q-0.359375 0 -0.59375 -0.234375q-0.234375 -0.25 -0.234375 -0.59375q0 -0.3125 0.234375 -0.546875q0.234375 -0.25 0.59375 -0.25q0.34375 0 0.578125 0.234375q0.25 0.234375 0.25 0.546875q0 0.359375 -0.25 0.609375q-0.234375 0.234375 -0.578125 0.234375zm8.023651 1.765625q1.578125 0 2.515625 0.921875q0.9375 0.921875 0.9375 2.6875l0 4.875l-1.140625 0l0 -4.765625q0 -1.3125 -0.65625 -2.0q-0.65625 -0.6875 -1.875 -0.6875q-1.359375 0 -2.15625 0.8125q-0.78125 0.796875 -0.78125 2.21875l0 4.421875l-1.140625 0l0 -8.421875l1.09375 0l0 1.5625q0.46875 -0.765625 1.28125 -1.1875q0.828125 -0.4375 1.921875 -0.4375zm13.895264 4.625l-7.03125 0q0.09375 1.3125 1.0 2.125q0.921875 0.8125 2.3125 0.8125q0.78125 0 1.4375 -0.28125q0.65625 -0.28125 1.140625 -0.828125l0.640625 0.734375q-0.5625 0.671875 -1.40625 1.03125q-0.84375 0.34375 -1.84375 0.34375q-1.296875 0 -2.296875 -0.546875q-1.0 -0.5625 -1.5625 -1.53125q-0.5625 -0.96875 -0.5625 -2.203125q0 -1.234375 0.53125 -2.203125q0.546875 -0.984375 1.484375 -1.53125q0.9375 -0.546875 2.09375 -0.546875q1.171875 0 2.09375 0.546875q0.9375 0.546875 1.453125 1.515625q0.53125 0.96875 0.53125 2.21875l-0.015625 0.34375zm-4.0625 -3.640625q-1.21875 0 -2.046875 0.78125q-0.8125 0.765625 -0.921875 2.015625l5.96875 0q-0.109375 -1.25 -0.9375 -2.015625q-0.828125 -0.78125 -2.0625 -0.78125zm14.934143 -0.984375q1.1875 0 2.140625 0.546875q0.96875 0.53125 1.5 1.515625q0.546875 0.96875 0.546875 2.21875q0 1.265625 -0.546875 2.25q-0.53125 0.96875 -1.484375 1.5q-0.953125 0.53125 -2.15625 0.53125q-1.03125 0 -1.859375 -0.421875q-0.8125 -0.421875 -1.34375 -1.234375l0 4.6875l-1.140625 0l0 -11.53125l1.09375 0l0 1.671875q0.515625 -0.828125 1.34375 -1.28125q0.84375 -0.453125 1.90625 -0.453125zm-0.078125 7.5625q0.875 0 1.59375 -0.40625q0.71875 -0.421875 1.125 -1.171875q0.40625 -0.75 0.40625 -1.703125q0 -0.96875 -0.40625 -1.703125q-0.40625 -0.75 -1.125 -1.15625q-0.71875 -0.421875 -1.59375 -0.421875q-0.90625 0 -1.625 0.421875q-0.703125 0.40625 -1.109375 1.15625q-0.40625 0.734375 -0.40625 1.703125q0 0.953125 0.40625 1.703125q0.40625 0.75 1.109375 1.171875q0.71875 0.40625 1.625 0.40625zm6.5823975 -10.953125l1.140625 0l0 11.875l-1.140625 0l0 -11.875zm7.257141 3.390625q1.640625 0 2.515625 0.828125q0.890625 0.828125 0.890625 2.4375l0 5.21875l-1.09375 0l0 -1.3125q-0.375 0.65625 -1.125 1.03125q-0.75 0.359375 -1.765625 0.359375q-1.40625 0 -2.25 -0.671875q-0.828125 -0.671875 -0.828125 -1.78125q0 -1.0625 0.78125 -1.71875q0.78125 -0.65625 2.46875 -0.65625l2.671875 0l0 -0.515625q0 -1.09375 -0.609375 -1.65625q-0.609375 -0.5625 -1.765625 -0.5625q-0.8125 0 -1.546875 0.265625q-0.734375 0.265625 -1.265625 0.71875l-0.5 -0.84375q0.640625 -0.546875 1.53125 -0.84375q0.890625 -0.296875 1.890625 -0.296875zm-0.40625 7.671875q0.96875 0 1.65625 -0.4375q0.6875 -0.453125 1.015625 -1.28125l0 -1.375l-2.640625 0q-2.15625 0 -2.15625 1.5q0 0.75 0.5625 1.171875q0.5625 0.421875 1.5625 0.421875zm11.190002 -7.671875q1.578125 0 2.515625 0.921875q0.9375 0.921875 0.9375 2.6875l0 4.875l-1.140625 0l0 -4.765625q0 -1.3125 -0.65625 -2.0q-0.65625 -0.6875 -1.875 -0.6875q-1.359375 0 -2.15625 0.8125q-0.78125 0.796875 -0.78125 2.21875l0 4.421875l-1.140625 0l0 -8.421875l1.09375 0l0 1.5625q0.46875 -0.765625 1.28125 -1.1875q0.828125 -0.4375 1.921875 -0.4375zm10.832031 0q1.578125 0 2.515625 0.921875q0.9375 0.921875 0.9375 2.6875l0 4.875l-1.140625 0l0 -4.765625q0 -1.3125 -0.65625 -2.0q-0.65625 -0.6875 -1.875 -0.6875q-1.359375 0 -2.15625 0.8125q-0.78125 0.796875 -0.78125 2.21875l0 4.421875l-1.140625 0l0 -8.421875l1.09375 0l0 1.5625q0.46875 -0.765625 1.28125 -1.1875q0.828125 -0.4375 1.921875 -0.4375zm6.5351257 0.0625l1.140625 0l0 8.421875l-1.140625 0l0 -8.421875zm0.578125 -1.828125q-0.359375 0 -0.59375 -0.234375q-0.234375 -0.25 -0.234375 -0.59375q0 -0.3125 0.234375 -0.546875q0.234375 -0.25 0.59375 -0.25q0.34375 0 0.578125 0.234375q0.25 0.234375 0.25 0.546875q0 0.359375 -0.25 0.609375q-0.234375 0.234375 -0.578125 0.234375zm8.022766 1.765625q1.578125 0 2.515625 0.921875q0.9375 0.921875 0.9375 2.6875l0 4.875l-1.140625 0l0 -4.765625q0 -1.3125 -0.65625 -2.0q-0.65625 -0.6875 -1.875 -0.6875q-1.359375 0 -2.15625 0.8125q-0.78125 0.796875 -0.78125 2.21875l0 4.421875l-1.140625 0l0 -8.421875l1.09375 0l0 1.5625q0.46875 -0.765625 1.28125 -1.1875q0.828125 -0.4375 1.921875 -0.4375zm14.364014 0.0625l0 7.390625q0 2.15625 -1.046875 3.1875q-1.046875 1.03125 -3.15625 1.03125q-1.171875 0 -2.21875 -0.34375q-1.046875 -0.34375 -1.703125 -0.953125l0.578125 -0.859375q0.609375 0.53125 1.46875 0.828125q0.875 0.3125 1.84375 0.3125q1.59375 0 2.34375 -0.75q0.75 -0.734375 0.75 -2.296875l0 -1.078125q-0.515625 0.796875 -1.375 1.21875q-0.859375 0.421875 -1.90625 0.421875q-1.171875 0 -2.140625 -0.515625q-0.96875 -0.53125 -1.53125 -1.46875q-0.546875 -0.9375 -0.546875 -2.125q0 -1.171875 0.546875 -2.09375q0.5625 -0.9375 1.515625 -1.453125q0.96875 -0.515625 2.15625 -0.515625q1.078125 0 1.9375 0.4375q0.875 0.4375 1.390625 1.25l0 -1.625l1.09375 0zm-4.296875 7.09375q0.90625 0 1.640625 -0.390625q0.734375 -0.390625 1.140625 -1.09375q0.40625 -0.703125 0.40625 -1.609375q0 -0.890625 -0.40625 -1.578125q-0.40625 -0.703125 -1.140625 -1.09375q-0.71875 -0.390625 -1.640625 -0.390625q-0.921875 0 -1.65625 0.390625q-0.71875 0.375 -1.125 1.078125q-0.40625 0.703125 -0.40625 1.59375q0 0.90625 0.40625 1.609375q0.40625 0.703125 1.125 1.09375q0.734375 0.390625 1.65625 0.390625zm15.121155 1.40625q-1.21875 0 -2.203125 -0.546875q-0.96875 -0.5625 -1.53125 -1.53125q-0.5625 -0.96875 -0.5625 -2.203125q0 -1.234375 0.5625 -2.203125q0.5625 -0.984375 1.53125 -1.53125q0.984375 -0.546875 2.203125 -0.546875q1.203125 0 2.171875 0.546875q0.984375 0.546875 1.53125 1.53125q0.5625 0.96875 0.5625 2.203125q0 1.234375 -0.5625 2.203125q-0.546875 0.96875 -1.53125 1.53125q-0.96875 0.546875 -2.171875 0.546875zm0 -1.0q0.890625 0 1.59375 -0.40625q0.71875 -0.421875 1.109375 -1.171875q0.40625 -0.75 0.40625 -1.703125q0 -0.96875 -0.40625 -1.71875q-0.390625 -0.75 -1.109375 -1.15625q-0.703125 -0.40625 -1.59375 -0.40625q-0.90625 0 -1.625 0.40625q-0.703125 0.40625 -1.109375 1.15625q-0.40625 0.75 -0.40625 1.71875q0 0.953125 0.40625 1.703125q0.40625 0.75 1.109375 1.171875q0.71875 0.40625 1.625 0.40625zm9.375763 -10.0625q-0.75 0 -1.125 0.40625q-0.375 0.390625 -0.375 1.171875l0 0.984375l2.59375 0l0 0.96875l-2.5625 0l0 7.453125l-1.125 0l0 -7.453125l-1.515625 0l0 -0.96875l1.515625 0l0 -1.03125q0 -1.15625 0.65625 -1.828125q0.671875 -0.671875 1.875 -0.671875q0.484375 0 0.9375 0.140625q0.453125 0.125 0.75 0.390625l-0.390625 0.84375q-0.484375 -0.40625 -1.234375 -0.40625zm9.084778 11.0625q-1.03125 0 -1.96875 -0.296875q-0.9375 -0.296875 -1.453125 -0.734375l0.5 -0.90625q0.53125 0.421875 1.328125 0.6875q0.8125 0.265625 1.671875 0.265625q1.15625 0 1.703125 -0.359375q0.546875 -0.359375 0.546875 -1.015625q0 -0.46875 -0.3125 -0.734375q-0.296875 -0.265625 -0.765625 -0.390625q-0.453125 -0.140625 -1.21875 -0.28125q-1.03125 -0.1875 -1.65625 -0.375q-0.625 -0.203125 -1.0625 -0.6875q-0.4375 -0.484375 -0.4375 -1.328125q0 -1.0625 0.875 -1.734375q0.890625 -0.671875 2.453125 -0.671875q0.8125 0 1.625 0.21875q0.828125 0.21875 1.359375 0.5625l-0.5 0.921875q-1.046875 -0.71875 -2.484375 -0.71875q-1.09375 0 -1.640625 0.390625q-0.546875 0.375 -0.546875 1.0q0 0.484375 0.3125 0.765625q0.3125 0.28125 0.765625 0.421875q0.46875 0.140625 1.28125 0.28125q1.015625 0.1875 1.625 0.390625q0.609375 0.1875 1.03125 0.65625q0.4375 0.453125 0.4375 1.28125q0 1.09375 -0.921875 1.75q-0.921875 0.640625 -2.546875 0.640625zm9.99588 -0.59375q-0.3125 0.296875 -0.796875 0.453125q-0.46875 0.140625 -0.984375 0.140625q-1.171875 0 -1.8125 -0.640625q-0.640625 -0.640625 -0.640625 -1.8125l0 -5.078125l-1.515625 0l0 -0.96875l1.515625 0l0 -1.828125l1.125 0l0 1.828125l2.5625 0l0 0.96875l-2.5625 0l0 5.015625q0 0.75 0.375 1.15625q0.375 0.390625 1.09375 0.390625q0.34375 0 0.671875 -0.109375q0.328125 -0.125 0.5625 -0.328125l0.40625 0.8125zm5.0116577 -7.96875q1.640625 0 2.515625 0.828125q0.890625 0.828125 0.890625 2.4375l0 5.21875l-1.09375 0l0 -1.3125q-0.375 0.65625 -1.125 1.03125q-0.75 0.359375 -1.765625 0.359375q-1.40625 0 -2.25 -0.671875q-0.828125 -0.671875 -0.828125 -1.78125q0 -1.0625 0.78125 -1.71875q0.78125 -0.65625 2.46875 -0.65625l2.671875 0l0 -0.515625q0 -1.09375 -0.609375 -1.65625q-0.609375 -0.5625 -1.765625 -0.5625q-0.8125 0 -1.546875 0.265625q-0.734375 0.265625 -1.265625 0.71875l-0.5 -0.84375q0.640625 -0.546875 1.53125 -0.84375q0.890625 -0.296875 1.890625 -0.296875zm-0.40625 7.671875q0.96875 0 1.65625 -0.4375q0.6875 -0.453125 1.015625 -1.28125l0 -1.375l-2.640625 0q-2.15625 0 -2.15625 1.5q0 0.75 0.5625 1.171875q0.5625 0.421875 1.5625 0.421875zm14.722015 -7.609375l0 7.390625q0 2.15625 -1.046875 3.1875q-1.046875 1.03125 -3.15625 1.03125q-1.171875 0 -2.21875 -0.34375q-1.046875 -0.34375 -1.703125 -0.953125l0.578125 -0.859375q0.609375 0.53125 1.46875 0.828125q0.875 0.3125 1.84375 0.3125q1.59375 0 2.34375 -0.75q0.75 -0.734375 0.75 -2.296875l0 -1.078125q-0.515625 0.796875 -1.375 1.21875q-0.859375 0.421875 -1.90625 0.421875q-1.171875 0 -2.140625 -0.515625q-0.96875 -0.53125 -1.53125 -1.46875q-0.546875 -0.9375 -0.546875 -2.125q0 -1.171875 0.546875 -2.09375q0.5625 -0.9375 1.515625 -1.453125q0.96875 -0.515625 2.15625 -0.515625q1.078125 0 1.9375 0.4375q0.875 0.4375 1.390625 1.25l0 -1.625l1.09375 0zm-4.296875 7.09375q0.90625 0 1.640625 -0.390625q0.734375 -0.390625 1.140625 -1.09375q0.40625 -0.703125 0.40625 -1.609375q0 -0.890625 -0.40625 -1.578125q-0.40625 -0.703125 -1.140625 -1.09375q-0.71875 -0.390625 -1.640625 -0.390625q-0.921875 0 -1.65625 0.390625q-0.71875 0.375 -1.125 1.078125q-0.40625 0.703125 -0.40625 1.59375q0 0.90625 0.40625 1.609375q0.40625 0.703125 1.125 1.09375q0.734375 0.390625 1.65625 0.390625zm14.804138 -2.53125l-7.03125 0q0.09375 1.3125 1.0 2.125q0.921875 0.8125 2.3125 0.8125q0.78125 0 1.4375 -0.28125q0.65625 -0.28125 1.140625 -0.828125l0.640625 0.734375q-0.5625 0.671875 -1.40625 1.03125q-0.84375 0.34375 -1.84375 0.34375q-1.296875 0 -2.296875 -0.546875q-1.0 -0.5625 -1.5625 -1.53125q-0.5625 -0.96875 -0.5625 -2.203125q0 -1.234375 0.53125 -2.203125q0.546875 -0.984375 1.484375 -1.53125q0.9375 -0.546875 2.09375 -0.546875q1.171875 0 2.09375 0.546875q0.9375 0.546875 1.453125 1.515625q0.53125 0.96875 0.53125 2.21875l-0.015625 0.34375zm-4.0625 -3.640625q-1.21875 0 -2.046875 0.78125q-0.8125 0.765625 -0.921875 2.015625l5.96875 0q-0.109375 -1.25 -0.9375 -2.015625q-0.828125 -0.78125 -2.0625 -0.78125zm17.918518 3.640625l-7.03125 0q0.09375 1.3125 1.0 2.125q0.921875 0.8125 2.3125 0.8125q0.78125 0 1.4375 -0.28125q0.65625 -0.28125 1.140625 -0.828125l0.640625 0.734375q-0.5625 0.671875 -1.40625 1.03125q-0.84375 0.34375 -1.84375 0.34375q-1.296875 0 -2.296875 -0.546875q-1.0 -0.5625 -1.5625 -1.53125q-0.5625 -0.96875 -0.5625 -2.203125q0 -1.234375 0.53125 -2.203125q0.546875 -0.984375 1.484375 -1.53125q0.9375 -0.546875 2.09375 -0.546875q1.171875 0 2.09375 0.546875q0.9375 0.546875 1.453125 1.515625q0.53125 0.96875 0.53125 2.21875l-0.015625 0.34375zm-4.0625 -3.640625q-1.21875 0 -2.046875 0.78125q-0.8125 0.765625 -0.921875 2.015625l5.96875 0q-0.109375 -1.25 -0.9375 -2.015625q-0.828125 -0.78125 -2.0625 -0.78125zm11.517761 7.5l-2.671875 -3.515625l-2.6875 3.515625l-1.28125 0l3.328125 -4.3125l-3.15625 -4.109375l1.28125 0l2.515625 3.296875l2.53125 -3.296875l1.25 0l-3.171875 4.109375l3.359375 4.3125l-1.296875 0zm7.528412 -8.484375q1.1875 0 2.140625 0.546875q0.96875 0.53125 1.5 1.515625q0.546875 0.96875 0.546875 2.21875q0 1.265625 -0.546875 2.25q-0.53125 0.96875 -1.484375 1.5q-0.953125 0.53125 -2.15625 0.53125q-1.03125 0 -1.859375 -0.421875q-0.8125 -0.421875 -1.34375 -1.234375l0 4.6875l-1.140625 0l0 -11.53125l1.09375 0l0 1.671875q0.515625 -0.828125 1.34375 -1.28125q0.84375 -0.453125 1.90625 -0.453125zm-0.078125 7.5625q0.875 0 1.59375 -0.40625q0.71875 -0.421875 1.125 -1.171875q0.40625 -0.75 0.40625 -1.703125q0 -0.96875 -0.40625 -1.703125q-0.40625 -0.75 -1.125 -1.15625q-0.71875 -0.421875 -1.59375 -0.421875q-0.90625 0 -1.625 0.421875q-0.703125 0.40625 -1.109375 1.15625q-0.40625 0.734375 -0.40625 1.703125q0 0.953125 0.40625 1.703125q0.40625 0.75 1.109375 1.171875q0.71875 0.40625 1.625 0.40625zm13.910522 -2.9375l-7.03125 0q0.09375 1.3125 1.0 2.125q0.921875 0.8125 2.3125 0.8125q0.78125 0 1.4375 -0.28125q0.65625 -0.28125 1.140625 -0.828125l0.640625 0.734375q-0.5625 0.671875 -1.40625 1.03125q-0.84375 0.34375 -1.84375 0.34375q-1.296875 0 -2.296875 -0.546875q-1.0 -0.5625 -1.5625 -1.53125q-0.5625 -0.96875 -0.5625 -2.203125q0 -1.234375 0.53125 -2.203125q0.546875 -0.984375 1.484375 -1.53125q0.9375 -0.546875 2.09375 -0.546875q1.171875 0 2.09375 0.546875q0.9375 0.546875 1.453125 1.515625q0.53125 0.96875 0.53125 2.21875l-0.015625 0.34375zm-4.0625 -3.640625q-1.21875 0 -2.046875 0.78125q-0.8125 0.765625 -0.921875 2.015625l5.96875 0q-0.109375 -1.25 -0.9375 -2.015625q-0.828125 -0.78125 -2.0625 -0.78125zm7.4921265 0.734375q0.40625 -0.84375 1.1875 -1.28125q0.796875 -0.4375 1.96875 -0.4375l0 1.109375l-0.28125 -0.015625q-1.328125 0 -2.078125 0.8125q-0.75 0.8125 -0.75 2.296875l0 4.28125l-1.140625 0l0 -8.421875l1.09375 0l0 1.65625zm5.194275 -1.65625l1.140625 0l0 8.421875l-1.140625 0l0 -8.421875zm0.578125 -1.828125q-0.359375 0 -0.59375 -0.234375q-0.234375 -0.25 -0.234375 -0.59375q0 -0.3125 0.234375 -0.546875q0.234375 -0.25 0.59375 -0.25q0.34375 0 0.578125 0.234375q0.25 0.234375 0.25 0.546875q0 0.359375 -0.25 0.609375q-0.234375 0.234375 -0.578125 0.234375zm11.054016 6.390625l-7.03125 0q0.09375 1.3125 1.0 2.125q0.921875 0.8125 2.3125 0.8125q0.78125 0 1.4375 -0.28125q0.65625 -0.28125 1.140625 -0.828125l0.640625 0.734375q-0.5625 0.671875 -1.40625 1.03125q-0.84375 0.34375 -1.84375 0.34375q-1.296875 0 -2.296875 -0.546875q-1.0 -0.5625 -1.5625 -1.53125q-0.5625 -0.96875 -0.5625 -2.203125q0 -1.234375 0.53125 -2.203125q0.546875 -0.984375 1.484375 -1.53125q0.9375 -0.546875 2.09375 -0.546875q1.171875 0 2.09375 0.546875q0.9375 0.546875 1.453125 1.515625q0.53125 0.96875 0.53125 2.21875l-0.015625 0.34375zm-4.0625 -3.640625q-1.21875 0 -2.046875 0.78125q-0.8125 0.765625 -0.921875 2.015625l5.96875 0q-0.109375 -1.25 -0.9375 -2.015625q-0.828125 -0.78125 -2.0625 -0.78125zm10.695251 -0.984375q1.578125 0 2.515625 0.921875q0.9375 0.921875 0.9375 2.6875l0 4.875l-1.140625 0l0 -4.765625q0 -1.3125 -0.65625 -2.0q-0.65625 -0.6875 -1.875 -0.6875q-1.359375 0 -2.15625 0.8125q-0.78125 0.796875 -0.78125 2.21875l0 4.421875l-1.140625 0l0 -8.421875l1.09375 0l0 1.5625q0.46875 -0.765625 1.28125 -1.1875q0.828125 -0.4375 1.921875 -0.4375zm10.067139 8.5625q-1.25 0 -2.234375 -0.546875q-0.984375 -0.546875 -1.546875 -1.515625q-0.5625 -0.984375 -0.5625 -2.21875q0 -1.234375 0.5625 -2.203125q0.5625 -0.984375 1.546875 -1.53125q0.984375 -0.546875 2.234375 -0.546875q1.078125 0 1.9375 0.4375q0.859375 0.421875 1.359375 1.234375l-0.859375 0.578125q-0.40625 -0.625 -1.046875 -0.9375q-0.640625 -0.3125 -1.390625 -0.3125q-0.921875 0 -1.65625 0.40625q-0.71875 0.40625 -1.125 1.15625q-0.40625 0.75 -0.40625 1.71875q0 0.96875 0.40625 1.71875q0.40625 0.734375 1.125 1.15625q0.734375 0.40625 1.65625 0.40625q0.75 0 1.390625 -0.296875q0.640625 -0.3125 1.046875 -0.9375l0.859375 0.578125q-0.5 0.8125 -1.375 1.234375q-0.859375 0.421875 -1.921875 0.421875zm12.692139 -3.9375l-7.03125 0q0.09375 1.3125 1.0 2.125q0.921875 0.8125 2.3125 0.8125q0.78125 0 1.4375 -0.28125q0.65625 -0.28125 1.140625 -0.828125l0.640625 0.734375q-0.5625 0.671875 -1.40625 1.03125q-0.84375 0.34375 -1.84375 0.34375q-1.296875 0 -2.296875 -0.546875q-1.0 -0.5625 -1.5625 -1.53125q-0.5625 -0.96875 -0.5625 -2.203125q0 -1.234375 0.53125 -2.203125q0.546875 -0.984375 1.484375 -1.53125q0.9375 -0.546875 2.09375 -0.546875q1.171875 0 2.09375 0.546875q0.9375 0.546875 1.453125 1.515625q0.53125 0.96875 0.53125 2.21875l-0.015625 0.34375zm-4.0625 -3.640625q-1.21875 0 -2.046875 0.78125q-0.8125 0.765625 -0.921875 2.015625l5.96875 0q-0.109375 -1.25 -0.9375 -2.015625q-0.828125 -0.78125 -2.0625 -0.78125zm14.934143 -0.984375q1.1875 0 2.140625 0.546875q0.96875 0.53125 1.5 1.515625q0.546875 0.96875 0.546875 2.21875q0 1.25 -0.546875 2.21875q-0.53125 0.96875 -1.5 1.515625q-0.953125 0.546875 -2.140625 0.546875q-1.0625 0 -1.90625 -0.4375q-0.828125 -0.453125 -1.34375 -1.296875l0 1.65625l-1.09375 0l0 -11.875l1.140625 0l0 5.0625q0.53125 -0.8125 1.34375 -1.234375q0.828125 -0.4375 1.859375 -0.4375zm-0.078125 7.5625q0.875 0 1.59375 -0.40625q0.71875 -0.421875 1.125 -1.171875q0.40625 -0.75 0.40625 -1.703125q0 -0.96875 -0.40625 -1.71875q-0.40625 -0.75 -1.125 -1.15625q-0.71875 -0.40625 -1.59375 -0.40625q-0.90625 0 -1.625 0.40625q-0.703125 0.40625 -1.109375 1.15625q-0.40625 0.75 -0.40625 1.71875q0 0.953125 0.40625 1.703125q0.40625 0.75 1.109375 1.171875q0.71875 0.40625 1.625 0.40625zm13.910522 -2.9375l-7.03125 0q0.09375 1.3125 1.0 2.125q0.921875 0.8125 2.3125 0.8125q0.78125 0 1.4375 -0.28125q0.65625 -0.28125 1.140625 -0.828125l0.640625 0.734375q-0.5625 0.671875 -1.40625 1.03125q-0.84375 0.34375 -1.84375 0.34375q-1.296875 0 -2.296875 -0.546875q-1.0 -0.5625 -1.5625 -1.53125q-0.5625 -0.96875 -0.5625 -2.203125q0 -1.234375 0.53125 -2.203125q0.546875 -0.984375 1.484375 -1.53125q0.9375 -0.546875 2.09375 -0.546875q1.171875 0 2.09375 0.546875q0.9375 0.546875 1.453125 1.515625q0.53125 0.96875 0.53125 2.21875l-0.015625 0.34375zm-4.0625 -3.640625q-1.21875 0 -2.046875 0.78125q-0.8125 0.765625 -0.921875 2.015625l5.96875 0q-0.109375 -1.25 -0.9375 -2.015625q-0.828125 -0.78125 -2.0625 -0.78125zm9.195251 -3.484375q-0.75 0 -1.125 0.40625q-0.375 0.390625 -0.375 1.171875l0 0.984375l2.59375 0l0 0.96875l-2.5625 0l0 7.453125l-1.125 0l0 -7.453125l-1.515625 0l0 -0.96875l1.515625 0l0 -1.03125q0 -1.15625 0.65625 -1.828125q0.671875 -0.671875 1.875 -0.671875q0.484375 0 0.9375 0.140625q0.453125 0.125 0.75 0.390625l-0.390625 0.84375q-0.484375 -0.40625 -1.234375 -0.40625zm5.9362793 11.0625q-1.21875 0 -2.203125 -0.546875q-0.96875 -0.5625 -1.53125 -1.53125q-0.5625 -0.96875 -0.5625 -2.203125q0 -1.234375 0.5625 -2.203125q0.5625 -0.984375 1.53125 -1.53125q0.984375 -0.546875 2.203125 -0.546875q1.203125 0 2.171875 0.546875q0.984375 0.546875 1.53125 1.53125q0.5625 0.96875 0.5625 2.203125q0 1.234375 -0.5625 2.203125q-0.546875 0.96875 -1.53125 1.53125q-0.96875 0.546875 -2.171875 0.546875zm0 -1.0q0.890625 0 1.59375 -0.40625q0.71875 -0.421875 1.109375 -1.171875q0.40625 -0.75 0.40625 -1.703125q0 -0.96875 -0.40625 -1.71875q-0.390625 -0.75 -1.109375 -1.15625q-0.703125 -0.40625 -1.59375 -0.40625q-0.90625 0 -1.625 0.40625q-0.703125 0.40625 -1.109375 1.15625q-0.40625 0.75 -0.40625 1.71875q0 0.953125 0.40625 1.703125q0.40625 0.75 1.109375 1.171875q0.71875 0.40625 1.625 0.40625zm7.672638 -5.84375q0.40625 -0.84375 1.1875 -1.28125q0.796875 -0.4375 1.96875 -0.4375l0 1.109375l-0.28125 -0.015625q-1.328125 0 -2.078125 0.8125q-0.75 0.8125 -0.75 2.296875l0 4.28125l-1.140625 0l0 -8.421875l1.09375 0l0 1.65625zm12.442413 2.90625l-7.03125 0q0.09375 1.3125 1.0 2.125q0.921875 0.8125 2.3125 0.8125q0.78125 0 1.4375 -0.28125q0.65625 -0.28125 1.140625 -0.828125l0.640625 0.734375q-0.5625 0.671875 -1.40625 1.03125q-0.84375 0.34375 -1.84375 0.34375q-1.296875 0 -2.296875 -0.546875q-1.0 -0.5625 -1.5625 -1.53125q-0.5625 -0.96875 -0.5625 -2.203125q0 -1.234375 0.53125 -2.203125q0.546875 -0.984375 1.484375 -1.53125q0.9375 -0.546875 2.09375 -0.546875q1.171875 0 2.09375 0.546875q0.9375 0.546875 1.453125 1.515625q0.53125 0.96875 0.53125 2.21875l-0.015625 0.34375zm-4.0625 -3.640625q-1.21875 0 -2.046875 0.78125q-0.8125 0.765625 -0.921875 2.015625l5.96875 0q-0.109375 -1.25 -0.9375 -2.015625q-0.828125 -0.78125 -2.0625 -0.78125zm14.934143 -0.984375q1.1875 0 2.140625 0.546875q0.96875 0.53125 1.5 1.515625q0.546875 0.96875 0.546875 2.21875q0 1.265625 -0.546875 2.25q-0.53125 0.96875 -1.484375 1.5q-0.953125 0.53125 -2.15625 0.53125q-1.03125 0 -1.859375 -0.421875q-0.8125 -0.421875 -1.34375 -1.234375l0 4.6875l-1.140625 0l0 -11.53125l1.09375 0l0 1.671875q0.515625 -0.828125 1.34375 -1.28125q0.84375 -0.453125 1.90625 -0.453125zm-0.078125 7.5625q0.875 0 1.59375 -0.40625q0.71875 -0.421875 1.125 -1.171875q0.40625 -0.75 0.40625 -1.703125q0 -0.96875 -0.40625 -1.703125q-0.40625 -0.75 -1.125 -1.15625q-0.71875 -0.421875 -1.59375 -0.421875q-0.90625 0 -1.625 0.421875q-0.703125 0.40625 -1.109375 1.15625q-0.40625 0.734375 -0.40625 1.703125q0 0.953125 0.40625 1.703125q0.40625 0.75 1.109375 1.171875q0.71875 0.40625 1.625 0.40625zm10.879272 -7.5625q1.578125 0 2.515625 0.921875q0.9375 0.921875 0.9375 2.6875l0 4.875l-1.140625 0l0 -4.765625q0 -1.3125 -0.65625 -2.0q-0.65625 -0.6875 -1.875 -0.6875q-1.359375 0 -2.15625 0.8125q-0.78125 0.796875 -0.78125 2.21875l0 4.421875l-1.140625 0l0 -11.875l1.140625 0l0 4.9375q0.46875 -0.75 1.28125 -1.140625q0.8125 -0.40625 1.875 -0.40625zm13.453247 0.0625l-4.203125 9.4375q-0.515625 1.171875 -1.1875 1.671875q-0.671875 0.5 -1.625 0.5q-0.59375 0 -1.125 -0.203125q-0.53125 -0.1875 -0.921875 -0.5625l0.53125 -0.859375q0.640625 0.640625 1.53125 0.640625q0.578125 0 0.984375 -0.328125q0.421875 -0.3125 0.765625 -1.078125l0.375 -0.8125l-3.765625 -8.40625l1.1875 0l3.171875 7.15625l3.15625 -7.15625l1.125 0zm3.7635498 8.5q-1.03125 0 -1.96875 -0.296875q-0.9375 -0.296875 -1.453125 -0.734375l0.5 -0.90625q0.53125 0.421875 1.328125 0.6875q0.8125 0.265625 1.671875 0.265625q1.15625 0 1.703125 -0.359375q0.546875 -0.359375 0.546875 -1.015625q0 -0.46875 -0.3125 -0.734375q-0.296875 -0.265625 -0.765625 -0.390625q-0.453125 -0.140625 -1.21875 -0.28125q-1.03125 -0.1875 -1.65625 -0.375q-0.625 -0.203125 -1.0625 -0.6875q-0.4375 -0.484375 -0.4375 -1.328125q0 -1.0625 0.875 -1.734375q0.890625 -0.671875 2.453125 -0.671875q0.8125 0 1.625 0.21875q0.828125 0.21875 1.359375 0.5625l-0.5 0.921875q-1.046875 -0.71875 -2.484375 -0.71875q-1.09375 0 -1.640625 0.390625q-0.546875 0.375 -0.546875 1.0q0 0.484375 0.3125 0.765625q0.3125 0.28125 0.765625 0.421875q0.46875 0.140625 1.28125 0.28125q1.015625 0.1875 1.625 0.390625q0.609375 0.1875 1.03125 0.65625q0.4375 0.453125 0.4375 1.28125q0 1.09375 -0.921875 1.75q-0.921875 0.640625 -2.546875 0.640625zm5.5583496 -8.5l1.140625 0l0 8.421875l-1.140625 0l0 -8.421875zm0.578125 -1.828125q-0.359375 0 -0.59375 -0.234375q-0.234375 -0.25 -0.234375 -0.59375q0 -0.3125 0.234375 -0.546875q0.234375 -0.25 0.59375 -0.25q0.34375 0 0.578125 0.234375q0.25 0.234375 0.25 0.546875q0 0.359375 -0.25 0.609375q-0.234375 0.234375 -0.578125 0.234375zm7.225891 10.328125q-1.25 0 -2.234375 -0.546875q-0.984375 -0.546875 -1.546875 -1.515625q-0.5625 -0.984375 -0.5625 -2.21875q0 -1.234375 0.5625 -2.203125q0.5625 -0.984375 1.546875 -1.53125q0.984375 -0.546875 2.234375 -0.546875q1.078125 0 1.9375 0.4375q0.859375 0.421875 1.359375 1.234375l-0.859375 0.578125q-0.40625 -0.625 -1.046875 -0.9375q-0.640625 -0.3125 -1.390625 -0.3125q-0.921875 0 -1.65625 0.40625q-0.71875 0.40625 -1.125 1.15625q-0.40625 0.75 -0.40625 1.71875q0 0.96875 0.40625 1.71875q0.40625 0.734375 1.125 1.15625q0.734375 0.40625 1.65625 0.40625q0.75 0 1.390625 -0.296875q0.640625 -0.3125 1.046875 -0.9375l0.859375 0.578125q-0.5 0.8125 -1.375 1.234375q-0.859375 0.421875 -1.921875 0.421875zm8.461121 -8.5625q1.640625 0 2.515625 0.828125q0.890625 0.828125 0.890625 2.4375l0 5.21875l-1.09375 0l0 -1.3125q-0.375 0.65625 -1.125 1.03125q-0.75 0.359375 -1.765625 0.359375q-1.40625 0 -2.25 -0.671875q-0.828125 -0.671875 -0.828125 -1.78125q0 -1.0625 0.78125 -1.71875q0.78125 -0.65625 2.46875 -0.65625l2.671875 0l0 -0.515625q0 -1.09375 -0.609375 -1.65625q-0.609375 -0.5625 -1.765625 -0.5625q-0.8125 0 -1.546875 0.265625q-0.734375 0.265625 -1.265625 0.71875l-0.5 -0.84375q0.640625 -0.546875 1.53125 -0.84375q0.890625 -0.296875 1.890625 -0.296875zm-0.40625 7.671875q0.96875 0 1.65625 -0.4375q0.6875 -0.453125 1.015625 -1.28125l0 -1.375l-2.640625 0q-2.15625 0 -2.15625 1.5q0 0.75 0.5625 1.171875q0.5625 0.421875 1.5625 0.421875zm6.8931274 -11.0625l1.140625 0l0 11.875l-1.140625 0l0 -11.875zm12.839783 3.390625q1.1875 0 2.140625 0.546875q0.96875 0.53125 1.5 1.515625q0.546875 0.96875 0.546875 2.21875q0 1.265625 -0.546875 2.25q-0.53125 0.96875 -1.484375 1.5q-0.953125 0.53125 -2.15625 0.53125q-1.03125 0 -1.859375 -0.421875q-0.8125 -0.421875 -1.34375 -1.234375l0 4.6875l-1.140625 0l0 -11.53125l1.09375 0l0 1.671875q0.515625 -0.828125 1.34375 -1.28125q0.84375 -0.453125 1.90625 -0.453125zm-0.078125 7.5625q0.875 0 1.59375 -0.40625q0.71875 -0.421875 1.125 -1.171875q0.40625 -0.75 0.40625 -1.703125q0 -0.96875 -0.40625 -1.703125q-0.40625 -0.75 -1.125 -1.15625q-0.71875 -0.421875 -1.59375 -0.421875q-0.90625 0 -1.625 0.421875q-0.703125 0.40625 -1.109375 1.15625q-0.40625 0.734375 -0.40625 1.703125q0 0.953125 0.40625 1.703125q0.40625 0.75 1.109375 1.171875q0.71875 0.40625 1.625 0.40625zm7.6761475 -5.84375q0.40625 -0.84375 1.1875 -1.28125q0.796875 -0.4375 1.96875 -0.4375l0 1.109375l-0.28125 -0.015625q-1.328125 0 -2.078125 0.8125q-0.75 0.8125 -0.75 2.296875l0 4.28125l-1.140625 0l0 -8.421875l1.09375 0l0 1.65625zm8.567383 6.84375q-1.21875 0 -2.203125 -0.546875q-0.96875 -0.5625 -1.53125 -1.53125q-0.5625 -0.96875 -0.5625 -2.203125q0 -1.234375 0.5625 -2.203125q0.5625 -0.984375 1.53125 -1.53125q0.984375 -0.546875 2.203125 -0.546875q1.203125 0 2.171875 0.546875q0.984375 0.546875 1.53125 1.53125q0.5625 0.96875 0.5625 2.203125q0 1.234375 -0.5625 2.203125q-0.546875 0.96875 -1.53125 1.53125q-0.96875 0.546875 -2.171875 0.546875zm0 -1.0q0.890625 0 1.59375 -0.40625q0.71875 -0.421875 1.109375 -1.171875q0.40625 -0.75 0.40625 -1.703125q0 -0.96875 -0.40625 -1.71875q-0.390625 -0.75 -1.109375 -1.15625q-0.703125 -0.40625 -1.59375 -0.40625q-0.90625 0 -1.625 0.40625q-0.703125 0.40625 -1.109375 1.15625q-0.40625 0.75 -0.40625 1.71875q0 0.953125 0.40625 1.703125q0.40625 0.75 1.109375 1.171875q0.71875 0.40625 1.625 0.40625zm14.266418 -10.953125l0 11.875l-1.09375 0l0 -1.65625q-0.515625 0.84375 -1.359375 1.296875q-0.828125 0.4375 -1.890625 0.4375q-1.171875 0 -2.140625 -0.546875q-0.953125 -0.546875 -1.5 -1.515625q-0.546875 -0.96875 -0.546875 -2.21875q0 -1.25 0.546875 -2.21875q0.546875 -0.984375 1.5 -1.515625q0.96875 -0.546875 2.140625 -0.546875q1.03125 0 1.84375 0.4375q0.828125 0.421875 1.359375 1.234375l0 -5.0625l1.140625 0zm-4.234375 10.953125q0.875 0 1.578125 -0.40625q0.71875 -0.421875 1.125 -1.171875q0.40625 -0.75 0.40625 -1.703125q0 -0.96875 -0.40625 -1.71875q-0.40625 -0.75 -1.125 -1.15625q-0.703125 -0.40625 -1.578125 -0.40625q-0.90625 0 -1.625 0.40625q-0.703125 0.40625 -1.109375 1.15625q-0.40625 0.75 -0.40625 1.71875q0 0.953125 0.40625 1.703125q0.40625 0.75 1.109375 1.171875q0.71875 0.40625 1.625 0.40625zm14.988647 -7.5l0 8.421875l-1.09375 0l0 -1.53125q-0.453125 0.765625 -1.234375 1.1875q-0.78125 0.421875 -1.78125 0.421875q-1.65625 0 -2.609375 -0.921875q-0.953125 -0.921875 -0.953125 -2.6875l0 -4.890625l1.140625 0l0 4.78125q0 1.328125 0.65625 2.015625q0.65625 0.6875 1.875 0.6875q1.328125 0 2.09375 -0.8125q0.765625 -0.8125 0.765625 -2.25l0 -4.421875l1.140625 0zm6.6742554 8.5q-1.25 0 -2.234375 -0.546875q-0.984375 -0.546875 -1.546875 -1.515625q-0.5625 -0.984375 -0.5625 -2.21875q0 -1.234375 0.5625 -2.203125q0.5625 -0.984375 1.546875 -1.53125q0.984375 -0.546875 2.234375 -0.546875q1.078125 0 1.9375 0.4375q0.859375 0.421875 1.359375 1.234375l-0.859375 0.578125q-0.40625 -0.625 -1.046875 -0.9375q-0.640625 -0.3125 -1.390625 -0.3125q-0.921875 0 -1.65625 0.40625q-0.71875 0.40625 -1.125 1.15625q-0.40625 0.75 -0.40625 1.71875q0 0.96875 0.40625 1.71875q0.40625 0.734375 1.125 1.15625q0.734375 0.40625 1.65625 0.40625q0.75 0 1.390625 -0.296875q0.640625 -0.3125 1.046875 -0.9375l0.859375 0.578125q-0.5 0.8125 -1.375 1.234375q-0.859375 0.421875 -1.921875 0.421875zm10.041504 -0.59375q-0.3125 0.296875 -0.796875 0.453125q-0.46875 0.140625 -0.984375 0.140625q-1.171875 0 -1.8125 -0.640625q-0.640625 -0.640625 -0.640625 -1.8125l0 -5.078125l-1.515625 0l0 -0.96875l1.515625 0l0 -1.828125l1.125 0l0 1.828125l2.5625 0l0 0.96875l-2.5625 0l0 5.015625q0 0.75 0.375 1.15625q0.375 0.390625 1.09375 0.390625q0.34375 0 0.671875 -0.109375q0.328125 -0.125 0.5625 -0.328125l0.40625 0.8125zm2.0585327 -7.90625l1.140625 0l0 8.421875l-1.140625 0l0 -8.421875zm0.578125 -1.828125q-0.359375 0 -0.59375 -0.234375q-0.234375 -0.25 -0.234375 -0.59375q0 -0.3125 0.234375 -0.546875q0.234375 -0.25 0.59375 -0.25q0.34375 0 0.578125 0.234375q0.25 0.234375 0.25 0.546875q0 0.359375 -0.25 0.609375q-0.234375 0.234375 -0.578125 0.234375zm7.179016 10.328125q-1.21875 0 -2.203125 -0.546875q-0.96875 -0.5625 -1.53125 -1.53125q-0.5625 -0.96875 -0.5625 -2.203125q0 -1.234375 0.5625 -2.203125q0.5625 -0.984375 1.53125 -1.53125q0.984375 -0.546875 2.203125 -0.546875q1.203125 0 2.171875 0.546875q0.984375 0.546875 1.53125 1.53125q0.5625 0.96875 0.5625 2.203125q0 1.234375 -0.5625 2.203125q-0.546875 0.96875 -1.53125 1.53125q-0.96875 0.546875 -2.171875 0.546875zm0 -1.0q0.890625 0 1.59375 -0.40625q0.71875 -0.421875 1.109375 -1.171875q0.40625 -0.75 0.40625 -1.703125q0 -0.96875 -0.40625 -1.71875q-0.390625 -0.75 -1.109375 -1.15625q-0.703125 -0.40625 -1.59375 -0.40625q-0.90625 0 -1.625 0.40625q-0.703125 0.40625 -1.109375 1.15625q-0.40625 0.75 -0.40625 1.71875q0 0.953125 0.40625 1.703125q0.40625 0.75 1.109375 1.171875q0.71875 0.40625 1.625 0.40625zm10.875793 -7.5625q1.578125 0 2.515625 0.921875q0.9375 0.921875 0.9375 2.6875l0 4.875l-1.140625 0l0 -4.765625q0 -1.3125 -0.65625 -2.0q-0.65625 -0.6875 -1.875 -0.6875q-1.359375 0 -2.15625 0.8125q-0.78125 0.796875 -0.78125 2.21875l0 4.421875l-1.140625 0l0 -8.421875l1.09375 0l0 1.5625q0.46875 -0.765625 1.28125 -1.1875q0.828125 -0.4375 1.921875 -0.4375z" fill-rule="nonzero"/><path fill="#000000" fill-opacity="0.0" d="m167.14174 341.34122l615.4331 0l0 41.322815l-615.4331 0z" fill-rule="evenodd"/><path fill="#595959" d="m185.89174 364.66995l0 1.03125l-7.921875 0l0 -11.203125l7.671875 0l0 1.03125l-6.484375 0l0 3.984375l5.78125 0l0 1.0l-5.78125 0l0 4.15625l6.734375 0zm5.3290253 -9.953125q-0.75 0 -1.125 0.40625q-0.375 0.390625 -0.375 1.171875l0 0.984375l2.59375 0l0 0.96875l-2.5625 0l0 7.453125l-1.125 0l0 -7.453125l-1.515625 0l0 -0.96875l1.515625 0l0 -1.03125q0 -1.15625 0.65625 -1.828125q0.671875 -0.671875 1.875 -0.671875q0.484375 0 0.9375 0.140625q0.453125 0.125 0.75 0.390625l-0.390625 0.84375q-0.484375 -0.40625 -1.234375 -0.40625zm5.424011 0q-0.75 0 -1.125 0.40625q-0.375 0.390625 -0.375 1.171875l0 0.984375l2.59375 0l0 0.96875l-2.5625 0l0 7.453125l-1.125 0l0 -7.453125l-1.515625 0l0 -0.96875l1.515625 0l0 -1.03125q0 -1.15625 0.65625 -1.828125q0.671875 -0.671875 1.875 -0.671875q0.484375 0 0.9375 0.140625q0.453125 0.125 0.75 0.390625l-0.390625 0.84375q-0.484375 -0.40625 -1.234375 -0.40625zm9.811264 7.125l-7.03125 0q0.09375 1.3125 1.0 2.125q0.921875 0.8125 2.3125 0.8125q0.78125 0 1.4375 -0.28125q0.65625 -0.28125 1.140625 -0.828125l0.640625 0.734375q-0.5625 0.671875 -1.40625 1.03125q-0.84375 0.34375 -1.84375 0.34375q-1.296875 0 -2.296875 -0.546875q-1.0 -0.5625 -1.5625 -1.53125q-0.5625 -0.96875 -0.5625 -2.203125q0 -1.234375 0.53125 -2.203125q0.546875 -0.984375 1.484375 -1.53125q0.9375 -0.546875 2.09375 -0.546875q1.171875 0 2.09375 0.546875q0.9375 0.546875 1.453125 1.515625q0.53125 0.96875 0.53125 2.21875l-0.015625 0.34375zm-4.0625 -3.640625q-1.21875 0 -2.046875 0.78125q-0.8125 0.765625 -0.921875 2.015625l5.96875 0q-0.109375 -1.25 -0.9375 -2.015625q-0.828125 -0.78125 -2.0625 -0.78125zm9.898392 7.578125q-1.25 0 -2.234375 -0.546875q-0.984375 -0.546875 -1.546875 -1.515625q-0.5625 -0.984375 -0.5625 -2.21875q0 -1.234375 0.5625 -2.203125q0.5625 -0.984375 1.546875 -1.53125q0.984375 -0.546875 2.234375 -0.546875q1.078125 0 1.9375 0.4375q0.859375 0.421875 1.359375 1.234375l-0.859375 0.578125q-0.40625 -0.625 -1.046875 -0.9375q-0.640625 -0.3125 -1.390625 -0.3125q-0.921875 0 -1.65625 0.40625q-0.71875 0.40625 -1.125 1.15625q-0.40625 0.75 -0.40625 1.71875q0 0.96875 0.40625 1.71875q0.40625 0.734375 1.125 1.15625q0.734375 0.40625 1.65625 0.40625q0.75 0 1.390625 -0.296875q0.640625 -0.3125 1.046875 -0.9375l0.859375 0.578125q-0.5 0.8125 -1.375 1.234375q-0.859375 0.421875 -1.921875 0.421875zm10.041504 -0.59375q-0.3125 0.296875 -0.796875 0.453125q-0.46875 0.140625 -0.984375 0.140625q-1.171875 0 -1.8125 -0.640625q-0.640625 -0.640625 -0.640625 -1.8125l0 -5.078125l-1.515625 0l0 -0.96875l1.515625 0l0 -1.828125l1.125 0l0 1.828125l2.5625 0l0 0.96875l-2.5625 0l0 5.015625q0 0.75 0.375 1.15625q0.375 0.390625 1.09375 0.390625q0.34375 0 0.671875 -0.109375q0.328125 -0.125 0.5625 -0.328125l0.40625 0.8125zm2.0585175 -7.90625l1.140625 0l0 8.421875l-1.140625 0l0 -8.421875zm0.578125 -1.828125q-0.359375 0 -0.59375 -0.234375q-0.234375 -0.25 -0.234375 -0.59375q0 -0.3125 0.234375 -0.546875q0.234375 -0.25 0.59375 -0.25q0.34375 0 0.578125 0.234375q0.25 0.234375 0.25 0.546875q0 0.359375 -0.25 0.609375q-0.234375 0.234375 -0.578125 0.234375zm10.804016 1.828125l-3.75 8.421875l-1.15625 0l-3.734375 -8.421875l1.1875 0l3.15625 7.171875l3.171875 -7.171875l1.125 0zm8.682007 4.5625l-7.03125 0q0.09375 1.3125 1.0 2.125q0.921875 0.8125 2.3125 0.8125q0.78125 0 1.4375 -0.28125q0.65625 -0.28125 1.140625 -0.828125l0.640625 0.734375q-0.5625 0.671875 -1.40625 1.03125q-0.84375 0.34375 -1.84375 0.34375q-1.296875 0 -2.296875 -0.546875q-1.0 -0.5625 -1.5625 -1.53125q-0.5625 -0.96875 -0.5625 -2.203125q0 -1.234375 0.53125 -2.203125q0.546875 -0.984375 1.484375 -1.53125q0.9375 -0.546875 2.09375 -0.546875q1.171875 0 2.09375 0.546875q0.9375 0.546875 1.453125 1.515625q0.53125 0.96875 0.53125 2.21875l-0.015625 0.34375zm-4.0625 -3.640625q-1.21875 0 -2.046875 0.78125q-0.8125 0.765625 -0.921875 2.015625l5.96875 0q-0.109375 -1.25 -0.9375 -2.015625q-0.828125 -0.78125 -2.0625 -0.78125zm6.3983917 -4.375l1.140625 0l0 11.875l-1.140625 0l0 -11.875zm11.382141 3.453125l-4.203125 9.4375q-0.515625 1.171875 -1.1875 1.671875q-0.671875 0.5 -1.625 0.5q-0.59375 0 -1.125 -0.203125q-0.53125 -0.1875 -0.921875 -0.5625l0.53125 -0.859375q0.640625 0.640625 1.53125 0.640625q0.578125 0 0.984375 -0.328125q0.421875 -0.3125 0.765625 -1.078125l0.375 -0.8125l-3.765625 -8.40625l1.1875 0l3.171875 7.15625l3.15625 -7.15625l1.125 0zm9.285889 8.5q-1.25 0 -2.234375 -0.546875q-0.984375 -0.546875 -1.546875 -1.515625q-0.5625 -0.984375 -0.5625 -2.21875q0 -1.234375 0.5625 -2.203125q0.5625 -0.984375 1.546875 -1.53125q0.984375 -0.546875 2.234375 -0.546875q1.078125 0 1.9375 0.4375q0.859375 0.421875 1.359375 1.234375l-0.859375 0.578125q-0.40625 -0.625 -1.046875 -0.9375q-0.640625 -0.3125 -1.390625 -0.3125q-0.921875 0 -1.65625 0.40625q-0.71875 0.40625 -1.125 1.15625q-0.40625 0.75 -0.40625 1.71875q0 0.96875 0.40625 1.71875q0.40625 0.734375 1.125 1.15625q0.734375 0.40625 1.65625 0.40625q0.75 0 1.390625 -0.296875q0.640625 -0.3125 1.046875 -0.9375l0.859375 0.578125q-0.5 0.8125 -1.375 1.234375q-0.859375 0.421875 -1.921875 0.421875zm8.817139 0q-1.21875 0 -2.203125 -0.546875q-0.96875 -0.5625 -1.53125 -1.53125q-0.5625 -0.96875 -0.5625 -2.203125q0 -1.234375 0.5625 -2.203125q0.5625 -0.984375 1.53125 -1.53125q0.984375 -0.546875 2.203125 -0.546875q1.203125 0 2.171875 0.546875q0.984375 0.546875 1.53125 1.53125q0.5625 0.96875 0.5625 2.203125q0 1.234375 -0.5625 2.203125q-0.546875 0.96875 -1.53125 1.53125q-0.96875 0.546875 -2.171875 0.546875zm0 -1.0q0.890625 0 1.59375 -0.40625q0.71875 -0.421875 1.109375 -1.171875q0.40625 -0.75 0.40625 -1.703125q0 -0.96875 -0.40625 -1.71875q-0.390625 -0.75 -1.109375 -1.15625q-0.703125 -0.40625 -1.59375 -0.40625q-0.90625 0 -1.625 0.40625q-0.703125 0.40625 -1.109375 1.15625q-0.40625 0.75 -0.40625 1.71875q0 0.953125 0.40625 1.703125q0.40625 0.75 1.109375 1.171875q0.71875 0.40625 1.625 0.40625zm17.078888 -7.5625q1.578125 0 2.484375 0.921875q0.90625 0.90625 0.90625 2.6875l0 4.875l-1.125 0l0 -4.765625q0 -1.3125 -0.640625 -2.0q-0.625 -0.6875 -1.78125 -0.6875q-1.3125 0 -2.0625 0.8125q-0.75 0.796875 -0.75 2.21875l0 4.421875l-1.140625 0l0 -4.765625q0 -1.3125 -0.640625 -2.0q-0.625 -0.6875 -1.796875 -0.6875q-1.296875 0 -2.0625 0.8125q-0.75 0.796875 -0.75 2.21875l0 4.421875l-1.140625 0l0 -8.421875l1.09375 0l0 1.546875q0.453125 -0.765625 1.25 -1.1875q0.796875 -0.421875 1.84375 -0.421875q1.046875 0 1.828125 0.453125q0.78125 0.453125 1.15625 1.328125q0.46875 -0.828125 1.328125 -1.296875q0.875 -0.484375 2.0 -0.484375zm16.976013 0q1.578125 0 2.484375 0.921875q0.90625 0.90625 0.90625 2.6875l0 4.875l-1.125 0l0 -4.765625q0 -1.3125 -0.640625 -2.0q-0.625 -0.6875 -1.78125 -0.6875q-1.3125 0 -2.0625 0.8125q-0.75 0.796875 -0.75 2.21875l0 4.421875l-1.140625 0l0 -4.765625q0 -1.3125 -0.640625 -2.0q-0.625 -0.6875 -1.796875 -0.6875q-1.296875 0 -2.0625 0.8125q-0.75 0.796875 -0.75 2.21875l0 4.421875l-1.140625 0l0 -8.421875l1.09375 0l0 1.546875q0.453125 -0.765625 1.25 -1.1875q0.796875 -0.421875 1.84375 -0.421875q1.046875 0 1.828125 0.453125q0.78125 0.453125 1.15625 1.328125q0.46875 -0.828125 1.328125 -1.296875q0.875 -0.484375 2.0 -0.484375zm14.069794 0.0625l0 8.421875l-1.09375 0l0 -1.53125q-0.453125 0.765625 -1.234375 1.1875q-0.78125 0.421875 -1.78125 0.421875q-1.65625 0 -2.609375 -0.921875q-0.953125 -0.921875 -0.953125 -2.6875l0 -4.890625l1.140625 0l0 4.78125q0 1.328125 0.65625 2.015625q0.65625 0.6875 1.875 0.6875q1.328125 0 2.09375 -0.8125q0.765625 -0.8125 0.765625 -2.25l0 -4.421875l1.140625 0zm7.4711304 -0.0625q1.578125 0 2.515625 0.921875q0.9375 0.921875 0.9375 2.6875l0 4.875l-1.140625 0l0 -4.765625q0 -1.3125 -0.65625 -2.0q-0.65625 -0.6875 -1.875 -0.6875q-1.359375 0 -2.15625 0.8125q-0.78125 0.796875 -0.78125 2.21875l0 4.421875l-1.140625 0l0 -8.421875l1.09375 0l0 1.5625q0.46875 -0.765625 1.28125 -1.1875q0.828125 -0.4375 1.921875 -0.4375zm6.5351562 0.0625l1.140625 0l0 8.421875l-1.140625 0l0 -8.421875zm0.578125 -1.828125q-0.359375 0 -0.59375 -0.234375q-0.234375 -0.25 -0.234375 -0.59375q0 -0.3125 0.234375 -0.546875q0.234375 -0.25 0.59375 -0.25q0.34375 0 0.578125 0.234375q0.25 0.234375 0.25 0.546875q0 0.359375 -0.25 0.609375q-0.234375 0.234375 -0.578125 0.234375zm7.225891 10.328125q-1.25 0 -2.234375 -0.546875q-0.984375 -0.546875 -1.546875 -1.515625q-0.5625 -0.984375 -0.5625 -2.21875q0 -1.234375 0.5625 -2.203125q0.5625 -0.984375 1.546875 -1.53125q0.984375 -0.546875 2.234375 -0.546875q1.078125 0 1.9375 0.4375q0.859375 0.421875 1.359375 1.234375l-0.859375 0.578125q-0.40625 -0.625 -1.046875 -0.9375q-0.640625 -0.3125 -1.390625 -0.3125q-0.921875 0 -1.65625 0.40625q-0.71875 0.40625 -1.125 1.15625q-0.40625 0.75 -0.40625 1.71875q0 0.96875 0.40625 1.71875q0.40625 0.734375 1.125 1.15625q0.734375 0.40625 1.65625 0.40625q0.75 0 1.390625 -0.296875q0.640625 -0.3125 1.046875 -0.9375l0.859375 0.578125q-0.5 0.8125 -1.375 1.234375q-0.859375 0.421875 -1.921875 0.421875zm8.461121 -8.5625q1.640625 0 2.515625 0.828125q0.890625 0.828125 0.890625 2.4375l0 5.21875l-1.09375 0l0 -1.3125q-0.375 0.65625 -1.125 1.03125q-0.75 0.359375 -1.765625 0.359375q-1.40625 0 -2.25 -0.671875q-0.828125 -0.671875 -0.828125 -1.78125q0 -1.0625 0.78125 -1.71875q0.78125 -0.65625 2.46875 -0.65625l2.671875 0l0 -0.515625q0 -1.09375 -0.609375 -1.65625q-0.609375 -0.5625 -1.765625 -0.5625q-0.8125 0 -1.546875 0.265625q-0.734375 0.265625 -1.265625 0.71875l-0.5 -0.84375q0.640625 -0.546875 1.53125 -0.84375q0.890625 -0.296875 1.890625 -0.296875zm-0.40625 7.671875q0.96875 0 1.65625 -0.4375q0.6875 -0.453125 1.015625 -1.28125l0 -1.375l-2.640625 0q-2.15625 0 -2.15625 1.5q0 0.75 0.5625 1.171875q0.5625 0.421875 1.5625 0.421875zm11.330658 0.296875q-0.3125 0.296875 -0.796875 0.453125q-0.46875 0.140625 -0.984375 0.140625q-1.171875 0 -1.8125 -0.640625q-0.640625 -0.640625 -0.640625 -1.8125l0 -5.078125l-1.515625 0l0 -0.96875l1.515625 0l0 -1.828125l1.125 0l0 1.828125l2.5625 0l0 0.96875l-2.5625 0l0 5.015625q0 0.75 0.375 1.15625q0.375 0.390625 1.09375 0.390625q0.34375 0 0.671875 -0.109375q0.328125 -0.125 0.5625 -0.328125l0.40625 0.8125zm9.082642 -3.34375l-7.03125 0q0.09375 1.3125 1.0 2.125q0.921875 0.8125 2.3125 0.8125q0.78125 0 1.4375 -0.28125q0.65625 -0.28125 1.140625 -0.828125l0.640625 0.734375q-0.5625 0.671875 -1.40625 1.03125q-0.84375 0.34375 -1.84375 0.34375q-1.296875 0 -2.296875 -0.546875q-1.0 -0.5625 -1.5625 -1.53125q-0.5625 -0.96875 -0.5625 -2.203125q0 -1.234375 0.53125 -2.203125q0.546875 -0.984375 1.484375 -1.53125q0.9375 -0.546875 2.09375 -0.546875q1.171875 0 2.09375 0.546875q0.9375 0.546875 1.453125 1.515625q0.53125 0.96875 0.53125 2.21875l-0.015625 0.34375zm-4.0625 -3.640625q-1.21875 0 -2.046875 0.78125q-0.8125 0.765625 -0.921875 2.015625l5.96875 0q-0.109375 -1.25 -0.9375 -2.015625q-0.828125 -0.78125 -2.0625 -0.78125zm14.934143 -0.984375q1.1875 0 2.140625 0.546875q0.96875 0.53125 1.5 1.515625q0.546875 0.96875 0.546875 2.21875q0 1.25 -0.546875 2.21875q-0.53125 0.96875 -1.5 1.515625q-0.953125 0.546875 -2.140625 0.546875q-1.0625 0 -1.90625 -0.4375q-0.828125 -0.453125 -1.34375 -1.296875l0 1.65625l-1.09375 0l0 -11.875l1.140625 0l0 5.0625q0.53125 -0.8125 1.34375 -1.234375q0.828125 -0.4375 1.859375 -0.4375zm-0.078125 7.5625q0.875 0 1.59375 -0.40625q0.71875 -0.421875 1.125 -1.171875q0.40625 -0.75 0.40625 -1.703125q0 -0.96875 -0.40625 -1.71875q-0.40625 -0.75 -1.125 -1.15625q-0.71875 -0.40625 -1.59375 -0.40625q-0.90625 0 -1.625 0.40625q-0.703125 0.40625 -1.109375 1.15625q-0.40625 0.75 -0.40625 1.71875q0 0.953125 0.40625 1.703125q0.40625 0.75 1.109375 1.171875q0.71875 0.40625 1.625 0.40625zm13.910522 -2.9375l-7.03125 0q0.09375 1.3125 1.0 2.125q0.921875 0.8125 2.3125 0.8125q0.78125 0 1.4375 -0.28125q0.65625 -0.28125 1.140625 -0.828125l0.640625 0.734375q-0.5625 0.671875 -1.40625 1.03125q-0.84375 0.34375 -1.84375 0.34375q-1.296875 0 -2.296875 -0.546875q-1.0 -0.5625 -1.5625 -1.53125q-0.5625 -0.96875 -0.5625 -2.203125q0 -1.234375 0.53125 -2.203125q0.546875 -0.984375 1.484375 -1.53125q0.9375 -0.546875 2.09375 -0.546875q1.171875 0 2.09375 0.546875q0.9375 0.546875 1.453125 1.515625q0.53125 0.96875 0.53125 2.21875l-0.015625 0.34375zm-4.0625 -3.640625q-1.21875 0 -2.046875 0.78125q-0.8125 0.765625 -0.921875 2.015625l5.96875 0q-0.109375 -1.25 -0.9375 -2.015625q-0.828125 -0.78125 -2.0625 -0.78125zm10.835876 6.984375q-0.3125 0.296875 -0.796875 0.453125q-0.46875 0.140625 -0.984375 0.140625q-1.171875 0 -1.8125 -0.640625q-0.640625 -0.640625 -0.640625 -1.8125l0 -5.078125l-1.515625 0l0 -0.96875l1.515625 0l0 -1.828125l1.125 0l0 1.828125l2.5625 0l0 0.96875l-2.5625 0l0 5.015625q0 0.75 0.375 1.15625q0.375 0.390625 1.09375 0.390625q0.34375 0 0.671875 -0.109375q0.328125 -0.125 0.5625 -0.328125l0.40625 0.8125zm14.257904 -7.90625l-3.1875 8.421875l-1.0625 0l-2.65625 -6.890625l-2.65625 6.890625l-1.078125 0l-3.171875 -8.421875l1.09375 0l2.640625 7.15625l2.703125 -7.15625l0.96875 0l2.6875 7.15625l2.671875 -7.15625l1.046875 0zm8.792755 4.5625l-7.03125 0q0.09375 1.3125 1.0 2.125q0.921875 0.8125 2.3125 0.8125q0.78125 0 1.4375 -0.28125q0.65625 -0.28125 1.140625 -0.828125l0.640625 0.734375q-0.5625 0.671875 -1.40625 1.03125q-0.84375 0.34375 -1.84375 0.34375q-1.296875 0 -2.296875 -0.546875q-1.0 -0.5625 -1.5625 -1.53125q-0.5625 -0.96875 -0.5625 -2.203125q0 -1.234375 0.53125 -2.203125q0.546875 -0.984375 1.484375 -1.53125q0.9375 -0.546875 2.09375 -0.546875q1.171875 0 2.09375 0.546875q0.9375 0.546875 1.453125 1.515625q0.53125 0.96875 0.53125 2.21875l-0.015625 0.34375zm-4.0625 -3.640625q-1.21875 0 -2.046875 0.78125q-0.8125 0.765625 -0.921875 2.015625l5.96875 0q-0.109375 -1.25 -0.9375 -2.015625q-0.828125 -0.78125 -2.0625 -0.78125zm13.726532 3.640625l-7.03125 0q0.09375 1.3125 1.0 2.125q0.921875 0.8125 2.3125 0.8125q0.78125 0 1.4375 -0.28125q0.65625 -0.28125 1.140625 -0.828125l0.640625 0.734375q-0.5625 0.671875 -1.40625 1.03125q-0.84375 0.34375 -1.84375 0.34375q-1.296875 0 -2.296875 -0.546875q-1.0 -0.5625 -1.5625 -1.53125q-0.5625 -0.96875 -0.5625 -2.203125q0 -1.234375 0.53125 -2.203125q0.546875 -0.984375 1.484375 -1.53125q0.9375 -0.546875 2.09375 -0.546875q1.171875 0 2.09375 0.546875q0.9375 0.546875 1.453125 1.515625q0.53125 0.96875 0.53125 2.21875l-0.015625 0.34375zm-4.0625 -3.640625q-1.21875 0 -2.046875 0.78125q-0.8125 0.765625 -0.921875 2.015625l5.96875 0q-0.109375 -1.25 -0.9375 -2.015625q-0.828125 -0.78125 -2.0625 -0.78125zm10.695251 -0.984375q1.578125 0 2.515625 0.921875q0.9375 0.921875 0.9375 2.6875l0 4.875l-1.140625 0l0 -4.765625q0 -1.3125 -0.65625 -2.0q-0.65625 -0.6875 -1.875 -0.6875q-1.359375 0 -2.15625 0.8125q-0.78125 0.796875 -0.78125 2.21875l0 4.421875l-1.140625 0l0 -8.421875l1.09375 0l0 1.5625q0.46875 -0.765625 1.28125 -1.1875q0.828125 -0.4375 1.921875 -0.4375zm15.164673 7.96875q-0.3125 0.296875 -0.796875 0.453125q-0.46875 0.140625 -0.984375 0.140625q-1.171875 0 -1.8125 -0.640625q-0.640625 -0.640625 -0.640625 -1.8125l0 -5.078125l-1.515625 0l0 -0.96875l1.515625 0l0 -1.828125l1.125 0l0 1.828125l2.5625 0l0 0.96875l-2.5625 0l0 5.015625q0 0.75 0.375 1.15625q0.375 0.390625 1.09375 0.390625q0.34375 0 0.671875 -0.109375q0.328125 -0.125 0.5625 -0.328125l0.40625 0.8125zm9.082642 -3.34375l-7.03125 0q0.09375 1.3125 1.0 2.125q0.921875 0.8125 2.3125 0.8125q0.78125 0 1.4375 -0.28125q0.65625 -0.28125 1.140625 -0.828125l0.640625 0.734375q-0.5625 0.671875 -1.40625 1.03125q-0.84375 0.34375 -1.84375 0.34375q-1.296875 0 -2.296875 -0.546875q-1.0 -0.5625 -1.5625 -1.53125q-0.5625 -0.96875 -0.5625 -2.203125q0 -1.234375 0.53125 -2.203125q0.546875 -0.984375 1.484375 -1.53125q0.9375 -0.546875 2.09375 -0.546875q1.171875 0 2.09375 0.546875q0.9375 0.546875 1.453125 1.515625q0.53125 0.96875 0.53125 2.21875l-0.015625 0.34375zm-4.0625 -3.640625q-1.21875 0 -2.046875 0.78125q-0.8125 0.765625 -0.921875 2.015625l5.96875 0q-0.109375 -1.25 -0.9375 -2.015625q-0.828125 -0.78125 -2.0625 -0.78125zm9.111511 -0.984375q1.640625 0 2.515625 0.828125q0.890625 0.828125 0.890625 2.4375l0 5.21875l-1.09375 0l0 -1.3125q-0.375 0.65625 -1.125 1.03125q-0.75 0.359375 -1.765625 0.359375q-1.40625 0 -2.25 -0.671875q-0.828125 -0.671875 -0.828125 -1.78125q0 -1.0625 0.78125 -1.71875q0.78125 -0.65625 2.46875 -0.65625l2.671875 0l0 -0.515625q0 -1.09375 -0.609375 -1.65625q-0.609375 -0.5625 -1.765625 -0.5625q-0.8125 0 -1.546875 0.265625q-0.734375 0.265625 -1.265625 0.71875l-0.5 -0.84375q0.640625 -0.546875 1.53125 -0.84375q0.890625 -0.296875 1.890625 -0.296875zm-0.40625 7.671875q0.96875 0 1.65625 -0.4375q0.6875 -0.453125 1.015625 -1.28125l0 -1.375l-2.640625 0q-2.15625 0 -2.15625 1.5q0 0.75 0.5625 1.171875q0.5625 0.421875 1.5625 0.421875zm17.393127 -7.671875q1.578125 0 2.484375 0.921875q0.90625 0.90625 0.90625 2.6875l0 4.875l-1.125 0l0 -4.765625q0 -1.3125 -0.640625 -2.0q-0.625 -0.6875 -1.78125 -0.6875q-1.3125 0 -2.0625 0.8125q-0.75 0.796875 -0.75 2.21875l0 4.421875l-1.140625 0l0 -4.765625q0 -1.3125 -0.640625 -2.0q-0.625 -0.6875 -1.796875 -0.6875q-1.296875 0 -2.0625 0.8125q-0.75 0.796875 -0.75 2.21875l0 4.421875l-1.140625 0l0 -8.421875l1.09375 0l0 1.546875q0.453125 -0.765625 1.25 -1.1875q0.796875 -0.421875 1.84375 -0.421875q1.046875 0 1.828125 0.453125q0.78125 0.453125 1.15625 1.328125q0.46875 -0.828125 1.328125 -1.296875q0.875 -0.484375 2.0 -0.484375zm21.16803 0q1.578125 0 2.484375 0.921875q0.90625 0.90625 0.90625 2.6875l0 4.875l-1.125 0l0 -4.765625q0 -1.3125 -0.640625 -2.0q-0.625 -0.6875 -1.78125 -0.6875q-1.3125 0 -2.0625 0.8125q-0.75 0.796875 -0.75 2.21875l0 4.421875l-1.140625 0l0 -4.765625q0 -1.3125 -0.640625 -2.0q-0.625 -0.6875 -1.796875 -0.6875q-1.296875 0 -2.0625 0.8125q-0.75 0.796875 -0.75 2.21875l0 4.421875l-1.140625 0l0 -8.421875l1.09375 0l0 1.546875q0.453125 -0.765625 1.25 -1.1875q0.796875 -0.421875 1.84375 -0.421875q1.046875 0 1.828125 0.453125q0.78125 0.453125 1.15625 1.328125q0.46875 -0.828125 1.328125 -1.296875q0.875 -0.484375 2.0 -0.484375zm13.836182 4.625l-7.03125 0q0.09375 1.3125 1.0 2.125q0.921875 0.8125 2.3125 0.8125q0.78125 0 1.4375 -0.28125q0.65625 -0.28125 1.140625 -0.828125l0.640625 0.734375q-0.5625 0.671875 -1.40625 1.03125q-0.84375 0.34375 -1.84375 0.34375q-1.296875 0 -2.296875 -0.546875q-1.0 -0.5625 -1.5625 -1.53125q-0.5625 -0.96875 -0.5625 -2.203125q0 -1.234375 0.53125 -2.203125q0.546875 -0.984375 1.484375 -1.53125q0.9375 -0.546875 2.09375 -0.546875q1.171875 0 2.09375 0.546875q0.9375 0.546875 1.453125 1.515625q0.53125 0.96875 0.53125 2.21875l-0.015625 0.34375zm-4.0625 -3.640625q-1.21875 0 -2.046875 0.78125q-0.8125 0.765625 -0.921875 2.015625l5.96875 0q-0.109375 -1.25 -0.9375 -2.015625q-0.828125 -0.78125 -2.0625 -0.78125zm16.898376 -0.984375q1.578125 0 2.484375 0.921875q0.90625 0.90625 0.90625 2.6875l0 4.875l-1.125 0l0 -4.765625q0 -1.3125 -0.640625 -2.0q-0.625 -0.6875 -1.78125 -0.6875q-1.3125 0 -2.0625 0.8125q-0.75 0.796875 -0.75 2.21875l0 4.421875l-1.140625 0l0 -4.765625q0 -1.3125 -0.640625 -2.0q-0.625 -0.6875 -1.796875 -0.6875q-1.296875 0 -2.0625 0.8125q-0.75 0.796875 -0.75 2.21875l0 4.421875l-1.140625 0l0 -8.421875l1.09375 0l0 1.546875q0.453125 -0.765625 1.25 -1.1875q0.796875 -0.421875 1.84375 -0.421875q1.046875 0 1.828125 0.453125q0.78125 0.453125 1.15625 1.328125q0.46875 -0.828125 1.328125 -1.296875q0.875 -0.484375 2.0 -0.484375zm10.819763 0q1.1875 0 2.140625 0.546875q0.96875 0.53125 1.5 1.515625q0.546875 0.96875 0.546875 2.21875q0 1.25 -0.546875 2.21875q-0.53125 0.96875 -1.5 1.515625q-0.953125 0.546875 -2.140625 0.546875q-1.0625 0 -1.90625 -0.4375q-0.828125 -0.453125 -1.34375 -1.296875l0 1.65625l-1.09375 0l0 -11.875l1.140625 0l0 5.0625q0.53125 -0.8125 1.34375 -1.234375q0.828125 -0.4375 1.859375 -0.4375zm-0.078125 7.5625q0.875 0 1.59375 -0.40625q0.71875 -0.421875 1.125 -1.171875q0.40625 -0.75 0.40625 -1.703125q0 -0.96875 -0.40625 -1.71875q-0.40625 -0.75 -1.125 -1.15625q-0.71875 -0.40625 -1.59375 -0.40625q-0.90625 0 -1.625 0.40625q-0.703125 0.40625 -1.109375 1.15625q-0.40625 0.75 -0.40625 1.71875q0 0.953125 0.40625 1.703125q0.40625 0.75 1.109375 1.171875q0.71875 0.40625 1.625 0.40625zm13.910522 -2.9375l-7.03125 0q0.09375 1.3125 1.0 2.125q0.921875 0.8125 2.3125 0.8125q0.78125 0 1.4375 -0.28125q0.65625 -0.28125 1.140625 -0.828125l0.640625 0.734375q-0.5625 0.671875 -1.40625 1.03125q-0.84375 0.34375 -1.84375 0.34375q-1.296875 0 -2.296875 -0.546875q-1.0 -0.5625 -1.5625 -1.53125q-0.5625 -0.96875 -0.5625 -2.203125q0 -1.234375 0.53125 -2.203125q0.546875 -0.984375 1.484375 -1.53125q0.9375 -0.546875 2.09375 -0.546875q1.171875 0 2.09375 0.546875q0.9375 0.546875 1.453125 1.515625q0.53125 0.96875 0.53125 2.21875l-0.015625 0.34375zm-4.0625 -3.640625q-1.21875 0 -2.046875 0.78125q-0.8125 0.765625 -0.921875 2.015625l5.96875 0q-0.109375 -1.25 -0.9375 -2.015625q-0.828125 -0.78125 -2.0625 -0.78125zm7.4921265 0.734375q0.40625 -0.84375 1.1875 -1.28125q0.796875 -0.4375 1.96875 -0.4375l0 1.109375l-0.28125 -0.015625q-1.328125 0 -2.078125 0.8125q-0.75 0.8125 -0.75 2.296875l0 4.28125l-1.140625 0l0 -8.421875l1.09375 0l0 1.65625zm7.523926 6.84375q-1.03125 0 -1.96875 -0.296875q-0.9375 -0.296875 -1.453125 -0.734375l0.5 -0.90625q0.53125 0.421875 1.328125 0.6875q0.8125 0.265625 1.671875 0.265625q1.15625 0 1.703125 -0.359375q0.546875 -0.359375 0.546875 -1.015625q0 -0.46875 -0.3125 -0.734375q-0.296875 -0.265625 -0.765625 -0.390625q-0.453125 -0.140625 -1.21875 -0.28125q-1.03125 -0.1875 -1.65625 -0.375q-0.625 -0.203125 -1.0625 -0.6875q-0.4375 -0.484375 -0.4375 -1.328125q0 -1.0625 0.875 -1.734375q0.890625 -0.671875 2.453125 -0.671875q0.8125 0 1.625 0.21875q0.828125 0.21875 1.359375 0.5625l-0.5 0.921875q-1.046875 -0.71875 -2.484375 -0.71875q-1.09375 0 -1.640625 0.390625q-0.546875 0.375 -0.546875 1.0q0 0.484375 0.3125 0.765625q0.3125 0.28125 0.765625 0.421875q0.46875 0.140625 1.28125 0.28125q1.015625 0.1875 1.625 0.390625q0.609375 0.1875 1.03125 0.65625q0.4375 0.453125 0.4375 1.28125q0 1.09375 -0.921875 1.75q-0.921875 0.640625 -2.546875 0.640625z" fill-rule="nonzero"/></g></svg>