<svg xmlns="http://www.w3.org/2000/svg" xmlns:xlink="http://www.w3.org/1999/xlink" xmlns:lucid="lucid" width="1107" height="385"><g transform="translate(-458 -324)" lucid:page-tab-id="0_0"><path d="M0 0h3456v1360H0z" fill="#fff"/><path d="M500 361.56h200v60H500z" stroke="#34495e" fill="#34495e"/><use xlink:href="#a" transform="matrix(1,0,0,1,505,366.5644444444915) translate(42.017 18.646)"/><use xlink:href="#b" transform="matrix(1,0,0,1,505,366.5644444444915) translate(99.67099999999999 18.646)"/><use xlink:href="#c" transform="matrix(1,0,0,1,505,366.5644444444915) translate(20.183000000000007 43.19799999999999)"/><use xlink:href="#d" transform="matrix(1,0,0,1,505,366.5644444444915) translate(110.381 43.19799999999999)"/><path d="M526.67 506.23h146.66v44H526.67z" stroke="#34495e" stroke-width="2" fill-opacity="0"/><use xlink:href="#e" transform="matrix(1,0,0,1,531.666666666725,511.2311111111152) translate(31.99111111111111 22.11777777777778)"/><path d="M526.67 445.13h146.66v44H526.67z" stroke="#34495e" stroke-width="2" fill-opacity="0"/><use xlink:href="#f" transform="matrix(1,0,0,1,531.6666666666085,450.1288888888971) translate(18.519999999999982 22.11777777777778)"/><path d="M806.67 501.74h146.66v52.43H806.67z" stroke="#34495e" stroke-width="2" fill-opacity="0"/><use xlink:href="#g" transform="matrix(1,0,0,1,811.666666666783,506.73777777779264) translate(39.13111111111111 16.00888888888889)"/><use xlink:href="#h" transform="matrix(1,0,0,1,811.666666666783,506.73777777779264) translate(29.766666666666666 37.22666666666667)"/><path d="M806.67 566.78h146.66v44H806.67z" stroke="#34495e" stroke-width="2" fill-opacity="0"/><use xlink:href="#i" transform="matrix(1,0,0,1,811.6666666666666,571.7822222222437) translate(27.122222222222213 22.11777777777778)"/><path d="M806.67 627.33h146.66v44H806.67z" stroke="#34495e" stroke-width="2" fill-opacity="0"/><use xlink:href="#j" transform="matrix(1,0,0,1,811.666666666783,632.3333333333721) translate(27.16888888888888 22.11777777777778)"/><use xlink:href="#k" transform="matrix(1,0,0,1,811.666666666783,632.3333333333721) translate(60.73777777777777 22.11777777777778)"/><path d="M780 360h200v60H780z" stroke="#34495e" fill="#34495e"/><use xlink:href="#l" transform="matrix(1,0,0,1,785,365) translate(20.22800000000001 18.646)"/><use xlink:href="#b" transform="matrix(1,0,0,1,785,365) translate(121.46 18.646)"/><use xlink:href="#m" transform="matrix(1,0,0,1,785,365) translate(66.245 43.19799999999999)"/><path d="M806.67 445.13h146.66v44H806.67z" stroke="#34495e" stroke-width="2" fill-opacity="0"/><use xlink:href="#n" transform="matrix(1,0,0,1,811.6666666666666,450.1288888888971) translate(8.953333333333333 22.11777777777778)"/><path d="M1060 360h200v60h-200z" stroke="#34495e" fill="#34495e"/><use xlink:href="#o" transform="matrix(1,0,0,1,1065,365) translate(7.304000000000002 30.921999999999997)"/><use xlink:href="#p" transform="matrix(1,0,0,1,1065,365) translate(73.41799999999999 30.921999999999997)"/><use xlink:href="#q" transform="matrix(1,0,0,1,1065,365) translate(124.53799999999998 30.921999999999997)"/><path d="M1320 361.56h200v60h-200z" stroke="#34495e" fill="#34495e"/><use xlink:href="#r" transform="matrix(1,0,0,1,1325,366.5644444444915) translate(62.55500000000001 30.921999999999997)"/><path d="M1346.67 440.9h146.66v52.45h-146.66z" stroke="#34495e" stroke-width="2" fill-opacity="0"/><use xlink:href="#s" transform="matrix(1,0,0,1,1351.6666666666667,445.91111111111934) translate(25.83888888888888 16.00888888888889)"/><use xlink:href="#t" transform="matrix(1,0,0,1,1351.6666666666667,445.91111111111934) translate(22.284444444444432 37.22666666666667)"/><path d="M1346.67 506.23h146.66v52.44h-146.66z" stroke="#34495e" stroke-width="2" fill-opacity="0"/><use xlink:href="#u" transform="matrix(1,0,0,1,1351.6666666666667,511.2311111111152) translate(17.423333333333332 26.61777777777778)"/><path d="M701.5 391.56H761" stroke="#34495e" stroke-width="2" fill="none"/><path d="M701.53 392.56h-1.03v-2h1.03z" fill="#34495e"/><path d="M776.26 391.56L762 396.2v-9.27z" stroke="#34495e" stroke-width="2" fill="#34495e"/><path d="M981.5 390h59.5" stroke="#34495e" stroke-width="2" fill="none"/><path d="M981.53 391h-1.03v-2h1.03z" fill="#34495e"/><path d="M1056.26 390l-14.26 4.64v-9.28z" stroke="#34495e" stroke-width="2" fill="#34495e"/><path d="M1261.5 390h39.5" stroke="#34495e" stroke-width="2" fill="none"/><path d="M1261.53 391h-1.03v-2h1.03z" fill="#34495e"/><path d="M1316.26 390l-14.26 4.64v-9.28z" stroke="#34495e" stroke-width="2" fill="#34495e"/><path d="M600 491.13v13.1" stroke="#34495e" stroke-width="2" fill="none"/><path d="M601 491.15h-2v-1.02h2zM601 505.23h-2v-1.02h2z" fill="#34495e"/><path d="M600 551.23" stroke="#34495e" stroke-width="2" fill="none"/><path fill="#34495e"/><path fill="#34495e"/><path d="M600 423.06v20.07" stroke="#34495e" stroke-width="2" fill="none"/><path d="M601 423.1h-2v-1.04h2zM601 444.13h-2v-1.03h2z" fill="#34495e"/><path d="M880 491.13v8.6" stroke="#34495e" stroke-width="2" fill="none"/><path d="M881 491.15h-2v-1.02h2zM881 500.74h-2v-1.03h2z" fill="#34495e"/><path d="M880 556.17v8.6" stroke="#34495e" stroke-width="2" fill="none"/><path d="M881 556.2h-2v-1.03h2zM881 565.78h-2v-1.02h2z" fill="#34495e"/><path d="M880 612.78v12.55" stroke="#34495e" stroke-width="2" fill="none"/><path d="M881 612.8h-2v-1.02h2zM881 626.33h-2v-1.02h2z" fill="#34495e"/><path d="M880 421.5v21.63" stroke="#34495e" stroke-width="2" fill="none"/><path d="M881 421.53h-2v-1.03h2zM881 444.13h-2v-1.03h2z" fill="#34495e"/><path d="M1420 423.06v15.85" stroke="#34495e" stroke-width="2" fill="none"/><path d="M1421 423.1h-2v-1.04h2zM1421 439.9h-2v-1h2z" fill="#34495e"/><path d="M1420 495.35v8.88" stroke="#34495e" stroke-width="2" fill="none"/><path d="M1421 495.37h-2v-1.02h2zM1421 505.23h-2v-1.02h2z" fill="#34495e"/><path d="M1086.67 445.13h146.66v44h-146.66z" stroke="#34495e" stroke-width="2" fill-opacity="0"/><g><use xlink:href="#v" transform="matrix(1,0,0,1,1091.6666666667443,450.12888888886664) translate(42.81777777777778 22.11777777777778)"/></g><path d="M1086.67 501.74h146.66v44h-146.66z" stroke="#34495e" stroke-width="2" fill-opacity="0"/><g><use xlink:href="#w" transform="matrix(1,0,0,1,1091.6666666668607,506.73777777783107) translate(23.941111111111113 22.11777777777778)"/><use xlink:href="#x" transform="matrix(1,0,0,1,1091.6666666668607,506.73777777783107) translate(68.1188888888889 22.11777777777778)"/></g><path d="M1086.67 558.35h146.66v44h-146.66z" stroke="#34495e" stroke-width="2" fill-opacity="0"/><g><use xlink:href="#y" transform="matrix(1,0,0,1,1091.6666666668607,563.3466666667955) translate(35.69333333333333 22.61777777777778)"/></g><path d="M1086.67 618.9h146.66v52.43h-146.66z" stroke="#34495e" stroke-width="2" fill-opacity="0"/><g><use xlink:href="#z" transform="matrix(1,0,0,1,1091.6666666668607,623.8977777778166) translate(19.647777777777776 16.00888888888889)"/><use xlink:href="#A" transform="matrix(1,0,0,1,1091.6666666668607,623.8977777778166) translate(32.62888888888888 37.22666666666667)"/></g><path d="M1346.67 569.4h146.66v73.64h-146.66z" stroke="#34495e" stroke-width="2" fill-opacity="0"/><g><use xlink:href="#B" transform="matrix(1,0,0,1,1351.6666666666279,574.3911111111111) translate(30.995555555555555 15.900000000000002)"/><use xlink:href="#C" transform="matrix(1,0,0,1,1351.6666666666279,574.3911111111111) translate(11.691111111111098 37.117777777777775)"/><use xlink:href="#D" transform="matrix(1,0,0,1,1351.6666666666279,574.3911111111111) translate(91.30444444444446 37.117777777777775)"/><use xlink:href="#E" transform="matrix(1,0,0,1,1351.6666666666279,574.3911111111111) translate(28.926666666666655 58.33555555555555)"/></g><defs><path fill="#fff" d="M90-14C79 21 20 3 35-33l292-656c8-31 56-26 67 0L685-33c18 33-39 54-54 19l-76-174H167zm100-228h341L361-629" id="F"/><path fill="#fff" d="M123 0c-16 0-33-12-32-28v-650c0-18 13-32 31-32 20 0 31 12 31 32v624h342c17 0 28 10 28 27S512 0 495 0H123" id="G"/><path fill="#fff" d="M122 5C104 5 91-9 91-27v-651c0-18 13-32 31-32s31 14 31 32v651c0 18-13 32-31 32" id="H"/><path fill="#fff" d="M609-361c16 0 27 11 27 27v265c0 17-8 29-23 36C560-8 473 8 395 8 175 5 64-131 64-353c0-218 109-355 324-360 97 0 180 38 231 87 28 27 3 76-30 46-60-54-103-75-201-78-174 0-261 123-259 305-1 188 85 307 266 307 68 0 137-12 185-33v-230H418c-18 0-29-9-29-26s11-26 29-26h191" id="I"/><path fill="#fff" d="M615-710c19 0 29 13 29 32v651c2 33-39 42-57 17L149-601v574c0 18-12 32-29 32-20 0-29-12-29-32v-651c-3-32 40-42 58-17l437 590v-573c0-18 12-32 29-32" id="J"/><g id="a"><use transform="matrix(0.018,0,0,0.018,0,0)" xlink:href="#F"/><use transform="matrix(0.018,0,0,0.018,12.959999999999999,0)" xlink:href="#G"/><use transform="matrix(0.018,0,0,0.018,22.554,0)" xlink:href="#H"/><use transform="matrix(0.018,0,0,0.018,26.945999999999998,0)" xlink:href="#I"/><use transform="matrix(0.018,0,0,0.018,39.888,0)" xlink:href="#J"/></g><path fill="#fff" d="M41-673c-15-35 42-54 55-19L307-86l210-598c6-32 53-29 64 1L790-86l211-606c9-36 67-16 55 19L824-17c-7 29-56 30-66 0L549-609 338-17c-6 29-55 29-65 0" id="K"/><path fill="#fff" d="M295 5c-18 0-30-14-30-32v-624H34c-17 0-28-10-28-27s11-27 28-27h522c16 0 28 11 28 27s-12 27-28 27H326v624c0 18-13 32-31 32" id="L"/><path fill="#fff" d="M632-710c20 0 31 12 31 32v651c0 20-11 32-31 32-18 0-30-14-30-32v-304H152v304c0 18-12 32-30 32S91-9 91-27v-651c0-18 13-32 31-32s30 14 30 32v293h450v-293c0-18 12-32 30-32" id="M"/><g id="b"><use transform="matrix(0.018,0,0,0.018,0,0)" xlink:href="#K"/><use transform="matrix(0.018,0,0,0.018,19.727999999999998,0)" xlink:href="#H"/><use transform="matrix(0.018,0,0,0.018,24.119999999999997,0)" xlink:href="#L"/><use transform="matrix(0.018,0,0,0.018,34.739999999999995,0)" xlink:href="#M"/></g><path fill="#fff" d="M477-361c77 18 128 78 128 170C605-59 511 0 373 0H124c-18 1-33-14-33-31v-643c0-17 15-32 33-31h239c133-1 225 59 226 185-1 83-48 135-112 159zm-123-24c104 1 171-40 173-136 0-87-58-131-173-131H152v267h202zm15 332c109 0 172-35 174-136 0-95-58-142-174-142H152v278h217" id="N"/><path fill="#fff" d="M360 8C179 8 85-90 86-272v-406c0-19 12-32 31-32s31 13 31 32v413c0 145 71 218 212 218s212-76 212-218v-413c0-18 13-32 31-32 19 0 30 13 30 32v406C634-90 540 8 360 8" id="O"/><path fill="#fff" d="M560-187C565 48 181 51 58-79c-32-22-2-77 31-46 59 56 136 78 219 78 108 1 190-41 190-140 0-98-94-103-184-128-100-24-162-36-218-95-23-26-35-60-35-103-9-230 361-250 482-113 32 24 2 75-31 46-61-54-101-75-200-78-107-1-189 45-189 144 0 108 104 116 197 142 96 27 153 33 208 90 22 24 32 55 32 95" id="P"/><path fill="#fff" d="M124 0c-18 1-33-14-33-31v-643c0-17 15-32 33-31h380c17 0 28 10 28 27 0 16-11 26-28 26H152v267h332c17 0 28 10 28 27s-11 27-28 27H152v278h352c17 0 28 9 28 26S521 0 504 0H124" id="Q"/><g id="c"><use transform="matrix(0.018,0,0,0.018,0,0)" xlink:href="#N"/><use transform="matrix(0.018,0,0,0.018,12.059999999999999,0)" xlink:href="#O"/><use transform="matrix(0.018,0,0,0.018,25.019999999999992,0)" xlink:href="#P"/><use transform="matrix(0.018,0,0,0.018,35.946,0)" xlink:href="#H"/><use transform="matrix(0.018,0,0,0.018,40.337999999999994,0)" xlink:href="#J"/><use transform="matrix(0.018,0,0,0.018,53.56799999999999,0)" xlink:href="#Q"/><use transform="matrix(0.018,0,0,0.018,63.80999999999999,0)" xlink:href="#P"/><use transform="matrix(0.018,0,0,0.018,74.73599999999999,0)" xlink:href="#P"/></g><path fill="#fff" d="M378 8C168 8 64-138 64-352c0-215 103-361 314-361s315 144 315 360S589 8 378 8zm0-55c169-1 251-126 251-306s-80-304-251-305c-169 1-250 126-250 305S209-48 378-47" id="R"/><g id="d"><use transform="matrix(0.018,0,0,0.018,0,0)" xlink:href="#I"/><use transform="matrix(0.018,0,0,0.018,12.941999999999998,0)" xlink:href="#R"/><use transform="matrix(0.018,0,0,0.018,26.298,0)" xlink:href="#F"/><use transform="matrix(0.018,0,0,0.018,39.257999999999996,0)" xlink:href="#G"/><use transform="matrix(0.018,0,0,0.018,48.51,0)" xlink:href="#P"/></g><path fill="#34495e" d="M122 5C103 5 91-8 91-27v-647c0-17 15-32 33-31h234c139-1 231 69 231 203 1 135-92 205-231 205H153v270c0 19-12 32-31 32zm232-355c115 0 173-51 173-152 0-100-58-150-173-150H153v302h201" id="S"/><path fill="#34495e" d="M604-507c0 120-79 184-195 193 40 15 61 40 85 78L618-37c25 32-28 60-49 27L434-226c-38-56-60-80-144-80H153v279c0 19-12 32-31 32S91-8 91-27v-647c0-17 15-32 33-31h249c140-1 231 63 231 198zm-61-1c-1-104-64-144-174-144H152v293h217c116 0 174-50 174-149" id="T"/><path fill="#34495e" d="M378 8C168 8 64-138 64-352c0-215 103-361 314-361s315 144 315 360S589 8 378 8zm0-55c169-1 251-126 251-306s-80-304-251-305c-169 1-250 126-250 305S209-48 378-47" id="U"/><path fill="#34495e" d="M477-361c77 18 128 78 128 170C605-59 511 0 373 0H124c-18 1-33-14-33-31v-643c0-17 15-32 33-31h239c133-1 225 59 226 185-1 83-48 135-112 159zm-123-24c104 1 171-40 173-136 0-87-58-131-173-131H152v267h202zm15 332c109 0 172-35 174-136 0-95-58-142-174-142H152v278h217" id="V"/><path fill="#34495e" d="M123 0c-16 0-33-12-32-28v-650c0-18 13-32 31-32 20 0 31 12 31 32v624h342c17 0 28 10 28 27S512 0 495 0H123" id="W"/><path fill="#34495e" d="M124 0c-18 1-33-14-33-31v-643c0-17 15-32 33-31h380c17 0 28 10 28 27 0 16-11 26-28 26H152v267h332c17 0 28 10 28 27s-11 27-28 27H152v278h352c17 0 28 9 28 26S521 0 504 0H124" id="X"/><path fill="#34495e" d="M687-687c12-35 63-28 62 9v651c0 18-12 32-30 32-19 0-28-13-28-32v-555L454-124c-14 31-50 30-66 0L149-578v551c0 19-9 32-28 32-20 0-30-12-30-32v-651c-1-37 45-42 62-9l269 516" id="Y"/><g id="e"><use transform="matrix(0.015555555555555557,0,0,0.015555555555555557,0,0)" xlink:href="#S"/><use transform="matrix(0.015555555555555557,0,0,0.015555555555555557,9.924444444444445,0)" xlink:href="#T"/><use transform="matrix(0.015555555555555557,0,0,0.015555555555555557,20.455555555555556,0)" xlink:href="#U"/><use transform="matrix(0.015555555555555557,0,0,0.015555555555555557,32.23111111111111,0)" xlink:href="#V"/><use transform="matrix(0.015555555555555557,0,0,0.015555555555555557,42.653333333333336,0)" xlink:href="#W"/><use transform="matrix(0.015555555555555557,0,0,0.015555555555555557,50.94444444444445,0)" xlink:href="#X"/><use transform="matrix(0.015555555555555557,0,0,0.015555555555555557,59.95111111111112,0)" xlink:href="#Y"/></g><path fill="#34495e" d="M384 8C171 3 64-136 64-353s107-355 320-360c97 0 180 36 230 87 34 23 3 75-30 46-61-54-102-75-201-78-171 0-254 125-254 305 0 181 83 305 254 306 99-2 139-25 201-78 36-31 61 25 30 46C564-27 481 7 384 8" id="Z"/><path fill="#34495e" d="M632-710c20 0 31 12 31 32v651c0 20-11 32-31 32-18 0-30-14-30-32v-304H152v304c0 18-12 32-30 32S91-9 91-27v-651c0-18 13-32 31-32s30 14 30 32v293h450v-293c0-18 12-32 30-32" id="aa"/><path fill="#34495e" d="M90-14C79 21 20 3 35-33l292-656c8-31 56-26 67 0L685-33c18 33-39 54-54 19l-76-174H167zm100-228h341L361-629" id="ab"/><path fill="#34495e" d="M615-710c19 0 29 13 29 32v651c2 33-39 42-57 17L149-601v574c0 18-12 32-29 32-20 0-29-12-29-32v-651c-3-32 40-42 58-17l437 590v-573c0-18 12-32 29-32" id="ac"/><path fill="#34495e" d="M609-361c16 0 27 11 27 27v265c0 17-8 29-23 36C560-8 473 8 395 8 175 5 64-131 64-353c0-218 109-355 324-360 97 0 180 38 231 87 28 27 3 76-30 46-60-54-103-75-201-78-174 0-261 123-259 305-1 188 85 307 266 307 68 0 137-12 185-33v-230H418c-18 0-29-9-29-26s11-26 29-26h191" id="ad"/><path fill="#34495e" d="M560-187C565 48 181 51 58-79c-32-22-2-77 31-46 59 56 136 78 219 78 108 1 190-41 190-140 0-98-94-103-184-128-100-24-162-36-218-95-23-26-35-60-35-103-9-230 361-250 482-113 32 24 2 75-31 46-61-54-101-75-200-78-107-1-189 45-189 144 0 108 104 116 197 142 96 27 153 33 208 90 22 24 32 55 32 95" id="ae"/><g id="f"><use transform="matrix(0.015555555555555557,0,0,0.015555555555555557,0,0)" xlink:href="#Z"/><use transform="matrix(0.015555555555555557,0,0,0.015555555555555557,10.531111111111112,0)" xlink:href="#aa"/><use transform="matrix(0.015555555555555557,0,0,0.015555555555555557,22.26,0)" xlink:href="#ab"/><use transform="matrix(0.015555555555555557,0,0,0.015555555555555557,33.46,0)" xlink:href="#W"/><use transform="matrix(0.015555555555555557,0,0,0.015555555555555557,41.751111111111115,0)" xlink:href="#W"/><use transform="matrix(0.015555555555555557,0,0,0.015555555555555557,50.04222222222223,0)" xlink:href="#X"/><use transform="matrix(0.015555555555555557,0,0,0.015555555555555557,59.0488888888889,0)" xlink:href="#ac"/><use transform="matrix(0.015555555555555557,0,0,0.015555555555555557,70.48222222222223,0)" xlink:href="#ad"/><use transform="matrix(0.015555555555555557,0,0,0.015555555555555557,81.66666666666669,0)" xlink:href="#X"/><use transform="matrix(0.015555555555555557,0,0,0.015555555555555557,90.51777777777781,0)" xlink:href="#ae"/></g><path fill="#34495e" d="M295 5c-18 0-30-14-30-32v-624H34c-17 0-28-10-28-27s11-27 28-27h522c16 0 28 11 28 27s-12 27-28 27H326v624c0 18-13 32-31 32" id="af"/><g id="g"><use transform="matrix(0.015555555555555557,0,0,0.015555555555555557,0,0)" xlink:href="#af"/><use transform="matrix(0.015555555555555557,0,0,0.015555555555555557,7.917777777777779,0)" xlink:href="#ab"/><use transform="matrix(0.015555555555555557,0,0,0.015555555555555557,19.117777777777782,0)" xlink:href="#T"/><use transform="matrix(0.015555555555555557,0,0,0.015555555555555557,29.64888888888889,0)" xlink:href="#ad"/><use transform="matrix(0.015555555555555557,0,0,0.015555555555555557,40.833333333333336,0)" xlink:href="#X"/><use transform="matrix(0.015555555555555557,0,0,0.015555555555555557,49.56,0)" xlink:href="#af"/></g><path fill="#34495e" d="M360 8C179 8 85-90 86-272v-406c0-19 12-32 31-32s31 13 31 32v413c0 145 71 218 212 218s212-76 212-218v-413c0-18 13-32 31-32 19 0 30 13 30 32v406C634-90 540 8 360 8" id="ag"/><path fill="#34495e" d="M124 0c-18 1-33-14-33-31v-643c0-17 15-32 33-31h194c222-1 352 128 350 352C670-129 540 1 318 0H124zm191-54c192 0 288-100 288-299s-96-298-288-298H153v597h162" id="ah"/><path fill="#34495e" d="M122 5C104 5 91-9 91-27v-651c0-18 13-32 31-32s31 14 31 32v651c0 18-13 32-31 32" id="ai"/><g id="h"><use transform="matrix(0.015555555555555557,0,0,0.015555555555555557,0,0)" xlink:href="#ab"/><use transform="matrix(0.015555555555555557,0,0,0.015555555555555557,11.122222222222224,0)" xlink:href="#ag"/><use transform="matrix(0.015555555555555557,0,0,0.015555555555555557,22.322222222222223,0)" xlink:href="#ah"/><use transform="matrix(0.015555555555555557,0,0,0.015555555555555557,33.693333333333335,0)" xlink:href="#ai"/><use transform="matrix(0.015555555555555557,0,0,0.015555555555555557,37.488888888888894,0)" xlink:href="#X"/><use transform="matrix(0.015555555555555557,0,0,0.015555555555555557,46.49555555555556,0)" xlink:href="#ac"/><use transform="matrix(0.015555555555555557,0,0,0.015555555555555557,57.92888888888889,0)" xlink:href="#Z"/><use transform="matrix(0.015555555555555557,0,0,0.015555555555555557,68.46000000000001,0)" xlink:href="#X"/></g><g id="i"><use transform="matrix(0.015555555555555557,0,0,0.015555555555555557,0,0)" xlink:href="#S"/><use transform="matrix(0.015555555555555557,0,0,0.015555555555555557,9.924444444444445,0)" xlink:href="#X"/><use transform="matrix(0.015555555555555557,0,0,0.015555555555555557,18.931111111111115,0)" xlink:href="#T"/><use transform="matrix(0.015555555555555557,0,0,0.015555555555555557,29.540000000000006,0)" xlink:href="#ae"/><use transform="matrix(0.015555555555555557,0,0,0.015555555555555557,38.982222222222234,0)" xlink:href="#U"/><use transform="matrix(0.015555555555555557,0,0,0.015555555555555557,50.75777777777779,0)" xlink:href="#ac"/><use transform="matrix(0.015555555555555557,0,0,0.015555555555555557,62.19111111111113,0)" xlink:href="#ab"/><use transform="matrix(0.015555555555555557,0,0,0.015555555555555557,73.31333333333335,0)" xlink:href="#ae"/></g><g id="j"><use transform="matrix(0.015555555555555557,0,0,0.015555555555555557,0,0)" xlink:href="#ag"/><use transform="matrix(0.015555555555555557,0,0,0.015555555555555557,11.200000000000001,0)" xlink:href="#ae"/><use transform="matrix(0.015555555555555557,0,0,0.015555555555555557,20.642222222222223,0)" xlink:href="#X"/></g><g id="k"><use transform="matrix(0.015555555555555557,0,0,0.015555555555555557,0,0)" xlink:href="#Z"/><use transform="matrix(0.015555555555555557,0,0,0.015555555555555557,10.235555555555557,0)" xlink:href="#ab"/><use transform="matrix(0.015555555555555557,0,0,0.015555555555555557,21.35777777777778,0)" xlink:href="#ae"/><use transform="matrix(0.015555555555555557,0,0,0.015555555555555557,30.800000000000004,0)" xlink:href="#X"/><use transform="matrix(0.015555555555555557,0,0,0.015555555555555557,39.65111111111112,0)" xlink:href="#ae"/></g><path fill="#fff" d="M687-687c12-35 63-28 62 9v651c0 18-12 32-30 32-19 0-28-13-28-32v-555L454-124c-14 31-50 30-66 0L149-578v551c0 19-9 32-28 32-20 0-30-12-30-32v-651c-1-37 45-42 62-9l269 516" id="aj"/><path fill="#fff" d="M122 5C103 5 91-8 91-27v-647c0-17 15-32 33-31h234c139-1 231 69 231 203 1 135-92 205-231 205H153v270c0 19-12 32-31 32zm232-355c115 0 173-51 173-152 0-100-58-150-173-150H153v302h201" id="ak"/><path fill="#fff" d="M524-53c18 0 29 8 29 26S542 0 524 0H68C39 2 32-28 47-50l418-602H66c-16 0-27-10-27-26 0-17 11-27 27-27h447c28-2 37 29 22 50L116-53h408" id="al"/><g id="l"><use transform="matrix(0.018,0,0,0.018,0,0)" xlink:href="#Q"/><use transform="matrix(0.018,0,0,0.018,10.421999999999999,0)" xlink:href="#aj"/><use transform="matrix(0.018,0,0,0.018,25.541999999999998,0)" xlink:href="#ak"/><use transform="matrix(0.018,0,0,0.018,35.675999999999995,0)" xlink:href="#F"/><use transform="matrix(0.018,0,0,0.018,47.178,0)" xlink:href="#L"/><use transform="matrix(0.018,0,0,0.018,57.797999999999995,0)" xlink:href="#M"/><use transform="matrix(0.018,0,0,0.018,71.36999999999999,0)" xlink:href="#H"/><use transform="matrix(0.018,0,0,0.018,75.762,0)" xlink:href="#al"/><use transform="matrix(0.018,0,0,0.018,86.27399999999999,0)" xlink:href="#Q"/></g><path fill="#fff" d="M604-507c0 120-79 184-195 193 40 15 61 40 85 78L618-37c25 32-28 60-49 27L434-226c-38-56-60-80-144-80H153v279c0 19-12 32-31 32S91-8 91-27v-647c0-17 15-32 33-31h249c140-1 231 63 231 198zm-61-1c-1-104-64-144-174-144H152v293h217c116 0 174-50 174-149" id="am"/><g id="m"><use transform="matrix(0.018,0,0,0.018,0,0)" xlink:href="#O"/><use transform="matrix(0.018,0,0,0.018,12.959999999999999,0)" xlink:href="#P"/><use transform="matrix(0.018,0,0,0.018,23.885999999999996,0)" xlink:href="#Q"/><use transform="matrix(0.018,0,0,0.018,34.30799999999999,0)" xlink:href="#am"/><use transform="matrix(0.018,0,0,0.018,46.58399999999999,0)" xlink:href="#P"/></g><path fill="#34495e" d="M525-701c25-27 67 16 37 42L214-360 581-46c31 22-7 67-36 42L153-337v310c0 18-13 32-31 32S91-9 91-27v-651c0-18 13-32 31-32s31 14 31 32v301" id="an"/><g id="n"><use transform="matrix(0.015555555555555557,0,0,0.015555555555555557,0,0)" xlink:href="#ae"/><use transform="matrix(0.015555555555555557,0,0,0.015555555555555557,9.208888888888891,0)" xlink:href="#af"/><use transform="matrix(0.015555555555555557,0,0,0.015555555555555557,17.126666666666672,0)" xlink:href="#ab"/><use transform="matrix(0.015555555555555557,0,0,0.015555555555555557,28.326666666666675,0)" xlink:href="#an"/><use transform="matrix(0.015555555555555557,0,0,0.015555555555555557,37.86222222222223,0)" xlink:href="#X"/><use transform="matrix(0.015555555555555557,0,0,0.015555555555555557,46.8688888888889,0)" xlink:href="#aa"/><use transform="matrix(0.015555555555555557,0,0,0.015555555555555557,58.597777777777786,0)" xlink:href="#U"/><use transform="matrix(0.015555555555555557,0,0,0.015555555555555557,70.37333333333333,0)" xlink:href="#W"/><use transform="matrix(0.015555555555555557,0,0,0.015555555555555557,78.66444444444444,0)" xlink:href="#ah"/><use transform="matrix(0.015555555555555557,0,0,0.015555555555555557,90.03555555555556,0)" xlink:href="#X"/><use transform="matrix(0.015555555555555557,0,0,0.015555555555555557,99.04222222222222,0)" xlink:href="#T"/><use transform="matrix(0.015555555555555557,0,0,0.015555555555555557,109.6511111111111,0)" xlink:href="#ae"/></g><path fill="#fff" d="M124 0c-18 1-33-14-33-31v-643c0-17 15-32 33-31h194c222-1 352 128 350 352C670-129 540 1 318 0H124zm191-54c192 0 288-100 288-299s-96-298-288-298H153v597h162" id="ao"/><path fill="#fff" d="M122 5C104 5 91-9 91-27v-647c0-17 15-32 33-31h370c17 0 28 10 28 27s-11 26-28 26H153v267h321c17 0 28 10 28 27s-11 27-28 27H153v304c0 20-11 32-31 32" id="ap"/><g id="o"><use transform="matrix(0.018,0,0,0.018,0,0)" xlink:href="#ao"/><use transform="matrix(0.018,0,0,0.018,13.158,0)" xlink:href="#Q"/><use transform="matrix(0.018,0,0,0.018,23.58,0)" xlink:href="#ap"/><use transform="matrix(0.018,0,0,0.018,33.534,0)" xlink:href="#H"/><use transform="matrix(0.018,0,0,0.018,37.926,0)" xlink:href="#J"/><use transform="matrix(0.018,0,0,0.018,51.156,0)" xlink:href="#Q"/></g><g id="p"><use transform="matrix(0.018,0,0,0.018,0,0)" xlink:href="#O"/><use transform="matrix(0.018,0,0,0.018,12.959999999999999,0)" xlink:href="#P"/><use transform="matrix(0.018,0,0,0.018,23.885999999999996,0)" xlink:href="#Q"/><use transform="matrix(0.018,0,0,0.018,34.30799999999999,0)" xlink:href="#am"/></g><g id="q"><use transform="matrix(0.018,0,0,0.018,0,0)" xlink:href="#J"/><use transform="matrix(0.018,0,0,0.018,13.229999999999999,0)" xlink:href="#Q"/><use transform="matrix(0.018,0,0,0.018,23.651999999999997,0)" xlink:href="#Q"/><use transform="matrix(0.018,0,0,0.018,34.074,0)" xlink:href="#ao"/><use transform="matrix(0.018,0,0,0.018,47.232,0)" xlink:href="#P"/></g><g id="r"><use transform="matrix(0.018,0,0,0.018,0,0)" xlink:href="#ao"/><use transform="matrix(0.018,0,0,0.018,13.158,0)" xlink:href="#Q"/><use transform="matrix(0.018,0,0,0.018,23.4,0)" xlink:href="#P"/><use transform="matrix(0.018,0,0,0.018,34.32599999999999,0)" xlink:href="#H"/><use transform="matrix(0.018,0,0,0.018,38.71799999999999,0)" xlink:href="#I"/><use transform="matrix(0.018,0,0,0.018,51.65999999999999,0)" xlink:href="#J"/></g><g id="s"><use transform="matrix(0.015555555555555557,0,0,0.015555555555555557,0,0)" xlink:href="#af"/><use transform="matrix(0.015555555555555557,0,0,0.015555555555555557,9.177777777777779,0)" xlink:href="#X"/><use transform="matrix(0.015555555555555557,0,0,0.015555555555555557,18.10666666666667,0)" xlink:href="#Z"/><use transform="matrix(0.015555555555555557,0,0,0.015555555555555557,28.63777777777778,0)" xlink:href="#aa"/><use transform="matrix(0.015555555555555557,0,0,0.015555555555555557,40.366666666666674,0)" xlink:href="#ac"/><use transform="matrix(0.015555555555555557,0,0,0.015555555555555557,51.80000000000001,0)" xlink:href="#ai"/><use transform="matrix(0.015555555555555557,0,0,0.015555555555555557,55.59555555555557,0)" xlink:href="#Z"/><use transform="matrix(0.015555555555555557,0,0,0.015555555555555557,65.83111111111113,0)" xlink:href="#ab"/><use transform="matrix(0.015555555555555557,0,0,0.015555555555555557,77.03111111111113,0)" xlink:href="#W"/></g><g id="t"><use transform="matrix(0.015555555555555557,0,0,0.015555555555555557,0,0)" xlink:href="#W"/><use transform="matrix(0.015555555555555557,0,0,0.015555555555555557,8.291111111111112,0)" xlink:href="#ai"/><use transform="matrix(0.015555555555555557,0,0,0.015555555555555557,12.086666666666668,0)" xlink:href="#Y"/><use transform="matrix(0.015555555555555557,0,0,0.015555555555555557,25.153333333333336,0)" xlink:href="#ai"/><use transform="matrix(0.015555555555555557,0,0,0.015555555555555557,28.94888888888889,0)" xlink:href="#af"/><use transform="matrix(0.015555555555555557,0,0,0.015555555555555557,36.86666666666667,0)" xlink:href="#ab"/><use transform="matrix(0.015555555555555557,0,0,0.015555555555555557,46.80666666666667,0)" xlink:href="#af"/><use transform="matrix(0.015555555555555557,0,0,0.015555555555555557,55.98444444444445,0)" xlink:href="#ai"/><use transform="matrix(0.015555555555555557,0,0,0.015555555555555557,59.78000000000001,0)" xlink:href="#U"/><use transform="matrix(0.015555555555555557,0,0,0.015555555555555557,71.55555555555557,0)" xlink:href="#ac"/><use transform="matrix(0.015555555555555557,0,0,0.015555555555555557,82.98888888888891,0)" xlink:href="#ae"/></g><path fill="#34495e" d="M41-673c-15-35 42-54 55-19L307-86l210-598c6-32 53-29 64 1L790-86l211-606c9-36 67-16 55 19L824-17c-7 29-56 30-66 0L549-609 338-17c-6 29-55 29-65 0" id="aq"/><path fill="#34495e" d="M122 5C104 5 91-9 91-27v-647c0-17 15-32 33-31h370c17 0 28 10 28 27s-11 26-28 26H153v267h321c17 0 28 10 28 27s-11 27-28 27H153v304c0 20-11 32-31 32" id="ar"/><g id="u"><use transform="matrix(0.015555555555555557,0,0,0.015555555555555557,0,0)" xlink:href="#aq"/><use transform="matrix(0.015555555555555557,0,0,0.015555555555555557,17.04888888888889,0)" xlink:href="#ai"/><use transform="matrix(0.015555555555555557,0,0,0.015555555555555557,20.844444444444445,0)" xlink:href="#T"/><use transform="matrix(0.015555555555555557,0,0,0.015555555555555557,31.453333333333333,0)" xlink:href="#X"/><use transform="matrix(0.015555555555555557,0,0,0.015555555555555557,40.46,0)" xlink:href="#ar"/><use transform="matrix(0.015555555555555557,0,0,0.015555555555555557,49.062222222222225,0)" xlink:href="#T"/><use transform="matrix(0.015555555555555557,0,0,0.015555555555555557,59.59333333333334,0)" xlink:href="#ab"/><use transform="matrix(0.015555555555555557,0,0,0.015555555555555557,70.79333333333334,0)" xlink:href="#Y"/><use transform="matrix(0.015555555555555557,0,0,0.015555555555555557,83.86,0)" xlink:href="#X"/><use transform="matrix(0.015555555555555557,0,0,0.015555555555555557,92.71111111111111,0)" xlink:href="#ae"/></g><g id="v"><use transform="matrix(0.015555555555555557,0,0,0.015555555555555557,0,0)" xlink:href="#ad"/><use transform="matrix(0.015555555555555557,0,0,0.015555555555555557,11.184444444444445,0)" xlink:href="#U"/><use transform="matrix(0.015555555555555557,0,0,0.015555555555555557,22.726666666666667,0)" xlink:href="#ab"/><use transform="matrix(0.015555555555555557,0,0,0.015555555555555557,33.92666666666667,0)" xlink:href="#W"/><use transform="matrix(0.015555555555555557,0,0,0.015555555555555557,41.922222222222224,0)" xlink:href="#ae"/></g><g id="w"><use transform="matrix(0.015555555555555557,0,0,0.015555555555555557,0,0)" xlink:href="#ag"/><use transform="matrix(0.015555555555555557,0,0,0.015555555555555557,11.200000000000001,0)" xlink:href="#ae"/><use transform="matrix(0.015555555555555557,0,0,0.015555555555555557,20.642222222222223,0)" xlink:href="#X"/><use transform="matrix(0.015555555555555557,0,0,0.015555555555555557,29.64888888888889,0)" xlink:href="#T"/></g><g id="x"><use transform="matrix(0.015555555555555557,0,0,0.015555555555555557,0,0)" xlink:href="#ar"/><use transform="matrix(0.015555555555555557,0,0,0.015555555555555557,8.602222222222222,0)" xlink:href="#W"/><use transform="matrix(0.015555555555555557,0,0,0.015555555555555557,16.34888888888889,0)" xlink:href="#U"/><use transform="matrix(0.015555555555555557,0,0,0.015555555555555557,27.891111111111112,0)" xlink:href="#aq"/></g><g id="y"><use transform="matrix(0.015555555555555557,0,0,0.015555555555555557,0,0)" xlink:href="#ae"/><use transform="matrix(0.015555555555555557,0,0,0.015555555555555557,9.442222222222224,0)" xlink:href="#ai"/><use transform="matrix(0.015555555555555557,0,0,0.015555555555555557,13.23777777777778,0)" xlink:href="#af"/><use transform="matrix(0.015555555555555557,0,0,0.015555555555555557,22.415555555555557,0)" xlink:href="#X"/><use transform="matrix(0.015555555555555557,0,0,0.015555555555555557,31.422222222222224,0)" xlink:href="#Y"/><use transform="matrix(0.015555555555555557,0,0,0.015555555555555557,44.488888888888894,0)" xlink:href="#ab"/><use transform="matrix(0.015555555555555557,0,0,0.015555555555555557,55.6888888888889,0)" xlink:href="#S"/></g><g id="z"><use transform="matrix(0.015555555555555557,0,0,0.015555555555555557,0,0)" xlink:href="#Z"/><use transform="matrix(0.015555555555555557,0,0,0.015555555555555557,10.375555555555557,0)" xlink:href="#U"/><use transform="matrix(0.015555555555555557,0,0,0.015555555555555557,22.151111111111113,0)" xlink:href="#Y"/><use transform="matrix(0.015555555555555557,0,0,0.015555555555555557,35.21777777777778,0)" xlink:href="#S"/><use transform="matrix(0.015555555555555557,0,0,0.015555555555555557,45.14222222222223,0)" xlink:href="#X"/><use transform="matrix(0.015555555555555557,0,0,0.015555555555555557,53.8688888888889,0)" xlink:href="#af"/><use transform="matrix(0.015555555555555557,0,0,0.015555555555555557,63.046666666666674,0)" xlink:href="#ai"/><use transform="matrix(0.015555555555555557,0,0,0.015555555555555557,66.84222222222223,0)" xlink:href="#af"/><use transform="matrix(0.015555555555555557,0,0,0.015555555555555557,75.32000000000001,0)" xlink:href="#U"/><use transform="matrix(0.015555555555555557,0,0,0.015555555555555557,87.09555555555556,0)" xlink:href="#T"/></g><path fill="#34495e" d="M15-662c-25-27 18-66 42-35l238 308 238-308c21-33 65 5 42 35L325-340v313c0 18-12 32-30 32s-31-14-31-32v-315" id="as"/><g id="A"><use transform="matrix(0.015555555555555557,0,0,0.015555555555555557,0,0)" xlink:href="#ab"/><use transform="matrix(0.015555555555555557,0,0,0.015555555555555557,11.200000000000001,0)" xlink:href="#ac"/><use transform="matrix(0.015555555555555557,0,0,0.015555555555555557,22.633333333333333,0)" xlink:href="#ab"/><use transform="matrix(0.015555555555555557,0,0,0.015555555555555557,33.833333333333336,0)" xlink:href="#W"/><use transform="matrix(0.015555555555555557,0,0,0.015555555555555557,40.25777777777778,0)" xlink:href="#as"/><use transform="matrix(0.015555555555555557,0,0,0.015555555555555557,49.06222222222223,0)" xlink:href="#ae"/><use transform="matrix(0.015555555555555557,0,0,0.015555555555555557,58.50444444444446,0)" xlink:href="#ai"/><use transform="matrix(0.015555555555555557,0,0,0.015555555555555557,62.30000000000002,0)" xlink:href="#ae"/></g><path fill="#34495e" d="M16-673c-18-32 39-54 54-21L341-81l270-613c10-34 69-13 54 21L374-17c-8 28-56 28-68 0" id="at"/><g id="B"><use transform="matrix(0.015555555555555557,0,0,0.015555555555555557,0,0)" xlink:href="#ai"/><use transform="matrix(0.015555555555555557,0,0,0.015555555555555557,3.795555555555556,0)" xlink:href="#af"/><use transform="matrix(0.015555555555555557,0,0,0.015555555555555557,12.973333333333334,0)" xlink:href="#X"/><use transform="matrix(0.015555555555555557,0,0,0.015555555555555557,21.980000000000004,0)" xlink:href="#T"/><use transform="matrix(0.015555555555555557,0,0,0.015555555555555557,32.51111111111111,0)" xlink:href="#ab"/><use transform="matrix(0.015555555555555557,0,0,0.015555555555555557,42.45111111111111,0)" xlink:href="#af"/><use transform="matrix(0.015555555555555557,0,0,0.015555555555555557,51.62888888888889,0)" xlink:href="#ai"/><use transform="matrix(0.015555555555555557,0,0,0.015555555555555557,55.42444444444445,0)" xlink:href="#at"/><use transform="matrix(0.015555555555555557,0,0,0.015555555555555557,66.00222222222223,0)" xlink:href="#X"/></g><g id="C"><use transform="matrix(0.015555555555555557,0,0,0.015555555555555557,0,0)" xlink:href="#T"/><use transform="matrix(0.015555555555555557,0,0,0.015555555555555557,10.60888888888889,0)" xlink:href="#X"/><use transform="matrix(0.015555555555555557,0,0,0.015555555555555557,19.61555555555556,0)" xlink:href="#ah"/><use transform="matrix(0.015555555555555557,0,0,0.015555555555555557,30.98666666666667,0)" xlink:href="#X"/><use transform="matrix(0.015555555555555557,0,0,0.015555555555555557,39.83777777777779,0)" xlink:href="#ae"/><use transform="matrix(0.015555555555555557,0,0,0.015555555555555557,49.280000000000015,0)" xlink:href="#ai"/><use transform="matrix(0.015555555555555557,0,0,0.015555555555555557,53.075555555555574,0)" xlink:href="#ad"/><use transform="matrix(0.015555555555555557,0,0,0.015555555555555557,64.26000000000002,0)" xlink:href="#ac"/></g><g id="D"><use transform="matrix(0.015555555555555557,0,0,0.015555555555555557,0,0)" xlink:href="#ab"/><use transform="matrix(0.015555555555555557,0,0,0.015555555555555557,11.200000000000001,0)" xlink:href="#ac"/><use transform="matrix(0.015555555555555557,0,0,0.015555555555555557,22.633333333333333,0)" xlink:href="#ah"/></g><g id="E"><use transform="matrix(0.015555555555555557,0,0,0.015555555555555557,0,0)" xlink:href="#ar"/><use transform="matrix(0.015555555555555557,0,0,0.015555555555555557,8.602222222222222,0)" xlink:href="#X"/><use transform="matrix(0.015555555555555557,0,0,0.015555555555555557,17.60888888888889,0)" xlink:href="#X"/><use transform="matrix(0.015555555555555557,0,0,0.015555555555555557,26.61555555555556,0)" xlink:href="#ah"/><use transform="matrix(0.015555555555555557,0,0,0.015555555555555557,37.98666666666667,0)" xlink:href="#V"/><use transform="matrix(0.015555555555555557,0,0,0.015555555555555557,48.268888888888895,0)" xlink:href="#ab"/><use transform="matrix(0.015555555555555557,0,0,0.015555555555555557,59.08000000000001,0)" xlink:href="#Z"/><use transform="matrix(0.015555555555555557,0,0,0.015555555555555557,69.61111111111113,0)" xlink:href="#an"/></g></defs></g></svg>