<svg xmlns="http://www.w3.org/2000/svg" xmlns:xlink="http://www.w3.org/1999/xlink" xmlns:lucid="lucid" width="1060" height="351.33"><g transform="translate(-40 -40)" lucid:page-tab-id="swRo0b2bCnKL"><path d="M60 61.56h200v60H60z" stroke="#34495e" fill="#34495e"/><use xlink:href="#a" transform="matrix(1,0,0,1,65,66.56444444449153) translate(2.1650000000000063 18.646)"/><use xlink:href="#b" transform="matrix(1,0,0,1,65,66.56444444449153) translate(59.819 18.646)"/><use xlink:href="#c" transform="matrix(1,0,0,1,65,66.56444444449153) translate(112.667 18.646)"/><use xlink:href="#d" transform="matrix(1,0,0,1,65,66.56444444449153) translate(65.28200000000001 43.19799999999999)"/><path d="M86.67 206.23h146.66v44H86.67z" stroke="#34495e" stroke-width="2" fill-opacity="0"/><use xlink:href="#e" transform="matrix(1,0,0,1,91.66666666672499,211.23111111111518) translate(30.248888888888885 22.11777777777778)"/><path d="M86.67 267.33h146.66v44H86.67z" stroke="#34495e" stroke-width="2" fill-opacity="0"/><use xlink:href="#f" transform="matrix(1,0,0,1,91.66666666672499,272.33333333333326) translate(42.81777777777778 22.11777777777778)"/><path d="M86.67 145.13h146.66v44H86.67z" stroke="#34495e" stroke-width="2" fill-opacity="0"/><use xlink:href="#g" transform="matrix(1,0,0,1,91.66666666660858,150.1288888888971) translate(31.99111111111111 22.11777777777778)"/><path d="M366.67 205.96h146.66v44H366.67z" stroke="#34495e" stroke-width="2" fill-opacity="0"/><use xlink:href="#h" transform="matrix(1,0,0,1,371.6666666667831,210.9555555555704) translate(27.122222222222213 22.11777777777778)"/><path d="M366.67 266.78h146.66v44H366.67z" stroke="#34495e" stroke-width="2" fill-opacity="0"/><use xlink:href="#i" transform="matrix(1,0,0,1,371.6666666666667,271.7822222222437) translate(27.16888888888888 22.11777777777778)"/><use xlink:href="#j" transform="matrix(1,0,0,1,371.6666666666667,271.7822222222437) translate(60.73777777777777 22.11777777777778)"/><path d="M366.67 327.33h146.66v44H366.67z" stroke="#34495e" stroke-width="2" fill-opacity="0"/><use xlink:href="#k" transform="matrix(1,0,0,1,371.6666666667831,332.33333333337214) translate(19.297777777777767 22.11777777777778)"/><use xlink:href="#l" transform="matrix(1,0,0,1,371.6666666667831,332.33333333337214) translate(63.47555555555555 22.11777777777778)"/><path d="M340 60h200v60H340z" stroke="#34495e" fill="#34495e"/><use xlink:href="#m" transform="matrix(1,0,0,1,345,65) translate(20.22800000000001 18.646)"/><use xlink:href="#n" transform="matrix(1,0,0,1,345,65) translate(121.46 18.646)"/><use xlink:href="#o" transform="matrix(1,0,0,1,345,65) translate(66.245 43.19799999999999)"/><path d="M366.67 145.13h146.66v44H366.67z" stroke="#34495e" stroke-width="2" fill-opacity="0"/><use xlink:href="#p" transform="matrix(1,0,0,1,371.6666666666667,150.1288888888971) translate(8.953333333333333 22.11777777777778)"/><path d="M620 60h200v60H620z" stroke="#34495e" fill="#34495e"/><use xlink:href="#q" transform="matrix(1,0,0,1,625,65) translate(7.304000000000002 30.921999999999997)"/><use xlink:href="#r" transform="matrix(1,0,0,1,625,65) translate(73.41799999999999 30.921999999999997)"/><use xlink:href="#s" transform="matrix(1,0,0,1,625,65) translate(124.53799999999998 30.921999999999997)"/><path d="M880 61.56h200v60H880z" stroke="#34495e" fill="#34495e"/><use xlink:href="#t" transform="matrix(1,0,0,1,885,66.56444444449153) translate(62.55500000000001 30.921999999999997)"/><path d="M906.67 145.13h146.66v44H906.67z" stroke="#34495e" stroke-width="2" fill-opacity="0"/><use xlink:href="#u" transform="matrix(1,0,0,1,911.6666666666666,150.1288888888971) translate(35.69333333333333 22.11777777777778)"/><path d="M906.67 206.23h146.66v52.44H906.67z" stroke="#34495e" stroke-width="2" fill-opacity="0"/><use xlink:href="#v" transform="matrix(1,0,0,1,911.6666666666666,211.23111111111518) translate(17.423333333333332 26.61777777777778)"/><path d="M261.5 91.56H321" stroke="#34495e" stroke-width="2" fill="none"/><path d="M261.53 92.56h-1.03v-2h1.03z" fill="#34495e"/><path d="M336.26 91.56L322 96.2v-9.27z" stroke="#34495e" stroke-width="2" fill="#34495e"/><path d="M541.5 90H601" stroke="#34495e" stroke-width="2" fill="none"/><path d="M541.53 91h-1.03v-2h1.03z" fill="#34495e"/><path d="M616.26 90L602 94.64v-9.28z" stroke="#34495e" stroke-width="2" fill="#34495e"/><path d="M821.5 90H861" stroke="#34495e" stroke-width="2" fill="none"/><path d="M821.53 91h-1.03v-2h1.03z" fill="#34495e"/><path d="M876.26 90L862 94.64v-9.28z" stroke="#34495e" stroke-width="2" fill="#34495e"/><path d="M160 191.13v13.1" stroke="#34495e" stroke-width="2" fill="none"/><path d="M161 191.15h-2v-1.02h2zM161 205.23h-2v-1.02h2z" fill="#34495e"/><path d="M160 252.23v13.1" stroke="#34495e" stroke-width="2" fill="none"/><path d="M161 252.26h-2v-1.03h2zM161 266.33h-2v-1.02h2z" fill="#34495e"/><path d="M160 123.06v20.07" stroke="#34495e" stroke-width="2" fill="none"/><path d="M161 123.1h-2v-1.04h2zM161 144.13h-2v-1.03h2z" fill="#34495e"/><path d="M440 191.13v12.83" stroke="#34495e" stroke-width="2" fill="none"/><path d="M441 191.15h-2v-1.02h2zM441 204.96h-2v-1.03h2z" fill="#34495e"/><path d="M440 251.96v12.82" stroke="#34495e" stroke-width="2" fill="none"/><path d="M441 251.98h-2v-1.02h2zM441 265.78h-2v-1.02h2z" fill="#34495e"/><path d="M440 312.78v12.55" stroke="#34495e" stroke-width="2" fill="none"/><path d="M441 312.8h-2v-1.02h2zM441 326.33h-2v-1.02h2z" fill="#34495e"/><path d="M440 121.5v21.63" stroke="#34495e" stroke-width="2" fill="none"/><path d="M441 121.53h-2v-1.03h2zM441 144.13h-2v-1.03h2z" fill="#34495e"/><path d="M980 123.06v20.07" stroke="#34495e" stroke-width="2" fill="none"/><path d="M981 123.1h-2v-1.04h2zM981 144.13h-2v-1.03h2z" fill="#34495e"/><path d="M980 191.13v13.1" stroke="#34495e" stroke-width="2" fill="none"/><path d="M981 191.15h-2v-1.02h2zM981 205.23h-2v-1.02h2z" fill="#34495e"/><path d="M646.67 145.13h146.66v52.43H646.67z" stroke="#34495e" stroke-width="2" fill-opacity="0"/><use xlink:href="#w" transform="matrix(1,0,0,1,651.6666666667248,150.1288888888971) translate(27.713333333333324 16.00888888888889)"/><use xlink:href="#x" transform="matrix(1,0,0,1,651.6666666667248,150.1288888888971) translate(8.284444444444432 37.22666666666667)"/><path d="M646.67 214.9h146.66v52.43H646.67z" stroke="#34495e" stroke-width="2" fill-opacity="0"/><g><use xlink:href="#y" transform="matrix(1,0,0,1,651.6666666667248,219.89777777777772) translate(19.647777777777776 16.00888888888889)"/><use xlink:href="#z" transform="matrix(1,0,0,1,651.6666666667248,219.89777777777772) translate(38.617777777777775 37.22666666666667)"/></g><path d="M720 121.5v21.63" stroke="#34495e" stroke-width="2" fill="none"/><path d="M721 121.53h-2v-1.03h2zM721 144.13h-2v-1.03h2z" fill="#34495e"/><path d="M720 199.56v13.34" stroke="#34495e" stroke-width="2" fill="none"/><path d="M721 199.6h-2v-1.04h2zM721 213.9h-2v-1.03h2z" fill="#34495e"/><defs><path fill="#fff" d="M90-14C79 21 20 3 35-33l292-656c8-31 56-26 67 0L685-33c18 33-39 54-54 19l-76-174H167zm100-228h341L361-629" id="A"/><path fill="#fff" d="M123 0c-16 0-33-12-32-28v-650c0-18 13-32 31-32 20 0 31 12 31 32v624h342c17 0 28 10 28 27S512 0 495 0H123" id="B"/><path fill="#fff" d="M122 5C104 5 91-9 91-27v-651c0-18 13-32 31-32s31 14 31 32v651c0 18-13 32-31 32" id="C"/><path fill="#fff" d="M609-361c16 0 27 11 27 27v265c0 17-8 29-23 36C560-8 473 8 395 8 175 5 64-131 64-353c0-218 109-355 324-360 97 0 180 38 231 87 28 27 3 76-30 46-60-54-103-75-201-78-174 0-261 123-259 305-1 188 85 307 266 307 68 0 137-12 185-33v-230H418c-18 0-29-9-29-26s11-26 29-26h191" id="D"/><path fill="#fff" d="M615-710c19 0 29 13 29 32v651c2 33-39 42-57 17L149-601v574c0 18-12 32-29 32-20 0-29-12-29-32v-651c-3-32 40-42 58-17l437 590v-573c0-18 12-32 29-32" id="E"/><g id="a"><use transform="matrix(0.018,0,0,0.018,0,0)" xlink:href="#A"/><use transform="matrix(0.018,0,0,0.018,12.959999999999999,0)" xlink:href="#B"/><use transform="matrix(0.018,0,0,0.018,22.554,0)" xlink:href="#C"/><use transform="matrix(0.018,0,0,0.018,26.945999999999998,0)" xlink:href="#D"/><use transform="matrix(0.018,0,0,0.018,39.888,0)" xlink:href="#E"/></g><path fill="#fff" d="M41-673c-15-35 42-54 55-19L307-86l210-598c6-32 53-29 64 1L790-86l211-606c9-36 67-16 55 19L824-17c-7 29-56 30-66 0L549-609 338-17c-6 29-55 29-65 0" id="F"/><path fill="#fff" d="M295 5c-18 0-30-14-30-32v-624H34c-17 0-28-10-28-27s11-27 28-27h522c16 0 28 11 28 27s-12 27-28 27H326v624c0 18-13 32-31 32" id="G"/><path fill="#fff" d="M632-710c20 0 31 12 31 32v651c0 20-11 32-31 32-18 0-30-14-30-32v-304H152v304c0 18-12 32-30 32S91-9 91-27v-651c0-18 13-32 31-32s30 14 30 32v293h450v-293c0-18 12-32 30-32" id="H"/><g id="b"><use transform="matrix(0.018,0,0,0.018,0,0)" xlink:href="#F"/><use transform="matrix(0.018,0,0,0.018,19.727999999999998,0)" xlink:href="#C"/><use transform="matrix(0.018,0,0,0.018,24.119999999999997,0)" xlink:href="#G"/><use transform="matrix(0.018,0,0,0.018,34.739999999999995,0)" xlink:href="#H"/></g><path fill="#fff" d="M384 8C171 3 64-136 64-353s107-355 320-360c97 0 180 36 230 87 34 23 3 75-30 46-61-54-102-75-201-78-171 0-254 125-254 305 0 181 83 305 254 306 99-2 139-25 201-78 36-31 61 25 30 46C564-27 481 7 384 8" id="I"/><path fill="#fff" d="M124 0c-18 1-33-14-33-31v-643c0-17 15-32 33-31h380c17 0 28 10 28 27 0 16-11 26-28 26H152v267h332c17 0 28 10 28 27s-11 27-28 27H152v278h352c17 0 28 9 28 26S521 0 504 0H124" id="J"/><path fill="#fff" d="M70-667c-7-59 75-55 71 0l-14 216c2 22-23 28-35 16-4-4-5-9-6-16" id="K"/><path fill="#fff" d="M560-187C565 48 181 51 58-79c-32-22-2-77 31-46 59 56 136 78 219 78 108 1 190-41 190-140 0-98-94-103-184-128-100-24-162-36-218-95-23-26-35-60-35-103-9-230 361-250 482-113 32 24 2 75-31 46-61-54-101-75-200-78-107-1-189 45-189 144 0 108 104 116 197 142 96 27 153 33 208 90 22 24 32 55 32 95" id="L"/><g id="c"><use transform="matrix(0.018,0,0,0.018,0,0)" xlink:href="#I"/><use transform="matrix(0.018,0,0,0.018,12.186,0)" xlink:href="#B"/><use transform="matrix(0.018,0,0,0.018,21.78,0)" xlink:href="#C"/><use transform="matrix(0.018,0,0,0.018,26.172,0)" xlink:href="#J"/><use transform="matrix(0.018,0,0,0.018,36.594,0)" xlink:href="#E"/><use transform="matrix(0.018,0,0,0.018,49.824,0)" xlink:href="#G"/><use transform="matrix(0.018,0,0,0.018,60.443999999999996,0)" xlink:href="#K"/><use transform="matrix(0.018,0,0,0.018,64.24199999999999,0)" xlink:href="#L"/></g><path fill="#fff" d="M378 8C168 8 64-138 64-352c0-215 103-361 314-361s315 144 315 360S589 8 378 8zm0-55c169-1 251-126 251-306s-80-304-251-305c-169 1-250 126-250 305S209-48 378-47" id="M"/><g id="d"><use transform="matrix(0.018,0,0,0.018,0,0)" xlink:href="#D"/><use transform="matrix(0.018,0,0,0.018,12.941999999999998,0)" xlink:href="#M"/><use transform="matrix(0.018,0,0,0.018,26.298,0)" xlink:href="#A"/><use transform="matrix(0.018,0,0,0.018,39.257999999999996,0)" xlink:href="#B"/><use transform="matrix(0.018,0,0,0.018,48.51,0)" xlink:href="#L"/></g><path fill="#34495e" d="M560-187C565 48 181 51 58-79c-32-22-2-77 31-46 59 56 136 78 219 78 108 1 190-41 190-140 0-98-94-103-184-128-100-24-162-36-218-95-23-26-35-60-35-103-9-230 361-250 482-113 32 24 2 75-31 46-61-54-101-75-200-78-107-1-189 45-189 144 0 108 104 116 197 142 96 27 153 33 208 90 22 24 32 55 32 95" id="N"/><path fill="#34495e" d="M378 8C168 8 64-138 64-352c0-215 103-361 314-361s315 144 315 360S589 8 378 8zm0-55c169-1 251-126 251-306s-80-304-251-305c-169 1-250 126-250 305S209-48 378-47" id="O"/><path fill="#34495e" d="M123 0c-16 0-33-12-32-28v-650c0-18 13-32 31-32 20 0 31 12 31 32v624h342c17 0 28 10 28 27S512 0 495 0H123" id="P"/><path fill="#34495e" d="M360 8C179 8 85-90 86-272v-406c0-19 12-32 31-32s31 13 31 32v413c0 145 71 218 212 218s212-76 212-218v-413c0-18 13-32 31-32 19 0 30 13 30 32v406C634-90 540 8 360 8" id="Q"/><path fill="#34495e" d="M295 5c-18 0-30-14-30-32v-624H34c-17 0-28-10-28-27s11-27 28-27h522c16 0 28 11 28 27s-12 27-28 27H326v624c0 18-13 32-31 32" id="R"/><path fill="#34495e" d="M122 5C104 5 91-9 91-27v-651c0-18 13-32 31-32s31 14 31 32v651c0 18-13 32-31 32" id="S"/><path fill="#34495e" d="M615-710c19 0 29 13 29 32v651c2 33-39 42-57 17L149-601v574c0 18-12 32-29 32-20 0-29-12-29-32v-651c-3-32 40-42 58-17l437 590v-573c0-18 12-32 29-32" id="T"/><g id="e"><use transform="matrix(0.015555555555555557,0,0,0.015555555555555557,0,0)" xlink:href="#N"/><use transform="matrix(0.015555555555555557,0,0,0.015555555555555557,9.442222222222224,0)" xlink:href="#O"/><use transform="matrix(0.015555555555555557,0,0,0.015555555555555557,21.21777777777778,0)" xlink:href="#P"/><use transform="matrix(0.015555555555555557,0,0,0.015555555555555557,29.120000000000005,0)" xlink:href="#Q"/><use transform="matrix(0.015555555555555557,0,0,0.015555555555555557,40.32000000000001,0)" xlink:href="#R"/><use transform="matrix(0.015555555555555557,0,0,0.015555555555555557,49.497777777777785,0)" xlink:href="#S"/><use transform="matrix(0.015555555555555557,0,0,0.015555555555555557,53.293333333333344,0)" xlink:href="#O"/><use transform="matrix(0.015555555555555557,0,0,0.015555555555555557,65.06888888888889,0)" xlink:href="#T"/></g><path fill="#34495e" d="M609-361c16 0 27 11 27 27v265c0 17-8 29-23 36C560-8 473 8 395 8 175 5 64-131 64-353c0-218 109-355 324-360 97 0 180 38 231 87 28 27 3 76-30 46-60-54-103-75-201-78-174 0-261 123-259 305-1 188 85 307 266 307 68 0 137-12 185-33v-230H418c-18 0-29-9-29-26s11-26 29-26h191" id="U"/><path fill="#34495e" d="M90-14C79 21 20 3 35-33l292-656c8-31 56-26 67 0L685-33c18 33-39 54-54 19l-76-174H167zm100-228h341L361-629" id="V"/><g id="f"><use transform="matrix(0.015555555555555557,0,0,0.015555555555555557,0,0)" xlink:href="#U"/><use transform="matrix(0.015555555555555557,0,0,0.015555555555555557,11.184444444444445,0)" xlink:href="#O"/><use transform="matrix(0.015555555555555557,0,0,0.015555555555555557,22.726666666666667,0)" xlink:href="#V"/><use transform="matrix(0.015555555555555557,0,0,0.015555555555555557,33.92666666666667,0)" xlink:href="#P"/><use transform="matrix(0.015555555555555557,0,0,0.015555555555555557,41.922222222222224,0)" xlink:href="#N"/></g><path fill="#34495e" d="M122 5C103 5 91-8 91-27v-647c0-17 15-32 33-31h234c139-1 231 69 231 203 1 135-92 205-231 205H153v270c0 19-12 32-31 32zm232-355c115 0 173-51 173-152 0-100-58-150-173-150H153v302h201" id="W"/><path fill="#34495e" d="M604-507c0 120-79 184-195 193 40 15 61 40 85 78L618-37c25 32-28 60-49 27L434-226c-38-56-60-80-144-80H153v279c0 19-12 32-31 32S91-8 91-27v-647c0-17 15-32 33-31h249c140-1 231 63 231 198zm-61-1c-1-104-64-144-174-144H152v293h217c116 0 174-50 174-149" id="X"/><path fill="#34495e" d="M477-361c77 18 128 78 128 170C605-59 511 0 373 0H124c-18 1-33-14-33-31v-643c0-17 15-32 33-31h239c133-1 225 59 226 185-1 83-48 135-112 159zm-123-24c104 1 171-40 173-136 0-87-58-131-173-131H152v267h202zm15 332c109 0 172-35 174-136 0-95-58-142-174-142H152v278h217" id="Y"/><path fill="#34495e" d="M124 0c-18 1-33-14-33-31v-643c0-17 15-32 33-31h380c17 0 28 10 28 27 0 16-11 26-28 26H152v267h332c17 0 28 10 28 27s-11 27-28 27H152v278h352c17 0 28 9 28 26S521 0 504 0H124" id="Z"/><path fill="#34495e" d="M687-687c12-35 63-28 62 9v651c0 18-12 32-30 32-19 0-28-13-28-32v-555L454-124c-14 31-50 30-66 0L149-578v551c0 19-9 32-28 32-20 0-30-12-30-32v-651c-1-37 45-42 62-9l269 516" id="aa"/><g id="g"><use transform="matrix(0.015555555555555557,0,0,0.015555555555555557,0,0)" xlink:href="#W"/><use transform="matrix(0.015555555555555557,0,0,0.015555555555555557,9.924444444444445,0)" xlink:href="#X"/><use transform="matrix(0.015555555555555557,0,0,0.015555555555555557,20.455555555555556,0)" xlink:href="#O"/><use transform="matrix(0.015555555555555557,0,0,0.015555555555555557,32.23111111111111,0)" xlink:href="#Y"/><use transform="matrix(0.015555555555555557,0,0,0.015555555555555557,42.653333333333336,0)" xlink:href="#P"/><use transform="matrix(0.015555555555555557,0,0,0.015555555555555557,50.94444444444445,0)" xlink:href="#Z"/><use transform="matrix(0.015555555555555557,0,0,0.015555555555555557,59.95111111111112,0)" xlink:href="#aa"/></g><g id="h"><use transform="matrix(0.015555555555555557,0,0,0.015555555555555557,0,0)" xlink:href="#W"/><use transform="matrix(0.015555555555555557,0,0,0.015555555555555557,9.924444444444445,0)" xlink:href="#Z"/><use transform="matrix(0.015555555555555557,0,0,0.015555555555555557,18.931111111111115,0)" xlink:href="#X"/><use transform="matrix(0.015555555555555557,0,0,0.015555555555555557,29.540000000000006,0)" xlink:href="#N"/><use transform="matrix(0.015555555555555557,0,0,0.015555555555555557,38.982222222222234,0)" xlink:href="#O"/><use transform="matrix(0.015555555555555557,0,0,0.015555555555555557,50.75777777777779,0)" xlink:href="#T"/><use transform="matrix(0.015555555555555557,0,0,0.015555555555555557,62.19111111111113,0)" xlink:href="#V"/><use transform="matrix(0.015555555555555557,0,0,0.015555555555555557,73.31333333333335,0)" xlink:href="#N"/></g><g id="i"><use transform="matrix(0.015555555555555557,0,0,0.015555555555555557,0,0)" xlink:href="#Q"/><use transform="matrix(0.015555555555555557,0,0,0.015555555555555557,11.200000000000001,0)" xlink:href="#N"/><use transform="matrix(0.015555555555555557,0,0,0.015555555555555557,20.642222222222223,0)" xlink:href="#Z"/></g><path fill="#34495e" d="M384 8C171 3 64-136 64-353s107-355 320-360c97 0 180 36 230 87 34 23 3 75-30 46-61-54-102-75-201-78-171 0-254 125-254 305 0 181 83 305 254 306 99-2 139-25 201-78 36-31 61 25 30 46C564-27 481 7 384 8" id="ab"/><g id="j"><use transform="matrix(0.015555555555555557,0,0,0.015555555555555557,0,0)" xlink:href="#ab"/><use transform="matrix(0.015555555555555557,0,0,0.015555555555555557,10.235555555555557,0)" xlink:href="#V"/><use transform="matrix(0.015555555555555557,0,0,0.015555555555555557,21.35777777777778,0)" xlink:href="#N"/><use transform="matrix(0.015555555555555557,0,0,0.015555555555555557,30.800000000000004,0)" xlink:href="#Z"/><use transform="matrix(0.015555555555555557,0,0,0.015555555555555557,39.65111111111112,0)" xlink:href="#N"/></g><g id="k"><use transform="matrix(0.015555555555555557,0,0,0.015555555555555557,0,0)" xlink:href="#Q"/><use transform="matrix(0.015555555555555557,0,0,0.015555555555555557,11.200000000000001,0)" xlink:href="#N"/><use transform="matrix(0.015555555555555557,0,0,0.015555555555555557,20.642222222222223,0)" xlink:href="#Z"/><use transform="matrix(0.015555555555555557,0,0,0.015555555555555557,29.64888888888889,0)" xlink:href="#X"/></g><path fill="#34495e" d="M122 5C104 5 91-9 91-27v-647c0-17 15-32 33-31h370c17 0 28 10 28 27s-11 26-28 26H153v267h321c17 0 28 10 28 27s-11 27-28 27H153v304c0 20-11 32-31 32" id="ac"/><path fill="#34495e" d="M41-673c-15-35 42-54 55-19L307-86l210-598c6-32 53-29 64 1L790-86l211-606c9-36 67-16 55 19L824-17c-7 29-56 30-66 0L549-609 338-17c-6 29-55 29-65 0" id="ad"/><g id="l"><use transform="matrix(0.015555555555555557,0,0,0.015555555555555557,0,0)" xlink:href="#ac"/><use transform="matrix(0.015555555555555557,0,0,0.015555555555555557,8.602222222222222,0)" xlink:href="#P"/><use transform="matrix(0.015555555555555557,0,0,0.015555555555555557,16.34888888888889,0)" xlink:href="#O"/><use transform="matrix(0.015555555555555557,0,0,0.015555555555555557,27.891111111111112,0)" xlink:href="#ad"/><use transform="matrix(0.015555555555555557,0,0,0.015555555555555557,44.784444444444446,0)" xlink:href="#N"/></g><path fill="#fff" d="M687-687c12-35 63-28 62 9v651c0 18-12 32-30 32-19 0-28-13-28-32v-555L454-124c-14 31-50 30-66 0L149-578v551c0 19-9 32-28 32-20 0-30-12-30-32v-651c-1-37 45-42 62-9l269 516" id="ae"/><path fill="#fff" d="M122 5C103 5 91-8 91-27v-647c0-17 15-32 33-31h234c139-1 231 69 231 203 1 135-92 205-231 205H153v270c0 19-12 32-31 32zm232-355c115 0 173-51 173-152 0-100-58-150-173-150H153v302h201" id="af"/><path fill="#fff" d="M524-53c18 0 29 8 29 26S542 0 524 0H68C39 2 32-28 47-50l418-602H66c-16 0-27-10-27-26 0-17 11-27 27-27h447c28-2 37 29 22 50L116-53h408" id="ag"/><g id="m"><use transform="matrix(0.018,0,0,0.018,0,0)" xlink:href="#J"/><use transform="matrix(0.018,0,0,0.018,10.421999999999999,0)" xlink:href="#ae"/><use transform="matrix(0.018,0,0,0.018,25.541999999999998,0)" xlink:href="#af"/><use transform="matrix(0.018,0,0,0.018,35.675999999999995,0)" xlink:href="#A"/><use transform="matrix(0.018,0,0,0.018,47.178,0)" xlink:href="#G"/><use transform="matrix(0.018,0,0,0.018,57.797999999999995,0)" xlink:href="#H"/><use transform="matrix(0.018,0,0,0.018,71.36999999999999,0)" xlink:href="#C"/><use transform="matrix(0.018,0,0,0.018,75.762,0)" xlink:href="#ag"/><use transform="matrix(0.018,0,0,0.018,86.27399999999999,0)" xlink:href="#J"/></g><g id="n"><use transform="matrix(0.018,0,0,0.018,0,0)" xlink:href="#F"/><use transform="matrix(0.018,0,0,0.018,19.727999999999998,0)" xlink:href="#C"/><use transform="matrix(0.018,0,0,0.018,24.119999999999997,0)" xlink:href="#G"/><use transform="matrix(0.018,0,0,0.018,34.739999999999995,0)" xlink:href="#H"/></g><path fill="#fff" d="M360 8C179 8 85-90 86-272v-406c0-19 12-32 31-32s31 13 31 32v413c0 145 71 218 212 218s212-76 212-218v-413c0-18 13-32 31-32 19 0 30 13 30 32v406C634-90 540 8 360 8" id="ah"/><path fill="#fff" d="M604-507c0 120-79 184-195 193 40 15 61 40 85 78L618-37c25 32-28 60-49 27L434-226c-38-56-60-80-144-80H153v279c0 19-12 32-31 32S91-8 91-27v-647c0-17 15-32 33-31h249c140-1 231 63 231 198zm-61-1c-1-104-64-144-174-144H152v293h217c116 0 174-50 174-149" id="ai"/><g id="o"><use transform="matrix(0.018,0,0,0.018,0,0)" xlink:href="#ah"/><use transform="matrix(0.018,0,0,0.018,12.959999999999999,0)" xlink:href="#L"/><use transform="matrix(0.018,0,0,0.018,23.885999999999996,0)" xlink:href="#J"/><use transform="matrix(0.018,0,0,0.018,34.30799999999999,0)" xlink:href="#ai"/><use transform="matrix(0.018,0,0,0.018,46.58399999999999,0)" xlink:href="#L"/></g><path fill="#34495e" d="M525-701c25-27 67 16 37 42L214-360 581-46c31 22-7 67-36 42L153-337v310c0 18-13 32-31 32S91-9 91-27v-651c0-18 13-32 31-32s31 14 31 32v301" id="aj"/><path fill="#34495e" d="M632-710c20 0 31 12 31 32v651c0 20-11 32-31 32-18 0-30-14-30-32v-304H152v304c0 18-12 32-30 32S91-9 91-27v-651c0-18 13-32 31-32s30 14 30 32v293h450v-293c0-18 12-32 30-32" id="ak"/><path fill="#34495e" d="M124 0c-18 1-33-14-33-31v-643c0-17 15-32 33-31h194c222-1 352 128 350 352C670-129 540 1 318 0H124zm191-54c192 0 288-100 288-299s-96-298-288-298H153v597h162" id="al"/><g id="p"><use transform="matrix(0.015555555555555557,0,0,0.015555555555555557,0,0)" xlink:href="#N"/><use transform="matrix(0.015555555555555557,0,0,0.015555555555555557,9.208888888888891,0)" xlink:href="#R"/><use transform="matrix(0.015555555555555557,0,0,0.015555555555555557,17.126666666666672,0)" xlink:href="#V"/><use transform="matrix(0.015555555555555557,0,0,0.015555555555555557,28.326666666666675,0)" xlink:href="#aj"/><use transform="matrix(0.015555555555555557,0,0,0.015555555555555557,37.86222222222223,0)" xlink:href="#Z"/><use transform="matrix(0.015555555555555557,0,0,0.015555555555555557,46.8688888888889,0)" xlink:href="#ak"/><use transform="matrix(0.015555555555555557,0,0,0.015555555555555557,58.597777777777786,0)" xlink:href="#O"/><use transform="matrix(0.015555555555555557,0,0,0.015555555555555557,70.37333333333333,0)" xlink:href="#P"/><use transform="matrix(0.015555555555555557,0,0,0.015555555555555557,78.66444444444444,0)" xlink:href="#al"/><use transform="matrix(0.015555555555555557,0,0,0.015555555555555557,90.03555555555556,0)" xlink:href="#Z"/><use transform="matrix(0.015555555555555557,0,0,0.015555555555555557,99.04222222222222,0)" xlink:href="#X"/><use transform="matrix(0.015555555555555557,0,0,0.015555555555555557,109.6511111111111,0)" xlink:href="#N"/></g><path fill="#fff" d="M124 0c-18 1-33-14-33-31v-643c0-17 15-32 33-31h194c222-1 352 128 350 352C670-129 540 1 318 0H124zm191-54c192 0 288-100 288-299s-96-298-288-298H153v597h162" id="am"/><path fill="#fff" d="M122 5C104 5 91-9 91-27v-647c0-17 15-32 33-31h370c17 0 28 10 28 27s-11 26-28 26H153v267h321c17 0 28 10 28 27s-11 27-28 27H153v304c0 20-11 32-31 32" id="an"/><g id="q"><use transform="matrix(0.018,0,0,0.018,0,0)" xlink:href="#am"/><use transform="matrix(0.018,0,0,0.018,13.158,0)" xlink:href="#J"/><use transform="matrix(0.018,0,0,0.018,23.58,0)" xlink:href="#an"/><use transform="matrix(0.018,0,0,0.018,33.534,0)" xlink:href="#C"/><use transform="matrix(0.018,0,0,0.018,37.926,0)" xlink:href="#E"/><use transform="matrix(0.018,0,0,0.018,51.156,0)" xlink:href="#J"/></g><g id="r"><use transform="matrix(0.018,0,0,0.018,0,0)" xlink:href="#ah"/><use transform="matrix(0.018,0,0,0.018,12.959999999999999,0)" xlink:href="#L"/><use transform="matrix(0.018,0,0,0.018,23.885999999999996,0)" xlink:href="#J"/><use transform="matrix(0.018,0,0,0.018,34.30799999999999,0)" xlink:href="#ai"/></g><g id="s"><use transform="matrix(0.018,0,0,0.018,0,0)" xlink:href="#E"/><use transform="matrix(0.018,0,0,0.018,13.229999999999999,0)" xlink:href="#J"/><use transform="matrix(0.018,0,0,0.018,23.651999999999997,0)" xlink:href="#J"/><use transform="matrix(0.018,0,0,0.018,34.074,0)" xlink:href="#am"/><use transform="matrix(0.018,0,0,0.018,47.232,0)" xlink:href="#L"/></g><g id="t"><use transform="matrix(0.018,0,0,0.018,0,0)" xlink:href="#am"/><use transform="matrix(0.018,0,0,0.018,13.158,0)" xlink:href="#J"/><use transform="matrix(0.018,0,0,0.018,23.4,0)" xlink:href="#L"/><use transform="matrix(0.018,0,0,0.018,34.32599999999999,0)" xlink:href="#C"/><use transform="matrix(0.018,0,0,0.018,38.71799999999999,0)" xlink:href="#D"/><use transform="matrix(0.018,0,0,0.018,51.65999999999999,0)" xlink:href="#E"/></g><g id="u"><use transform="matrix(0.015555555555555557,0,0,0.015555555555555557,0,0)" xlink:href="#N"/><use transform="matrix(0.015555555555555557,0,0,0.015555555555555557,9.442222222222224,0)" xlink:href="#S"/><use transform="matrix(0.015555555555555557,0,0,0.015555555555555557,13.23777777777778,0)" xlink:href="#R"/><use transform="matrix(0.015555555555555557,0,0,0.015555555555555557,22.415555555555557,0)" xlink:href="#Z"/><use transform="matrix(0.015555555555555557,0,0,0.015555555555555557,31.422222222222224,0)" xlink:href="#aa"/><use transform="matrix(0.015555555555555557,0,0,0.015555555555555557,44.488888888888894,0)" xlink:href="#V"/><use transform="matrix(0.015555555555555557,0,0,0.015555555555555557,55.6888888888889,0)" xlink:href="#W"/></g><g id="v"><use transform="matrix(0.015555555555555557,0,0,0.015555555555555557,0,0)" xlink:href="#ad"/><use transform="matrix(0.015555555555555557,0,0,0.015555555555555557,17.04888888888889,0)" xlink:href="#S"/><use transform="matrix(0.015555555555555557,0,0,0.015555555555555557,20.844444444444445,0)" xlink:href="#X"/><use transform="matrix(0.015555555555555557,0,0,0.015555555555555557,31.453333333333333,0)" xlink:href="#Z"/><use transform="matrix(0.015555555555555557,0,0,0.015555555555555557,40.46,0)" xlink:href="#ac"/><use transform="matrix(0.015555555555555557,0,0,0.015555555555555557,49.062222222222225,0)" xlink:href="#X"/><use transform="matrix(0.015555555555555557,0,0,0.015555555555555557,59.59333333333334,0)" xlink:href="#V"/><use transform="matrix(0.015555555555555557,0,0,0.015555555555555557,70.79333333333334,0)" xlink:href="#aa"/><use transform="matrix(0.015555555555555557,0,0,0.015555555555555557,83.86,0)" xlink:href="#Z"/><use transform="matrix(0.015555555555555557,0,0,0.015555555555555557,92.71111111111111,0)" xlink:href="#N"/></g><path fill="#34495e" d="M524-53c18 0 29 8 29 26S542 0 524 0H68C39 2 32-28 47-50l418-602H66c-16 0-27-10-27-26 0-17 11-27 27-27h447c28-2 37 29 22 50L116-53h408" id="ao"/><g id="w"><use transform="matrix(0.015555555555555557,0,0,0.015555555555555557,0,0)" xlink:href="#W"/><use transform="matrix(0.015555555555555557,0,0,0.015555555555555557,9.924444444444445,0)" xlink:href="#X"/><use transform="matrix(0.015555555555555557,0,0,0.015555555555555557,20.533333333333335,0)" xlink:href="#S"/><use transform="matrix(0.015555555555555557,0,0,0.015555555555555557,24.32888888888889,0)" xlink:href="#O"/><use transform="matrix(0.015555555555555557,0,0,0.015555555555555557,36.10444444444445,0)" xlink:href="#X"/><use transform="matrix(0.015555555555555557,0,0,0.015555555555555557,46.71333333333334,0)" xlink:href="#S"/><use transform="matrix(0.015555555555555557,0,0,0.015555555555555557,50.5088888888889,0)" xlink:href="#R"/><use transform="matrix(0.015555555555555557,0,0,0.015555555555555557,59.686666666666675,0)" xlink:href="#S"/><use transform="matrix(0.015555555555555557,0,0,0.015555555555555557,63.482222222222234,0)" xlink:href="#ao"/><use transform="matrix(0.015555555555555557,0,0,0.015555555555555557,72.56666666666668,0)" xlink:href="#Z"/></g><g id="x"><use transform="matrix(0.015555555555555557,0,0,0.015555555555555557,0,0)" xlink:href="#O"/><use transform="matrix(0.015555555555555557,0,0,0.015555555555555557,11.775555555555556,0)" xlink:href="#W"/><use transform="matrix(0.015555555555555557,0,0,0.015555555555555557,21.700000000000003,0)" xlink:href="#W"/><use transform="matrix(0.015555555555555557,0,0,0.015555555555555557,31.48444444444445,0)" xlink:href="#O"/><use transform="matrix(0.015555555555555557,0,0,0.015555555555555557,43.260000000000005,0)" xlink:href="#X"/><use transform="matrix(0.015555555555555557,0,0,0.015555555555555557,53.55777777777779,0)" xlink:href="#R"/><use transform="matrix(0.015555555555555557,0,0,0.015555555555555557,62.735555555555564,0)" xlink:href="#Q"/><use transform="matrix(0.015555555555555557,0,0,0.015555555555555557,73.93555555555557,0)" xlink:href="#T"/><use transform="matrix(0.015555555555555557,0,0,0.015555555555555557,85.3688888888889,0)" xlink:href="#S"/><use transform="matrix(0.015555555555555557,0,0,0.015555555555555557,89.16444444444446,0)" xlink:href="#R"/><use transform="matrix(0.015555555555555557,0,0,0.015555555555555557,98.34222222222223,0)" xlink:href="#S"/><use transform="matrix(0.015555555555555557,0,0,0.015555555555555557,102.13777777777779,0)" xlink:href="#Z"/><use transform="matrix(0.015555555555555557,0,0,0.015555555555555557,110.98888888888891,0)" xlink:href="#N"/></g><g id="y"><use transform="matrix(0.015555555555555557,0,0,0.015555555555555557,0,0)" xlink:href="#ab"/><use transform="matrix(0.015555555555555557,0,0,0.015555555555555557,10.375555555555557,0)" xlink:href="#O"/><use transform="matrix(0.015555555555555557,0,0,0.015555555555555557,22.151111111111113,0)" xlink:href="#aa"/><use transform="matrix(0.015555555555555557,0,0,0.015555555555555557,35.21777777777778,0)" xlink:href="#W"/><use transform="matrix(0.015555555555555557,0,0,0.015555555555555557,45.14222222222223,0)" xlink:href="#Z"/><use transform="matrix(0.015555555555555557,0,0,0.015555555555555557,53.8688888888889,0)" xlink:href="#R"/><use transform="matrix(0.015555555555555557,0,0,0.015555555555555557,63.046666666666674,0)" xlink:href="#S"/><use transform="matrix(0.015555555555555557,0,0,0.015555555555555557,66.84222222222223,0)" xlink:href="#R"/><use transform="matrix(0.015555555555555557,0,0,0.015555555555555557,75.32000000000001,0)" xlink:href="#O"/><use transform="matrix(0.015555555555555557,0,0,0.015555555555555557,87.09555555555556,0)" xlink:href="#X"/></g><path fill="#34495e" d="M16-673c-18-32 39-54 54-21L341-81l270-613c10-34 69-13 54 21L374-17c-8 28-56 28-68 0" id="ap"/><g id="z"><use transform="matrix(0.015555555555555557,0,0,0.015555555555555557,0,0)" xlink:href="#X"/><use transform="matrix(0.015555555555555557,0,0,0.015555555555555557,10.60888888888889,0)" xlink:href="#Z"/><use transform="matrix(0.015555555555555557,0,0,0.015555555555555557,19.47555555555556,0)" xlink:href="#ap"/><use transform="matrix(0.015555555555555557,0,0,0.015555555555555557,30.053333333333338,0)" xlink:href="#S"/><use transform="matrix(0.015555555555555557,0,0,0.015555555555555557,33.848888888888894,0)" xlink:href="#Z"/><use transform="matrix(0.015555555555555557,0,0,0.015555555555555557,42.71555555555556,0)" xlink:href="#ad"/></g></defs></g></svg>