<svg xmlns="http://www.w3.org/2000/svg" xmlns:xlink="http://www.w3.org/1999/xlink" xmlns:lucid="lucid" width="1326" height="1088"><g transform="translate(-173 -186)" lucid:page-tab-id="VpcGDV08g5yA"><path d="M0 0h3456v1360H0z" fill="#fff"/><path d="M80 120h440v60H80z" stroke="#000" stroke-opacity="0" stroke-width="2" fill="#fff" fill-opacity="0"/><use xlink:href="#a" transform="matrix(1,0,0,1,85,125) translate(0 34.98296440972222)"/><use xlink:href="#b" transform="matrix(1,0,0,1,85,125) translate(71.56684027777779 34.98296440972222)"/><use xlink:href="#c" transform="matrix(1,0,0,1,85,125) translate(164.51063368055554 34.98296440972222)"/><use xlink:href="#d" transform="matrix(1,0,0,1,85,125) translate(219.68967013888889 34.98296440972222)"/><use xlink:href="#e" transform="matrix(1,0,0,1,85,125) translate(284.71571180555554 34.98296440972222)"/><use xlink:href="#f" transform="matrix(1,0,0,1,85,125) translate(314.45963541666663 34.98296440972222)"/><path d="M304.64 220c9.2 0 16.67 9.33 16.67 20.84 0 11.5-7.46 20.85-16.66 20.85H254.6c-9.2 0-16.66-9.35-16.66-20.86 0-11.5 7.46-20.84 16.67-20.84z" stroke="#333" fill="#fff"/><use xlink:href="#g" transform="matrix(1,0,0,1,242.93965737865665,225) translate(13.75021701388889 22.03461371527778)"/><path d="M998.96 1200c9.2 0 16.67 9.33 16.67 20.84 0 11.5-7.47 20.85-16.67 20.85h-50.03c-9.2 0-16.67-9.35-16.67-20.86 0-11.5 7.46-20.84 16.67-20.84z" stroke="#333" fill="#fff"/><use xlink:href="#h" transform="matrix(1,0,0,1,937.2590470754135,1205) translate(20.563368055555554 22.03461371527778)"/><path d="M200 365.66h159.25V477H200z" stroke="#333" fill="#fff"/><use xlink:href="#i" transform="matrix(1,0,0,1,205,370.65909107173354) translate(16.54513888888888 25.25889756944444)"/><use xlink:href="#j" transform="matrix(1,0,0,1,205,370.65909107173354) translate(54.40863715277778 25.25889756944444)"/><use xlink:href="#k" transform="matrix(1,0,0,1,205,370.65909107173354) translate(104.71354166666669 25.25889756944444)"/><use xlink:href="#l" transform="matrix(1,0,0,1,205,370.65909107173354) translate(15.967881944444436 46.44270833333333)"/><use xlink:href="#m" transform="matrix(1,0,0,1,205,370.65909107173354) translate(75.94184027777777 46.44270833333333)"/><use xlink:href="#n" transform="matrix(1,0,0,1,205,370.65909107173354) translate(22.79242621527778 67.62651909722223)"/><use xlink:href="#o" transform="matrix(1,0,0,1,205,370.65909107173354) translate(60.88378906250001 67.62651909722223)"/><use xlink:href="#p" transform="matrix(1,0,0,1,205,370.65909107173354) translate(111.46213107638889 67.62651909722223)"/><use xlink:href="#q" transform="matrix(1,0,0,1,205,370.65909107173354) translate(45.86751302083333 88.81032986111111)"/><path d="M416.63 546.14h159.25v111.34H416.63z" stroke="#333" fill="#fff"/><use xlink:href="#i" transform="matrix(1,0,0,1,421.63167786696965,551.1421388523573) translate(17.411024305555543 57.034613715277786)"/><use xlink:href="#r" transform="matrix(1,0,0,1,421.63167786696965,551.1421388523573) translate(55.27452256944444 57.034613715277786)"/><use xlink:href="#s" transform="matrix(1,0,0,1,421.63167786696965,551.1421388523573) translate(90.41124131944446 57.034613715277786)"/><path d="M492.67 372.26l65.42 49.07-65.43 49.06-65.42-49.07z" stroke="#333" fill="#fff"/><use xlink:href="#t" transform="matrix(1,0,0,1,432.2483277364181,377.25907384782323) translate(5.174479166666657 50.534613715277786)"/><use xlink:href="#u" transform="matrix(1,0,0,1,432.2483277364181,377.25907384782323) translate(40.44032118055555 50.534613715277786)"/><use xlink:href="#v" transform="matrix(1,0,0,1,432.2483277364181,377.25907384782323) translate(77.10373263888889 50.534613715277786)"/><path d="M360.25 421.33h49.78" stroke="#333" fill="none"/><path d="M360.26 421.83h-.5v-1h.5z" fill="#333"/><path d="M424.8 421.33l-14.27 4.63v-9.27z" stroke="#333" fill="#333"/><path d="M657.23 359.06h159.25V470.4H657.23z" stroke="#333" fill="#fff"/><use xlink:href="#i" transform="matrix(1,0,0,1,662.2347200442057,364.05910829564385) translate(9.515516493055543 57.034613715277786)"/><use xlink:href="#r" transform="matrix(1,0,0,1,662.2347200442057,364.05910829564385) translate(47.37901475694444 57.034613715277786)"/><use xlink:href="#w" transform="matrix(1,0,0,1,662.2347200442057,364.05910829564385) translate(82.51573350694446 57.034613715277786)"/><use xlink:href="#x" transform="matrix(1,0,0,1,662.2347200442057,364.05910829564385) translate(118.88292100694446 57.034613715277786)"/><path d="M640.35 420.85v1l-20.48-.02v-1zm-80.92.98v-1h36.36v1z" fill="#333"/><path d="M559.44 421.83h-1.18l.67-.5-.67-.5h1.18zM655.12 421.35l-14.27 4.63v-9.27z" fill="#333"/><path d="M656.73 421.35l-16.38 5.32v-10.65zm-15.38 3.94l12.15-3.95-12.15-3.95z" fill="#333"/><use xlink:href="#y" transform="matrix(1,0,0,1,595.787656651749,410.74344056272304) translate(0 16.626519097222225)"/><path d="M493.16 529.26h-1v-10.34h1zm0-31.52h-1v-26.22h1z" fill="#333"/><path d="M492.67 471.02l.5-.38v.9h-1v-.9zM492.66 544.02l-4.64-14.26h9.27z" fill="#333"/><path d="M492.66 545.64l-5.33-16.38h10.65zm-3.95-15.38l3.96 12.15 3.94-12.14z" fill="#333"/><use xlink:href="#z" transform="matrix(1,0,0,1,482.1013937276749,497.73778334624427) translate(0 16.626519097222225)"/><path d="M279.62 262.7v86.08" stroke="#333" fill="none"/><path d="M280.12 262.7h-1v-.5h1z" fill="#333"/><path d="M279.62 363.54L275 349.28h9.26z" stroke="#333" fill="#333"/><path d="M894.32 359.06h159.25V470.4H894.32z" stroke="#333" fill="#fff"/><use xlink:href="#i" transform="matrix(1,0,0,1,899.3193896967568,364.05910829564385) translate(15.2956814236111 46.442708333333336)"/><use xlink:href="#A" transform="matrix(1,0,0,1,899.3193896967568,364.05910829564385) translate(53.1591796875 46.442708333333336)"/><use xlink:href="#B" transform="matrix(1,0,0,1,899.3193896967568,364.05910829564385) translate(81.69542100694444 46.442708333333336)"/><use xlink:href="#C" transform="matrix(1,0,0,1,899.3193896967568,364.05910829564385) translate(99.21820746527779 46.442708333333336)"/><use xlink:href="#D" transform="matrix(1,0,0,1,899.3193896967568,364.05910829564385) translate(16.347656249999986 67.62651909722223)"/><use xlink:href="#r" transform="matrix(1,0,0,1,899.3193896967568,364.05910829564385) translate(48.11957465277777 67.62651909722223)"/><use xlink:href="#E" transform="matrix(1,0,0,1,899.3193896967568,364.05910829564385) translate(83.25629340277777 67.62651909722223)"/><path d="M817.48 414.73h59.96" stroke="#333" fill="none"/><path d="M817.5 415.23h-.52v-1h.52z" fill="#333"/><path d="M892.2 414.73l-14.26 4.63v-9.27z" stroke="#333" fill="#333"/><path d="M1097.53 359.06h159.25V470.4h-159.25z" stroke="#333" fill="#fff"/><use xlink:href="#F" transform="matrix(1,0,0,1,1102.534820827515,364.05910829564385) translate(12.010633680555543 46.442708333333336)"/><use xlink:href="#G" transform="matrix(1,0,0,1,1102.534820827515,364.05910829564385) translate(51.31727430555555 46.442708333333336)"/><use xlink:href="#H" transform="matrix(1,0,0,1,1102.534820827515,364.05910829564385) translate(87.01605902777777 46.442708333333336)"/><use xlink:href="#I" transform="matrix(1,0,0,1,1102.534820827515,364.05910829564385) translate(123.10221354166667 46.442708333333336)"/><use xlink:href="#J" transform="matrix(1,0,0,1,1102.534820827515,364.05910829564385) translate(15.899522569444429 67.62651909722223)"/><use xlink:href="#K" transform="matrix(1,0,0,1,1102.534820827515,364.05910829564385) translate(76.65581597222221 67.62651909722223)"/><path d="M1300.75 359.06H1460V470.4h-159.25z" stroke="#333" fill="#fff"/><use xlink:href="#L" transform="matrix(1,0,0,1,1305.750251958273,364.05910829564385) translate(5.672200520833329 25.25889756944444)"/><use xlink:href="#M" transform="matrix(1,0,0,1,1305.750251958273,364.05910829564385) translate(47.57649739583334 25.25889756944444)"/><use xlink:href="#N" transform="matrix(1,0,0,1,1305.750251958273,364.05910829564385) translate(85.68305121527779 25.25889756944444)"/><use xlink:href="#O" transform="matrix(1,0,0,1,1305.750251958273,364.05910829564385) translate(104.61100260416667 25.25889756944444)"/><use xlink:href="#D" transform="matrix(1,0,0,1,1305.750251958273,364.05910829564385) translate(16.408420138888886 46.44270833333333)"/><use xlink:href="#P" transform="matrix(1,0,0,1,1305.750251958273,364.05910829564385) translate(48.18033854166667 46.44270833333333)"/><use xlink:href="#Q" transform="matrix(1,0,0,1,1305.750251958273,364.05910829564385) translate(90.48719618055556 46.44270833333333)"/><use xlink:href="#R" transform="matrix(1,0,0,1,1305.750251958273,364.05910829564385) translate(120.10959201388889 46.44270833333333)"/><use xlink:href="#S" transform="matrix(1,0,0,1,1305.750251958273,364.05910829564385) translate(3.1884765625 67.62651909722223)"/><use xlink:href="#N" transform="matrix(1,0,0,1,1305.750251958273,364.05910829564385) translate(71.16807725694446 67.62651909722223)"/><use xlink:href="#T" transform="matrix(1,0,0,1,1305.750251958273,364.05910829564385) translate(90.09602864583334 67.62651909722223)"/><use xlink:href="#U" transform="matrix(1,0,0,1,1305.750251958273,364.05910829564385) translate(46.27766927083333 88.81032986111111)"/><path d="M1300.75 546.14H1460v111.34h-159.25z" stroke="#333" fill="#fff"/><g><use xlink:href="#i" transform="matrix(1,0,0,1,1305.750251958273,551.1421388523573) translate(1.8288845486111 35.850802951388886)"/><use xlink:href="#V" transform="matrix(1,0,0,1,1305.750251958273,551.1421388523573) translate(39.6923828125 35.850802951388886)"/><use xlink:href="#W" transform="matrix(1,0,0,1,1305.750251958273,551.1421388523573) translate(55.08843315972223 35.850802951388886)"/><use xlink:href="#I" transform="matrix(1,0,0,1,1305.750251958273,551.1421388523573) translate(133.28396267361114 35.850802951388886)"/><use xlink:href="#X" transform="matrix(1,0,0,1,1305.750251958273,551.1421388523573) translate(2.6226128472222143 57.034613715277786)"/><use xlink:href="#Y" transform="matrix(1,0,0,1,1305.750251958273,551.1421388523573) translate(35.40473090277777 57.034613715277786)"/><use xlink:href="#D" transform="matrix(1,0,0,1,1305.750251958273,551.1421388523573) translate(65.01953125 57.034613715277786)"/><use xlink:href="#G" transform="matrix(1,0,0,1,1305.750251958273,551.1421388523573) translate(96.79144965277779 57.034613715277786)"/><use xlink:href="#I" transform="matrix(1,0,0,1,1305.750251958273,551.1421388523573) translate(132.490234375 57.034613715277786)"/><use xlink:href="#Z" transform="matrix(1,0,0,1,1305.750251958273,551.1421388523573) translate(57.33289930555556 78.21842447916667)"/></g><path d="M894.32 546.14h159.25v111.34H894.32z" stroke="#333" fill="#fff"/><g><use xlink:href="#aa" transform="matrix(1,0,0,1,899.3193896967568,551.1421388523573) translate(7.5482855902777715 46.442708333333336)"/><use xlink:href="#ab" transform="matrix(1,0,0,1,899.3193896967568,551.1421388523573) translate(91.69867621527777 46.442708333333336)"/><use xlink:href="#ac" transform="matrix(1,0,0,1,899.3193896967568,551.1421388523573) translate(110.40635850694444 46.442708333333336)"/><use xlink:href="#ad" transform="matrix(1,0,0,1,899.3193896967568,551.1421388523573) translate(45.56749131944444 67.62651909722223)"/></g><path d="M894.32 714.7h159.25V826H894.32z" stroke="#333" fill="#fff"/><g><use xlink:href="#L" transform="matrix(1,0,0,1,899.3193896967568,719.6861127744706) translate(2.201063368055543 57.034613715277786)"/><use xlink:href="#ae" transform="matrix(1,0,0,1,899.3193896967568,719.6861127744706) translate(44.10536024305556 57.034613715277786)"/><use xlink:href="#af" transform="matrix(1,0,0,1,899.3193896967568,719.6861127744706) translate(97.27376302083334 57.034613715277786)"/></g><path d="M894.32 867.1h159.25v111.33H894.32z" stroke="#333" fill="#fff"/><g><use xlink:href="#i" transform="matrix(1,0,0,1,899.3193896967568,872.0976861225391) translate(18.30729166666665 46.442708333333336)"/><use xlink:href="#r" transform="matrix(1,0,0,1,899.3193896967568,872.0976861225391) translate(56.17078993055555 46.442708333333336)"/><use xlink:href="#ag" transform="matrix(1,0,0,1,899.3193896967568,872.0976861225391) translate(91.30750868055557 46.442708333333336)"/><use xlink:href="#af" transform="matrix(1,0,0,1,899.3193896967568,872.0976861225391) translate(49.73741319444444 67.62651909722223)"/></g><path d="M1054.57 414.73h26.08" stroke="#333" fill="none"/><path d="M1054.58 415.23h-.5v-1h.5z" fill="#333"/><path d="M1095.42 414.73l-14.27 4.63v-9.27z" stroke="#333" fill="#333"/><path d="M1257.78 414.73h26.1" stroke="#333" fill="none"/><path d="M1257.8 415.23h-.52v-1h.52z" fill="#333"/><path d="M1298.63 414.73l-14.26 4.63v-9.27z" stroke="#333" fill="#333"/><path d="M1380.38 471.4v57.86" stroke="#333" fill="none"/><path d="M1380.88 471.4h-1v-.5h1z" fill="#333"/><path d="M1380.38 544.02l-4.64-14.26h9.27z" stroke="#333" fill="#333"/><path d="M576.88 601.8h300.56" stroke="#333" fill="none"/><path d="M576.9 602.3h-.52v-1h.5z" fill="#333"/><path d="M892.2 601.8l-14.26 4.64v-9.27z" stroke="#333" fill="#333"/><path d="M1299.75 601.8h-229.3" stroke="#333" fill="none"/><path d="M1300.25 602.3h-.5v-1h.5z" fill="#333"/><path d="M1055.7 601.8l14.25-4.63v9.27z" stroke="#333" fill="#333"/><path d="M973.94 658.48v39.32" stroke="#333" fill="none"/><path d="M974.44 658.5h-1v-.52h1z" fill="#333"/><path d="M973.94 712.57l-4.63-14.27h9.28z" stroke="#333" fill="#333"/><path d="M973.94 827.02v23.2" stroke="#333" fill="none"/><path d="M974.44 827.03h-1v-.5h1z" fill="#333"/><path d="M973.94 864.98l-4.63-14.27h9.28z" stroke="#333" fill="#333"/><path d="M894.32 1019.5h159.25v111.34H894.32z" stroke="#333" fill="#fff"/><g><use xlink:href="#i" transform="matrix(1,0,0,1,899.3193896967568,1024.5092594706075) translate(2.2124565972222 25.25889756944444)"/><use xlink:href="#ah" transform="matrix(1,0,0,1,899.3193896967568,1024.5092594706075) translate(40.0759548611111 25.25889756944444)"/><use xlink:href="#B" transform="matrix(1,0,0,1,899.3193896967568,1024.5092594706075) translate(83.12717013888889 25.25889756944444)"/><use xlink:href="#ai" transform="matrix(1,0,0,1,899.3193896967568,1024.5092594706075) translate(100.64995659722223 25.25889756944444)"/><use xlink:href="#D" transform="matrix(1,0,0,1,899.3193896967568,1024.5092594706075) translate(11.558702256944429 46.44270833333333)"/><use xlink:href="#aj" transform="matrix(1,0,0,1,899.3193896967568,1024.5092594706075) translate(43.330620659722214 46.44270833333333)"/><use xlink:href="#ak" transform="matrix(1,0,0,1,899.3193896967568,1024.5092594706075) translate(102.6513671875 46.44270833333333)"/><use xlink:href="#al" transform="matrix(1,0,0,1,899.3193896967568,1024.5092594706075) translate(6.6482204861111 67.62651909722223)"/><use xlink:href="#ab" transform="matrix(1,0,0,1,899.3193896967568,1024.5092594706075) translate(42.27864583333333 67.62651909722223)"/><use xlink:href="#am" transform="matrix(1,0,0,1,899.3193896967568,1024.5092594706075) translate(60.986328125 67.62651909722223)"/><use xlink:href="#an" transform="matrix(1,0,0,1,899.3193896967568,1024.5092594706075) translate(112.05837673611113 67.62651909722223)"/><use xlink:href="#ao" transform="matrix(1,0,0,1,899.3193896967568,1024.5092594706075) translate(18.254123263888886 88.81032986111111)"/><use xlink:href="#ap" transform="matrix(1,0,0,1,899.3193896967568,1024.5092594706075) translate(57.01388888888889 88.81032986111111)"/><use xlink:href="#aq" transform="matrix(1,0,0,1,899.3193896967568,1024.5092594706075) translate(82.07139756944446 88.81032986111111)"/><use xlink:href="#ar" transform="matrix(1,0,0,1,899.3193896967568,1024.5092594706075) translate(109.87847222222223 88.81032986111111)"/></g><path d="M973.94 979.43v23.2" stroke="#333" fill="none"/><path d="M974.44 979.44h-1v-.5h1z" fill="#333"/><path d="M973.94 1017.4l-4.63-14.27h9.28z" stroke="#333" fill="#333"/><path d="M720 1034.97h123.92l16.08 16.08v64.33H720z" stroke="#d9be60" stroke-width="2" fill="#ffdf71"/><path d="M843.92 1034.97v16.08H860" fill="#d9be60"/><g><use xlink:href="#as" transform="matrix(1,0,0,1,725,1039.9692047743404) translate(50.025 17.5)"/><use xlink:href="#at" transform="matrix(1,0,0,1,725,1039.9692047743404) translate(11.274999999999991 39.1)"/><use xlink:href="#au" transform="matrix(1,0,0,1,725,1039.9692047743404) translate(65.225 39.1)"/><use xlink:href="#av" transform="matrix(1,0,0,1,725,1039.9692047743404) translate(38.25 60.7)"/></g><path d="M973.94 1131.84v51.28" stroke="#333" fill="none"/><path d="M974.44 1131.86h-1v-.52h1z" fill="#333"/><path d="M973.94 1197.88l-4.63-14.26h9.28z" stroke="#333" fill="#333"/><path d="M1220 1190.84h240v60h-240z" stroke="#000" stroke-opacity="0" fill="#fff" fill-opacity="0"/><g><use xlink:href="#aw" transform="matrix(1,0,0,1,1225,1195.8426083211034) translate(43.14561631944443 42.838541666666664)"/><use xlink:href="#ax" transform="matrix(1,0,0,1,1225,1195.8426083211034) translate(131.33897569444446 42.838541666666664)"/></g><defs><path fill="#333" d="M584-1331c-162 0-287 69-287 219 0 118 43 164 123 214 44 28 112 56 203 89 153 55 259 113 317 176s86 144 86 244c-1 276-228 409-520 409-173 0-307-22-400-67v-164c109 46 257 81 406 82 199 1 342-68 342-244 0-120-47-164-132-214-47-28-121-58-218-93-136-49-234-106-292-173s-87-154-87-261c-1-239 209-369 463-369 145 0 279 27 401 80l-53 148c-121-51-238-76-352-76" id="ay"/><path fill="#333" d="M690-1114c271 2 402 123 402 399V0H926v-709c-1-177-76-266-252-266-251 0-332 135-332 402V0H176v-1556h166c-4 200 8 426-8 612h10c61-100 187-171 346-170" id="az"/><path fill="#333" d="M588-1114c260 0 384 106 385 366V0H850l-33-156h-8C708-34 639 17 442 20 231 23 94-94 94-303c0-221 177-337 531-348l186-6c11-203-40-320-233-320-91 0-195 28-310 84l-51-127c97-53 229-94 371-94zM268-301c-1 123 81 184 207 184 203 0 334-120 332-323v-99c-257 14-539-7-539 238" id="aA"/><path fill="#333" d="M340-893c80-153 237-262 467-211l-23 154c-45-10-85-15-120-15-184-3-322 182-322 377V0H176v-1096h137l19 203h8" id="aB"/><path fill="#333" d="M995-51C878-2 799 19 639 20c-329 2-524-221-524-559 0-326 172-577 481-577 278 0 451 210 446 493v105H287c4 242 121 392 358 393 118 0 235-25 350-74v148zM864-653c2-195-85-324-270-324-190 0-288 139-303 324h573" id="aC"/><g id="a"><use transform="matrix(0.01193576388888889,0,0,0.01193576388888889,0,0)" xlink:href="#ay"/><use transform="matrix(0.01193576388888889,0,0,0.01193576388888889,13.415798611111112,0)" xlink:href="#az"/><use transform="matrix(0.01193576388888889,0,0,0.01193576388888889,28.419053819444446,0)" xlink:href="#aA"/><use transform="matrix(0.01193576388888889,0,0,0.01193576388888889,42.01388888888889,0)" xlink:href="#aB"/><use transform="matrix(0.01193576388888889,0,0,0.01193576388888889,51.50282118055556,0)" xlink:href="#aC"/></g><path fill="#333" d="M115-545c0-330 146-571 454-571 149 0 263 54 342 162h13c-20-185-8-401-11-602h166V0H944l-22-147h-9C836-36 722 20 569 20c-309 0-454-234-454-565zm172 2c0 249 78 424 303 424 257 0 327-150 323-426-4-282-68-432-325-432-220 0-301 191-301 434" id="aD"/><path fill="#333" d="M502-977c-130 0-238 32-238 139 0 75 39 101 95 134 33 19 97 46 192 81 130 48 217 95 263 143s69 108 69 181C883-73 695 20 449 20 304 20 190-3 109-49v-154c91 47 216 86 344 86 149 0 270-36 270-168 0-43-21-76-55-109-56-55-367-158-434-208-74-55-128-109-128-225 0-327 490-342 754-217l-59 135c-110-45-210-68-299-68" id="aE"/><path fill="#333" d="M342 0H176v-1096h166V0zm-82-1282c-61 0-98-43-98-111 0-69 36-110 98-110 59 0 98 43 98 110s-39 111-98 111" id="aF"/><path fill="#333" d="M125-741c0-247 161-377 414-375 57 0 109 7 155 20h379v105l-203 24c37 48 72 129 72 219 0 255-227 390-504 345-71 37-106 84-106 141 0 78 66 88 164 88h194c219-1 369 87 369 293 0 121-49 213-146 277s-239 96-426 96c-250 0-448-83-448-306C39 36 147-58 283-86c-52-23-102-79-99-152 4-104 57-143 133-192-107-42-192-164-192-311zM438-25c-143-1-242 70-239 209s131 181 290 181c139 0 242-21 309-63s101-98 101-169c0-147-88-158-262-158H438zm94-970c-158 0-243 88-243 250 0 153 93 233 246 233 162 0 243-79 243-236 0-165-82-247-246-247" id="aG"/><path fill="#333" d="M694-1116c270 0 399 125 398 401V0H926v-709c-1-177-76-266-252-266-250 0-332 133-332 400V0H176v-1096h135l27 150h8c62-101 190-170 348-170" id="aH"/><g id="b"><use transform="matrix(0.01193576388888889,0,0,0.01193576388888889,0,0)" xlink:href="#aD"/><use transform="matrix(0.01193576388888889,0,0,0.01193576388888889,14.979383680555557,0)" xlink:href="#aC"/><use transform="matrix(0.01193576388888889,0,0,0.01193576388888889,28.693576388888893,0)" xlink:href="#aE"/><use transform="matrix(0.01193576388888889,0,0,0.01193576388888889,40.354817708333336,0)" xlink:href="#aF"/><use transform="matrix(0.01193576388888889,0,0,0.01193576388888889,46.53754340277778,0)" xlink:href="#aG"/><use transform="matrix(0.01193576388888889,0,0,0.01193576388888889,59.929470486111114,0)" xlink:href="#aH"/><use transform="matrix(0.01193576388888889,0,0,0.01193576388888889,74.93272569444444,0)" xlink:href="#aE"/></g><path fill="#333" d="M1169-178c39-215 75-309 230-918h172L1268 0h-197c-99-332-184-548-272-911h-8C712-564 610-319 514 0H322L23-1096h174c71 275 124 485 161 629s59 241 64 291h8c76-328 186-611 279-920h180l196 629c37 115 63 211 76 289h8" id="aI"/><path fill="#333" d="M354-322c-2 123 60 204 176 205 51 1 114-10 150-20v127C647 7 557 20 506 20 294 20 188-92 188-315v-652H31v-80l157-69 70-234h96v254h318v129H354v645" id="aJ"/><g id="c"><use transform="matrix(0.01193576388888889,0,0,0.01193576388888889,0,0)" xlink:href="#aI"/><use transform="matrix(0.01193576388888889,0,0,0.01193576388888889,19.013671875,0)" xlink:href="#aF"/><use transform="matrix(0.01193576388888889,0,0,0.01193576388888889,25.19639756944444,0)" xlink:href="#aJ"/><use transform="matrix(0.01193576388888889,0,0,0.01193576388888889,33.825954861111114,0)" xlink:href="#az"/></g><path fill="#333" d="M1368-1116c259 2 372 131 371 401V0h-166v-713c0-168-66-262-230-262-221 0-303 131-303 363V0H874v-713c-1-169-66-262-231-262-235 0-301 142-301 400V0H176v-1096h135l27 150h8c56-99 174-170 324-170 171 0 283 62 336 186h8c60-108 189-187 354-186" id="aK"/><g id="d"><use transform="matrix(0.01193576388888889,0,0,0.01193576388888889,0,0)" xlink:href="#aJ"/><use transform="matrix(0.01193576388888889,0,0,0.01193576388888889,8.629557291666668,0)" xlink:href="#aC"/><use transform="matrix(0.01193576388888889,0,0,0.01193576388888889,22.34375,0)" xlink:href="#aA"/><use transform="matrix(0.01193576388888889,0,0,0.01193576388888889,35.93858506944444,0)" xlink:href="#aK"/></g><path fill="#333" d="M621-1116c316 0 501 239 501 567 0 339-180 575-508 569S119-212 115-549c-4-339 178-567 506-567zm-5 141c-239 0-329 168-329 426 0 255 93 430 331 430s332-174 332-430-95-426-334-426" id="aL"/><g id="e"><use transform="matrix(0.01193576388888889,0,0,0.01193576388888889,0,0)" xlink:href="#aJ"/><use transform="matrix(0.01193576388888889,0,0,0.01193576388888889,8.629557291666668,0)" xlink:href="#aL"/></g><path fill="#333" d="M516-150c94-315 146-423 332-946h178L610 0H416L0-1096h178c98 281 253 670 330 946h8" id="aM"/><g id="f"><use transform="matrix(0.01193576388888889,0,0,0.01193576388888889,0,0)" xlink:href="#aB"/><use transform="matrix(0.01193576388888889,0,0,0.01193576388888889,9.488932291666668,0)" xlink:href="#aC"/><use transform="matrix(0.01193576388888889,0,0,0.01193576388888889,22.713758680555557,0)" xlink:href="#aM"/><use transform="matrix(0.01193576388888889,0,0,0.01193576388888889,34.95985243055556,0)" xlink:href="#aF"/><use transform="matrix(0.01193576388888889,0,0,0.01193576388888889,41.142578125,0)" xlink:href="#aC"/><use transform="matrix(0.01193576388888889,0,0,0.01193576388888889,54.36740451388889,0)" xlink:href="#aI"/></g><path fill="#333" d="M596-1225c-134-8-223 103-163 219 11 21 33 41 61 60s93 53 196 102c137 65 230 130 281 196s76 147 76 242c-3 286-231 426-539 426C352 20 214-9 94-68v-288c159 68 260 115 438 120 123 3 211-41 211-155 0-73-44-105-95-141-63-46-329-160-390-220-78-77-147-167-147-315 0-273 208-420 495-416 177 2 298 46 434 103l-100 241c-131-51-199-78-344-86" id="aN"/><path fill="#333" d="M748 0H438v-1204H41v-258h1104v258H748V0" id="aO"/><path fill="#333" d="M1079 0L973-348H440L334 0H0l516-1468h379L1413 0h-334zM899-608c-127-415-146-457-192-633-22 85-85 296-189 633h381" id="aP"/><path fill="#333" d="M881-1016c0-191-181-195-387-192v395c210 7 387-9 387-203zm313-8c0 197-121 322-272 387 220 329 363 541 430 637h-344L659-561H494V0H184v-1462h426c360 1 584 108 584 438" id="aQ"/><g id="g"><use transform="matrix(0.007595486111111112,0,0,0.007595486111111112,0,0)" xlink:href="#aN"/><use transform="matrix(0.007595486111111112,0,0,0.007595486111111112,8.567708333333334,0)" xlink:href="#aO"/><use transform="matrix(0.007595486111111112,0,0,0.007595486111111112,16.48980034722222,0)" xlink:href="#aP"/><use transform="matrix(0.007595486111111112,0,0,0.007595486111111112,27.22222222222222,0)" xlink:href="#aQ"/><use transform="matrix(0.007595486111111112,0,0,0.007595486111111112,37.49131944444444,0)" xlink:href="#aO"/></g><path fill="#333" d="M1026 0H184v-1462h842v254H494v321h495v254H494v377h532V0" id="aR"/><path fill="#333" d="M1481 0h-394L451-1106h-9c33 431 14 683 19 1106H184v-1462h391l635 1095h7c-26-429-11-678-15-1095h279V0" id="aS"/><path fill="#333" d="M643-1462c464-5 754 260 754 717 0 491-297 749-799 745H184v-1462h459zm432 725c0-314-139-471-416-471H494v952h133c299 0 448-160 448-481" id="aT"/><g id="h"><use transform="matrix(0.007595486111111112,0,0,0.007595486111111112,0,0)" xlink:href="#aR"/><use transform="matrix(0.007595486111111112,0,0,0.007595486111111112,8.712022569444445,0)" xlink:href="#aS"/><use transform="matrix(0.007595486111111112,0,0,0.007595486111111112,21.358506944444446,0)" xlink:href="#aT"/></g><path fill="#333" d="M750-129c245 0 385-137 385-381v-952h170v946c3 336-225 536-566 536-344 0-553-202-553-540v-942h170v954c0 248 141 379 394 379" id="aU"/><g id="i"><use transform="matrix(0.007595486111111112,0,0,0.007595486111111112,0,0)" xlink:href="#aU"/><use transform="matrix(0.007595486111111112,0,0,0.007595486111111112,11.324869791666668,0)" xlink:href="#aE"/><use transform="matrix(0.007595486111111112,0,0,0.007595486111111112,18.745659722222225,0)" xlink:href="#aC"/><use transform="matrix(0.007595486111111112,0,0,0.007595486111111112,27.472873263888893,0)" xlink:href="#aB"/></g><g id="j"><use transform="matrix(0.007595486111111112,0,0,0.007595486111111112,0,0)" xlink:href="#aC"/><use transform="matrix(0.007595486111111112,0,0,0.007595486111111112,8.727213541666668,0)" xlink:href="#aH"/><use transform="matrix(0.007595486111111112,0,0,0.007595486111111112,18.274739583333336,0)" xlink:href="#aJ"/><use transform="matrix(0.007595486111111112,0,0,0.007595486111111112,23.76627604166667,0)" xlink:href="#aC"/><use transform="matrix(0.007595486111111112,0,0,0.007595486111111112,32.49348958333334,0)" xlink:href="#aB"/><use transform="matrix(0.007595486111111112,0,0,0.007595486111111112,38.84331597222223,0)" xlink:href="#aE"/></g><path fill="#333" d="M1036-1462h183L692 0H524L0-1462h180l336 946c39 109 69 214 92 317 24-108 55-216 94-323" id="aV"/><path fill="#333" d="M649-1462c450-4 719 268 719 717 0 484-276 748-762 745H201v-1462h448zM578-147c400 1 610-197 610-592 1-379-192-576-570-576H371v1168h207" id="aW"/><path fill="#333" d="M651 0H481v-1311H18v-151h1096v151H651V0" id="aX"/><g id="k"><use transform="matrix(0.007595486111111112,0,0,0.007595486111111112,0,0)" xlink:href="#aV"/><use transform="matrix(0.007595486111111112,0,0,0.007595486111111112,9.258897569444445,0)" xlink:href="#aW"/><use transform="matrix(0.007595486111111112,0,0,0.007595486111111112,20.135633680555557,0)" xlink:href="#aX"/></g><path fill="#333" d="M686 20c-159 0-273-61-344-161h-12L295 0H176v-1556h166c-2 198 6 423-8 606h8c77-109 192-164 344-164 310 0 455 234 455 565 0 329-147 569-455 569zm283-571c0-257-72-424-307-424-256 0-320 146-320 426s68 430 324 430c228 0 303-184 303-432" id="aY"/><g id="l"><use transform="matrix(0.007595486111111112,0,0,0.007595486111111112,0,0)" xlink:href="#aI"/><use transform="matrix(0.007595486111111112,0,0,0.007595486111111112,12.099609375000002,0)" xlink:href="#aC"/><use transform="matrix(0.007595486111111112,0,0,0.007595486111111112,20.82682291666667,0)" xlink:href="#aY"/><use transform="matrix(0.007595486111111112,0,0,0.007595486111111112,30.359157986111114,0)" xlink:href="#aE"/><use transform="matrix(0.007595486111111112,0,0,0.007595486111111112,37.77994791666667,0)" xlink:href="#aF"/><use transform="matrix(0.007595486111111112,0,0,0.007595486111111112,41.71440972222223,0)" xlink:href="#aJ"/><use transform="matrix(0.007595486111111112,0,0,0.007595486111111112,47.205946180555564,0)" xlink:href="#aC"/></g><path fill="#333" d="M563 20c-271 0-399-123-399-399v-717h168v711c1 177 76 266 252 266 250 0 331-135 331-401v-576h166V0H944l-24-147h-9C848-44 724 20 563 20" id="aZ"/><g id="m"><use transform="matrix(0.007595486111111112,0,0,0.007595486111111112,0,0)" xlink:href="#aJ"/><use transform="matrix(0.007595486111111112,0,0,0.007595486111111112,5.491536458333334,0)" xlink:href="#az"/><use transform="matrix(0.007595486111111112,0,0,0.007595486111111112,15.039062500000002,0)" xlink:href="#aB"/><use transform="matrix(0.007595486111111112,0,0,0.007595486111111112,21.077473958333336,0)" xlink:href="#aL"/><use transform="matrix(0.007595486111111112,0,0,0.007595486111111112,30.47309027777778,0)" xlink:href="#aZ"/><use transform="matrix(0.007595486111111112,0,0,0.007595486111111112,40.02061631944444,0)" xlink:href="#aG"/><use transform="matrix(0.007595486111111112,0,0,0.007595486111111112,48.542751736111114,0)" xlink:href="#az"/></g><g id="n"><use transform="matrix(0.007595486111111112,0,0,0.007595486111111112,0,0)" xlink:href="#aJ"/><use transform="matrix(0.007595486111111112,0,0,0.007595486111111112,5.491536458333334,0)" xlink:href="#az"/><use transform="matrix(0.007595486111111112,0,0,0.007595486111111112,15.039062500000002,0)" xlink:href="#aC"/><use transform="matrix(0.007595486111111112,0,0,0.007595486111111112,23.76627604166667,0)" xlink:href="#aF"/><use transform="matrix(0.007595486111111112,0,0,0.007595486111111112,27.70073784722223,0)" xlink:href="#aB"/></g><path fill="#333" d="M342 0H176v-1556h166V0" id="ba"/><path fill="#333" d="M1141-549c0 329-147 569-455 569-159 0-273-61-344-161h-12c23 199 7 418 12 633H176v-1588h135l23 150h8c77-108 175-170 344-170 311 0 455 237 455 567zm-172-2c0-242-88-424-307-424-256 0-323 154-320 426 3 280 68 430 324 430 213 0 303-196 303-432" id="bb"/><g id="o"><use transform="matrix(0.007595486111111112,0,0,0.007595486111111112,0,0)" xlink:href="#ba"/><use transform="matrix(0.007595486111111112,0,0,0.007595486111111112,3.934461805555556,0)" xlink:href="#aA"/><use transform="matrix(0.007595486111111112,0,0,0.007595486111111112,12.585720486111112,0)" xlink:href="#bb"/><use transform="matrix(0.007595486111111112,0,0,0.007595486111111112,22.118055555555557,0)" xlink:href="#aJ"/><use transform="matrix(0.007595486111111112,0,0,0.007595486111111112,27.609592013888893,0)" xlink:href="#aL"/><use transform="matrix(0.007595486111111112,0,0,0.007595486111111112,37.005208333333336,0)" xlink:href="#bb"/></g><g id="p"><use transform="matrix(0.007595486111111112,0,0,0.007595486111111112,0,0)" xlink:href="#aL"/><use transform="matrix(0.007595486111111112,0,0,0.007595486111111112,9.395616319444445,0)" xlink:href="#aB"/></g><path fill="#333" d="M340-561c134-179 332-366 485-535h197L578-629 1053 0H852L465-518 340-410V0H176v-1556h164c-4 336 9 669-8 995h8" id="bc"/><g id="q"><use transform="matrix(0.007595486111111112,0,0,0.007595486111111112,0,0)" xlink:href="#aD"/><use transform="matrix(0.007595486111111112,0,0,0.007595486111111112,9.532335069444445,0)" xlink:href="#aC"/><use transform="matrix(0.007595486111111112,0,0,0.007595486111111112,18.259548611111114,0)" xlink:href="#aE"/><use transform="matrix(0.007595486111111112,0,0,0.007595486111111112,25.68033854166667,0)" xlink:href="#bc"/><use transform="matrix(0.007595486111111112,0,0,0.007595486111111112,33.845486111111114,0)" xlink:href="#aJ"/><use transform="matrix(0.007595486111111112,0,0,0.007595486111111112,39.33702256944445,0)" xlink:href="#aL"/><use transform="matrix(0.007595486111111112,0,0,0.007595486111111112,48.73263888888889,0)" xlink:href="#bb"/></g><g id="r"><use transform="matrix(0.007595486111111112,0,0,0.007595486111111112,0,0)" xlink:href="#aJ"/><use transform="matrix(0.007595486111111112,0,0,0.007595486111111112,5.491536458333334,0)" xlink:href="#aA"/><use transform="matrix(0.007595486111111112,0,0,0.007595486111111112,14.142795138888891,0)" xlink:href="#bb"/><use transform="matrix(0.007595486111111112,0,0,0.007595486111111112,23.675130208333336,0)" xlink:href="#aE"/></g><path fill="#333" d="M184 0v-1462h310v1206h593V0H184" id="bd"/><path fill="#333" d="M633-893c-183 0-230 133-230 332s48 336 232 336c183 0 229-137 229-336s-47-332-231-332zm4-246c347 5 535 225 539 578S978 25 631 20C283 15 96-208 92-561c-4-355 196-583 545-578" id="be"/><path fill="#333" d="M549-1139c43 0 163 15 194 21h390v155l-175 45c32 50 48 106 48 168 2 289-261 415-574 373-89 78-53 146 121 146h190c229-1 375 93 377 311 0 131-55 232-164 304S691 492 487 492c-156 0-275-28-357-82S6 280 6 182C6 26 113-51 254-84c-55-22-119-89-117-162 3-107 68-140 144-190C169-483 89-600 90-756c1-259 185-383 459-383zM467 14c-100-2-199 51-197 144 3 184 368 146 487 90 62-30 93-71 93-123 0-42-19-70-55-87-64-30-222-23-328-24zm82-569c118 0 165-80 166-197 0-135-55-202-166-202-112 0-168 67-168 202 0 117 52 197 168 197" id="bf"/><path fill="#333" d="M479-1407c-1 99-61 150-166 150-111 0-166-50-166-150 0-99 55-149 166-149s166 50 166 149zM465 0H160v-1118h305V0" id="bg"/><path fill="#333" d="M795-1139c261-1 398 148 397 410V0H887v-653c-1-148-42-242-180-242-202 0-242 139-242 369V0H160v-1118h233l41 143h17c62-102 185-163 344-164" id="bh"/><g id="s"><use transform="matrix(0.007595486111111112,0,0,0.007595486111111112,0,0)" xlink:href="#bd"/><use transform="matrix(0.007595486111111112,0,0,0.007595486111111112,8.787977430555557,0)" xlink:href="#be"/><use transform="matrix(0.007595486111111112,0,0,0.007595486111111112,18.419053819444446,0)" xlink:href="#bf"/><use transform="matrix(0.007595486111111112,0,0,0.007595486111111112,27.207031250000004,0)" xlink:href="#bg"/><use transform="matrix(0.007595486111111112,0,0,0.007595486111111112,31.954210069444446,0)" xlink:href="#bh"/></g><path fill="#333" d="M371 0H201v-1462h815v151H371v535h606v151H371V0" id="bi"/><g id="t"><use transform="matrix(0.007595486111111112,0,0,0.007595486111111112,0,0)" xlink:href="#bi"/><use transform="matrix(0.007595486111111112,0,0,0.007595486111111112,8.028428819444445,0)" xlink:href="#aF"/><use transform="matrix(0.007595486111111112,0,0,0.007595486111111112,11.962890625,0)" xlink:href="#aB"/><use transform="matrix(0.007595486111111112,0,0,0.007595486111111112,18.31271701388889,0)" xlink:href="#aE"/><use transform="matrix(0.007595486111111112,0,0,0.007595486111111112,25.733506944444446,0)" xlink:href="#aJ"/></g><g id="u"><use transform="matrix(0.007595486111111112,0,0,0.007595486111111112,0,0)" xlink:href="#aJ"/><use transform="matrix(0.007595486111111112,0,0,0.007595486111111112,5.491536458333334,0)" xlink:href="#aF"/><use transform="matrix(0.007595486111111112,0,0,0.007595486111111112,9.42599826388889,0)" xlink:href="#aK"/><use transform="matrix(0.007595486111111112,0,0,0.007595486111111112,23.895399305555557,0)" xlink:href="#aC"/></g><path fill="#333" d="M422-1483c243 0 404 124 403 359 0 106-34 168-77 234-33 50-263 232-298 302-23 45-34 110-32 185H289c-6-219 43-297 170-406 91-77 147-134 171-173s36-85 36-140c-1-145-101-216-254-213-141 2-215 31-326 86l-59-135c126-66 258-99 395-99zM360 29c-77-1-120-48-120-135 0-91 40-136 120-136s121 52 121 136c0 81-43 136-121 135" id="bj"/><g id="v"><use transform="matrix(0.007595486111111112,0,0,0.007595486111111112,0,0)" xlink:href="#aZ"/><use transform="matrix(0.007595486111111112,0,0,0.007595486111111112,9.547526041666668,0)" xlink:href="#aE"/><use transform="matrix(0.007595486111111112,0,0,0.007595486111111112,16.968315972222225,0)" xlink:href="#aC"/><use transform="matrix(0.007595486111111112,0,0,0.007595486111111112,25.695529513888893,0)" xlink:href="#aB"/><use transform="matrix(0.007595486111111112,0,0,0.007595486111111112,32.045355902777786,0)" xlink:href="#bj"/></g><g id="w"><use transform="matrix(0.007595486111111112,0,0,0.007595486111111112,0,0)" xlink:href="#aN"/><use transform="matrix(0.007595486111111112,0,0,0.007595486111111112,8.567708333333334,0)" xlink:href="#bg"/><use transform="matrix(0.007595486111111112,0,0,0.007595486111111112,13.314887152777779,0)" xlink:href="#bf"/><use transform="matrix(0.007595486111111112,0,0,0.007595486111111112,22.102864583333336,0)" xlink:href="#bh"/></g><path fill="#333" d="M776-240c213 0 289-110 289-329v-893h309v946c-8 356-241 531-606 536-358 5-595-195-594-540v-942h309v895c2 220 76 327 293 327" id="bk"/><path fill="#333" d="M782-1139c293 0 422 256 422 578 0 230-70 418-202 512-65 46-141 69-228 69-131 0-234-48-309-143h-16c32 222 9 383 16 615H160v-1610h248l43 145h14c71-111 177-166 317-166zm111 574c0-190-40-330-209-330-184 0-221 128-219 332 2 209 40 336 223 336 137 0 205-113 205-338" id="bl"/><g id="x"><use transform="matrix(0.007595486111111112,0,0,0.007595486111111112,0,0)" xlink:href="#bk"/><use transform="matrix(0.007595486111111112,0,0,0.007595486111111112,11.757812500000002,0)" xlink:href="#bl"/></g><path fill="#333" d="M573-731l390-731h184L659-567V0H487v-559L0-1462h186" id="bm"/><g id="y"><use transform="matrix(0.007595486111111112,0,0,0.007595486111111112,0,0)" xlink:href="#bm"/><use transform="matrix(0.007595486111111112,0,0,0.007595486111111112,7.937282986111112,0)" xlink:href="#aC"/><use transform="matrix(0.007595486111111112,0,0,0.007595486111111112,16.66449652777778,0)" xlink:href="#aE"/></g><path fill="#333" d="M1198-240c-25-390-10-810-14-1222h159V0h-194L350-1227h-8c30 405 10 805 16 1227H201v-1462h192l797 1222h8" id="bn"/><g id="z"><use transform="matrix(0.007595486111111112,0,0,0.007595486111111112,0,0)" xlink:href="#bn"/><use transform="matrix(0.007595486111111112,0,0,0.007595486111111112,11.727430555555557,0)" xlink:href="#aL"/></g><path fill="#333" d="M575-1430c-169 0-190 146-184 334h279v129H391V0H225v-967H29v-75l196-60c-15-299 97-465 353-465 58 0 126 12 204 35l-43 133c-64-21-119-31-164-31" id="bo"/><g id="A"><use transform="matrix(0.007595486111111112,0,0,0.007595486111111112,0,0)" xlink:href="#bo"/><use transform="matrix(0.007595486111111112,0,0,0.007595486111111112,5.271267361111112,0)" xlink:href="#aF"/><use transform="matrix(0.007595486111111112,0,0,0.007595486111111112,9.205729166666668,0)" xlink:href="#ba"/><use transform="matrix(0.007595486111111112,0,0,0.007595486111111112,13.140190972222223,0)" xlink:href="#ba"/><use transform="matrix(0.007595486111111112,0,0,0.007595486111111112,17.07465277777778,0)" xlink:href="#aE"/></g><g id="B"><use transform="matrix(0.007595486111111112,0,0,0.007595486111111112,0,0)" xlink:href="#aF"/><use transform="matrix(0.007595486111111112,0,0,0.007595486111111112,3.934461805555556,0)" xlink:href="#aH"/></g><g id="C"><use transform="matrix(0.007595486111111112,0,0,0.007595486111111112,0,0)" xlink:href="#bo"/><use transform="matrix(0.007595486111111112,0,0,0.007595486111111112,5.271267361111112,0)" xlink:href="#aL"/><use transform="matrix(0.007595486111111112,0,0,0.007595486111111112,14.666883680555557,0)" xlink:href="#aB"/><use transform="matrix(0.007595486111111112,0,0,0.007595486111111112,21.016710069444446,0)" xlink:href="#aK"/></g><g id="D"><use transform="matrix(0.007595486111111112,0,0,0.007595486111111112,0,0)" xlink:href="#aA"/><use transform="matrix(0.007595486111111112,0,0,0.007595486111111112,8.651258680555557,0)" xlink:href="#aH"/><use transform="matrix(0.007595486111111112,0,0,0.007595486111111112,18.198784722222225,0)" xlink:href="#aD"/></g><g id="E"><use transform="matrix(0.007595486111111112,0,0,0.007595486111111112,0,0)" xlink:href="#aE"/><use transform="matrix(0.007595486111111112,0,0,0.007595486111111112,7.420789930555556,0)" xlink:href="#aZ"/><use transform="matrix(0.007595486111111112,0,0,0.007595486111111112,16.968315972222225,0)" xlink:href="#aY"/><use transform="matrix(0.007595486111111112,0,0,0.007595486111111112,26.50065104166667,0)" xlink:href="#aK"/><use transform="matrix(0.007595486111111112,0,0,0.007595486111111112,40.97005208333334,0)" xlink:href="#aF"/><use transform="matrix(0.007595486111111112,0,0,0.007595486111111112,44.9045138888889,0)" xlink:href="#aJ"/></g><path fill="#333" d="M1128-1036c0 321-241 464-585 461H371V0H201v-1462h379c365 0 548 142 548 426zm-176 8c0-218-150-286-391-287H371v594h153c270-3 428-62 428-307" id="bp"/><g id="F"><use transform="matrix(0.007595486111111112,0,0,0.007595486111111112,0,0)" xlink:href="#bp"/><use transform="matrix(0.007595486111111112,0,0,0.007595486111111112,9.365234375000002,0)" xlink:href="#aA"/><use transform="matrix(0.007595486111111112,0,0,0.007595486111111112,18.016493055555557,0)" xlink:href="#aG"/><use transform="matrix(0.007595486111111112,0,0,0.007595486111111112,26.538628472222225,0)" xlink:href="#aC"/></g><g id="G"><use transform="matrix(0.007595486111111112,0,0,0.007595486111111112,0,0)" xlink:href="#aA"/><use transform="matrix(0.007595486111111112,0,0,0.007595486111111112,8.651258680555557,0)" xlink:href="#aE"/><use transform="matrix(0.007595486111111112,0,0,0.007595486111111112,16.072048611111114,0)" xlink:href="#bc"/><use transform="matrix(0.007595486111111112,0,0,0.007595486111111112,24.237196180555557,0)" xlink:href="#aE"/></g><g id="H"><use transform="matrix(0.007595486111111112,0,0,0.007595486111111112,0,0)" xlink:href="#aZ"/><use transform="matrix(0.007595486111111112,0,0,0.007595486111111112,9.547526041666668,0)" xlink:href="#aE"/><use transform="matrix(0.007595486111111112,0,0,0.007595486111111112,16.968315972222225,0)" xlink:href="#aC"/><use transform="matrix(0.007595486111111112,0,0,0.007595486111111112,25.695529513888893,0)" xlink:href="#aB"/></g><g id="I"><use transform="matrix(0.007595486111111112,0,0,0.007595486111111112,0,0)" xlink:href="#aJ"/><use transform="matrix(0.007595486111111112,0,0,0.007595486111111112,5.491536458333334,0)" xlink:href="#aL"/></g><g id="J"><use transform="matrix(0.007595486111111112,0,0,0.007595486111111112,0,0)" xlink:href="#aM"/><use transform="matrix(0.007595486111111112,0,0,0.007595486111111112,7.792968750000001,0)" xlink:href="#aA"/><use transform="matrix(0.007595486111111112,0,0,0.007595486111111112,16.444227430555557,0)" xlink:href="#ba"/><use transform="matrix(0.007595486111111112,0,0,0.007595486111111112,20.378689236111114,0)" xlink:href="#aF"/><use transform="matrix(0.007595486111111112,0,0,0.007595486111111112,24.31315104166667,0)" xlink:href="#aD"/><use transform="matrix(0.007595486111111112,0,0,0.007595486111111112,33.845486111111114,0)" xlink:href="#aA"/><use transform="matrix(0.007595486111111112,0,0,0.007595486111111112,42.49674479166667,0)" xlink:href="#aJ"/><use transform="matrix(0.007595486111111112,0,0,0.007595486111111112,47.98828125000001,0)" xlink:href="#aC"/></g><path fill="#333" d="M287-543c-1 247 91 418 323 418 91 0 185-20 281-59v147C818 1 725 20 614 20c-329 0-499-221-499-561 0-349 172-575 510-575 96 0 221 26 282 57l-51 141c-61-25-157-50-235-51-223 0-334 142-334 426" id="bq"/><g id="K"><use transform="matrix(0.007595486111111112,0,0,0.007595486111111112,0,0)" xlink:href="#aA"/><use transform="matrix(0.007595486111111112,0,0,0.007595486111111112,8.651258680555557,0)" xlink:href="#bq"/><use transform="matrix(0.007595486111111112,0,0,0.007595486111111112,16.056857638888893,0)" xlink:href="#bq"/><use transform="matrix(0.007595486111111112,0,0,0.007595486111111112,23.46245659722223,0)" xlink:href="#aL"/><use transform="matrix(0.007595486111111112,0,0,0.007595486111111112,32.85807291666667,0)" xlink:href="#aZ"/><use transform="matrix(0.007595486111111112,0,0,0.007595486111111112,42.40559895833334,0)" xlink:href="#aH"/><use transform="matrix(0.007595486111111112,0,0,0.007595486111111112,51.953125000000014,0)" xlink:href="#aJ"/></g><g id="L"><use transform="matrix(0.007595486111111112,0,0,0.007595486111111112,0,0)" xlink:href="#aU"/><use transform="matrix(0.007595486111111112,0,0,0.007595486111111112,11.324869791666668,0)" xlink:href="#aE"/><use transform="matrix(0.007595486111111112,0,0,0.007595486111111112,18.745659722222225,0)" xlink:href="#aC"/><use transform="matrix(0.007595486111111112,0,0,0.007595486111111112,27.472873263888893,0)" xlink:href="#aB"/></g><g id="M"><use transform="matrix(0.007595486111111112,0,0,0.007595486111111112,0,0)" xlink:href="#aG"/><use transform="matrix(0.007595486111111112,0,0,0.007595486111111112,8.522135416666668,0)" xlink:href="#aL"/><use transform="matrix(0.007595486111111112,0,0,0.007595486111111112,17.917751736111114,0)" xlink:href="#aC"/><use transform="matrix(0.007595486111111112,0,0,0.007595486111111112,26.644965277777782,0)" xlink:href="#aE"/></g><g id="N"><use transform="matrix(0.007595486111111112,0,0,0.007595486111111112,0,0)" xlink:href="#aJ"/><use transform="matrix(0.007595486111111112,0,0,0.007595486111111112,5.491536458333334,0)" xlink:href="#aL"/></g><g id="O"><use transform="matrix(0.007595486111111112,0,0,0.007595486111111112,0,0)" xlink:href="#aC"/><use transform="matrix(0.007595486111111112,0,0,0.007595486111111112,8.727213541666668,0)" xlink:href="#aK"/><use transform="matrix(0.007595486111111112,0,0,0.007595486111111112,23.196614583333336,0)" xlink:href="#aA"/><use transform="matrix(0.007595486111111112,0,0,0.007595486111111112,31.847873263888893,0)" xlink:href="#aF"/><use transform="matrix(0.007595486111111112,0,0,0.007595486111111112,35.78233506944445,0)" xlink:href="#ba"/></g><g id="P"><use transform="matrix(0.007595486111111112,0,0,0.007595486111111112,0,0)" xlink:href="#bq"/><use transform="matrix(0.007595486111111112,0,0,0.007595486111111112,7.405598958333334,0)" xlink:href="#ba"/><use transform="matrix(0.007595486111111112,0,0,0.007595486111111112,11.34006076388889,0)" xlink:href="#aF"/><use transform="matrix(0.007595486111111112,0,0,0.007595486111111112,15.274522569444445,0)" xlink:href="#bq"/><use transform="matrix(0.007595486111111112,0,0,0.007595486111111112,22.68012152777778,0)" xlink:href="#bc"/><use transform="matrix(0.007595486111111112,0,0,0.007595486111111112,30.84526909722222,0)" xlink:href="#aE"/></g><g id="Q"><use transform="matrix(0.007595486111111112,0,0,0.007595486111111112,0,0)" xlink:href="#ba"/><use transform="matrix(0.007595486111111112,0,0,0.007595486111111112,3.934461805555556,0)" xlink:href="#aF"/><use transform="matrix(0.007595486111111112,0,0,0.007595486111111112,7.868923611111112,0)" xlink:href="#aH"/><use transform="matrix(0.007595486111111112,0,0,0.007595486111111112,17.41644965277778,0)" xlink:href="#bc"/></g><g id="R"><use transform="matrix(0.007595486111111112,0,0,0.007595486111111112,0,0)" xlink:href="#aF"/><use transform="matrix(0.007595486111111112,0,0,0.007595486111111112,3.934461805555556,0)" xlink:href="#aH"/></g><g id="S"><use transform="matrix(0.007595486111111112,0,0,0.007595486111111112,0,0)" xlink:href="#aK"/><use transform="matrix(0.007595486111111112,0,0,0.007595486111111112,14.469401041666668,0)" xlink:href="#aC"/><use transform="matrix(0.007595486111111112,0,0,0.007595486111111112,23.196614583333336,0)" xlink:href="#aE"/><use transform="matrix(0.007595486111111112,0,0,0.007595486111111112,30.617404513888893,0)" xlink:href="#aE"/><use transform="matrix(0.007595486111111112,0,0,0.007595486111111112,38.03819444444445,0)" xlink:href="#aA"/><use transform="matrix(0.007595486111111112,0,0,0.007595486111111112,46.68945312500001,0)" xlink:href="#aG"/><use transform="matrix(0.007595486111111112,0,0,0.007595486111111112,55.21158854166667,0)" xlink:href="#aC"/></g><g id="T"><use transform="matrix(0.007595486111111112,0,0,0.007595486111111112,0,0)" xlink:href="#aM"/><use transform="matrix(0.007595486111111112,0,0,0.007595486111111112,7.792968750000001,0)" xlink:href="#aA"/><use transform="matrix(0.007595486111111112,0,0,0.007595486111111112,16.444227430555557,0)" xlink:href="#ba"/><use transform="matrix(0.007595486111111112,0,0,0.007595486111111112,20.378689236111114,0)" xlink:href="#aF"/><use transform="matrix(0.007595486111111112,0,0,0.007595486111111112,24.31315104166667,0)" xlink:href="#aD"/><use transform="matrix(0.007595486111111112,0,0,0.007595486111111112,33.845486111111114,0)" xlink:href="#aA"/><use transform="matrix(0.007595486111111112,0,0,0.007595486111111112,42.49674479166667,0)" xlink:href="#aJ"/><use transform="matrix(0.007595486111111112,0,0,0.007595486111111112,47.98828125000001,0)" xlink:href="#aC"/></g><g id="U"><use transform="matrix(0.007595486111111112,0,0,0.007595486111111112,0,0)" xlink:href="#aA"/><use transform="matrix(0.007595486111111112,0,0,0.007595486111111112,8.651258680555557,0)" xlink:href="#bq"/><use transform="matrix(0.007595486111111112,0,0,0.007595486111111112,16.056857638888893,0)" xlink:href="#bq"/><use transform="matrix(0.007595486111111112,0,0,0.007595486111111112,23.46245659722223,0)" xlink:href="#aL"/><use transform="matrix(0.007595486111111112,0,0,0.007595486111111112,32.85807291666667,0)" xlink:href="#aZ"/><use transform="matrix(0.007595486111111112,0,0,0.007595486111111112,42.40559895833334,0)" xlink:href="#aH"/><use transform="matrix(0.007595486111111112,0,0,0.007595486111111112,51.953125000000014,0)" xlink:href="#aJ"/></g><g id="V"><use transform="matrix(0.007595486111111112,0,0,0.007595486111111112,0,0)" xlink:href="#aF"/><use transform="matrix(0.007595486111111112,0,0,0.007595486111111112,3.934461805555556,0)" xlink:href="#aE"/></g><g id="W"><use transform="matrix(0.007595486111111112,0,0,0.007595486111111112,0,0)" xlink:href="#aB"/><use transform="matrix(0.007595486111111112,0,0,0.007595486111111112,6.038411458333334,0)" xlink:href="#aC"/><use transform="matrix(0.007595486111111112,0,0,0.007595486111111112,14.765625000000002,0)" xlink:href="#aD"/><use transform="matrix(0.007595486111111112,0,0,0.007595486111111112,24.297960069444446,0)" xlink:href="#aF"/><use transform="matrix(0.007595486111111112,0,0,0.007595486111111112,28.232421875000004,0)" xlink:href="#aB"/><use transform="matrix(0.007595486111111112,0,0,0.007595486111111112,34.270833333333336,0)" xlink:href="#aC"/><use transform="matrix(0.007595486111111112,0,0,0.007595486111111112,42.998046875,0)" xlink:href="#bq"/><use transform="matrix(0.007595486111111112,0,0,0.007595486111111112,50.403645833333336,0)" xlink:href="#aJ"/><use transform="matrix(0.007595486111111112,0,0,0.007595486111111112,55.89518229166667,0)" xlink:href="#aC"/><use transform="matrix(0.007595486111111112,0,0,0.007595486111111112,64.62239583333334,0)" xlink:href="#aD"/></g><g id="X"><use transform="matrix(0.007595486111111112,0,0,0.007595486111111112,0,0)" xlink:href="#aV"/><use transform="matrix(0.007595486111111112,0,0,0.007595486111111112,9.258897569444445,0)" xlink:href="#aW"/><use transform="matrix(0.007595486111111112,0,0,0.007595486111111112,20.135633680555557,0)" xlink:href="#aX"/></g><g id="Y"><use transform="matrix(0.007595486111111112,0,0,0.007595486111111112,0,0)" xlink:href="#aE"/><use transform="matrix(0.007595486111111112,0,0,0.007595486111111112,7.420789930555556,0)" xlink:href="#aF"/><use transform="matrix(0.007595486111111112,0,0,0.007595486111111112,11.355251736111112,0)" xlink:href="#aJ"/><use transform="matrix(0.007595486111111112,0,0,0.007595486111111112,16.846788194444446,0)" xlink:href="#aC"/></g><g id="Z"><use transform="matrix(0.007595486111111112,0,0,0.007595486111111112,0,0)" xlink:href="#ba"/><use transform="matrix(0.007595486111111112,0,0,0.007595486111111112,3.934461805555556,0)" xlink:href="#aL"/><use transform="matrix(0.007595486111111112,0,0,0.007595486111111112,13.330078125,0)" xlink:href="#aG"/><use transform="matrix(0.007595486111111112,0,0,0.007595486111111112,21.852213541666668,0)" xlink:href="#aF"/><use transform="matrix(0.007595486111111112,0,0,0.007595486111111112,25.786675347222225,0)" xlink:href="#aH"/></g><g id="aa"><use transform="matrix(0.007595486111111112,0,0,0.007595486111111112,0,0)" xlink:href="#aW"/><use transform="matrix(0.007595486111111112,0,0,0.007595486111111112,11.34006076388889,0)" xlink:href="#aA"/><use transform="matrix(0.007595486111111112,0,0,0.007595486111111112,19.991319444444446,0)" xlink:href="#aE"/><use transform="matrix(0.007595486111111112,0,0,0.007595486111111112,27.412109375000004,0)" xlink:href="#az"/><use transform="matrix(0.007595486111111112,0,0,0.007595486111111112,36.95963541666667,0)" xlink:href="#aY"/><use transform="matrix(0.007595486111111112,0,0,0.007595486111111112,46.491970486111114,0)" xlink:href="#aL"/><use transform="matrix(0.007595486111111112,0,0,0.007595486111111112,55.88758680555556,0)" xlink:href="#aA"/><use transform="matrix(0.007595486111111112,0,0,0.007595486111111112,64.53884548611111,0)" xlink:href="#aB"/><use transform="matrix(0.007595486111111112,0,0,0.007595486111111112,70.57725694444444,0)" xlink:href="#aD"/></g><g id="ab"><use transform="matrix(0.007595486111111112,0,0,0.007595486111111112,0,0)" xlink:href="#aL"/><use transform="matrix(0.007595486111111112,0,0,0.007595486111111112,9.395616319444445,0)" xlink:href="#bo"/></g><g id="ac"><use transform="matrix(0.007595486111111112,0,0,0.007595486111111112,0,0)" xlink:href="#aZ"/><use transform="matrix(0.007595486111111112,0,0,0.007595486111111112,9.547526041666668,0)" xlink:href="#aE"/><use transform="matrix(0.007595486111111112,0,0,0.007595486111111112,16.968315972222225,0)" xlink:href="#aC"/><use transform="matrix(0.007595486111111112,0,0,0.007595486111111112,25.695529513888893,0)" xlink:href="#aB"/></g><g id="ad"><use transform="matrix(0.007595486111111112,0,0,0.007595486111111112,0,0)" xlink:href="#aA"/><use transform="matrix(0.007595486111111112,0,0,0.007595486111111112,8.651258680555557,0)" xlink:href="#bb"/><use transform="matrix(0.007595486111111112,0,0,0.007595486111111112,18.18359375,0)" xlink:href="#bb"/><use transform="matrix(0.007595486111111112,0,0,0.007595486111111112,27.715928819444443,0)" xlink:href="#aC"/><use transform="matrix(0.007595486111111112,0,0,0.007595486111111112,36.443142361111114,0)" xlink:href="#aA"/><use transform="matrix(0.007595486111111112,0,0,0.007595486111111112,45.09440104166667,0)" xlink:href="#aB"/><use transform="matrix(0.007595486111111112,0,0,0.007595486111111112,51.44422743055556,0)" xlink:href="#aE"/></g><g id="ae"><use transform="matrix(0.007595486111111112,0,0,0.007595486111111112,0,0)" xlink:href="#aE"/><use transform="matrix(0.007595486111111112,0,0,0.007595486111111112,7.420789930555556,0)" xlink:href="#aC"/><use transform="matrix(0.007595486111111112,0,0,0.007595486111111112,16.148003472222225,0)" xlink:href="#ba"/><use transform="matrix(0.007595486111111112,0,0,0.007595486111111112,20.082465277777782,0)" xlink:href="#aC"/><use transform="matrix(0.007595486111111112,0,0,0.007595486111111112,28.80967881944445,0)" xlink:href="#bq"/><use transform="matrix(0.007595486111111112,0,0,0.007595486111111112,36.215277777777786,0)" xlink:href="#aJ"/><use transform="matrix(0.007595486111111112,0,0,0.007595486111111112,41.70681423611112,0)" xlink:href="#aE"/></g><path fill="#333" d="M25 352c109-1 151-60 151-172v-1276h166V168c0 216-100 324-299 324-63 0-115-8-154-25V332c46 13 91 20 136 20zm235-1634c-61 0-98-43-98-111 0-69 36-110 98-110 59 0 98 43 98 110s-39 111-98 111" id="br"/><g id="af"><use transform="matrix(0.007595486111111112,0,0,0.007595486111111112,0,0)" xlink:href="#bb"/><use transform="matrix(0.007595486111111112,0,0,0.007595486111111112,9.532335069444445,0)" xlink:href="#aB"/><use transform="matrix(0.007595486111111112,0,0,0.007595486111111112,15.570746527777779,0)" xlink:href="#aL"/><use transform="matrix(0.007595486111111112,0,0,0.007595486111111112,24.96636284722222,0)" xlink:href="#br"/><use transform="matrix(0.007595486111111112,0,0,0.007595486111111112,28.90082465277778,0)" xlink:href="#aC"/><use transform="matrix(0.007595486111111112,0,0,0.007595486111111112,37.62803819444444,0)" xlink:href="#bq"/><use transform="matrix(0.007595486111111112,0,0,0.007595486111111112,45.03363715277778,0)" xlink:href="#aJ"/></g><g id="ag"><use transform="matrix(0.007595486111111112,0,0,0.007595486111111112,0,0)" xlink:href="#aE"/><use transform="matrix(0.007595486111111112,0,0,0.007595486111111112,7.420789930555556,0)" xlink:href="#az"/><use transform="matrix(0.007595486111111112,0,0,0.007595486111111112,16.968315972222225,0)" xlink:href="#aA"/><use transform="matrix(0.007595486111111112,0,0,0.007595486111111112,25.619574652777782,0)" xlink:href="#aB"/><use transform="matrix(0.007595486111111112,0,0,0.007595486111111112,31.657986111111114,0)" xlink:href="#aC"/></g><path fill="#333" d="M526-162c88-293 120-356 326-934h178L559 152c-47 123-102 209-163 262-93 80-237 94-380 61V342c184 39 305-9 367-180L444 6 2-1096h178c103 283 263 645 338 934h8" id="bs"/><g id="ah"><use transform="matrix(0.007595486111111112,0,0,0.007595486111111112,0,0)" xlink:href="#aJ"/><use transform="matrix(0.007595486111111112,0,0,0.007595486111111112,5.491536458333334,0)" xlink:href="#bs"/><use transform="matrix(0.007595486111111112,0,0,0.007595486111111112,13.330078125000002,0)" xlink:href="#bb"/><use transform="matrix(0.007595486111111112,0,0,0.007595486111111112,22.862413194444446,0)" xlink:href="#aC"/><use transform="matrix(0.007595486111111112,0,0,0.007595486111111112,31.589626736111114,0)" xlink:href="#aE"/></g><g id="ai"><use transform="matrix(0.007595486111111112,0,0,0.007595486111111112,0,0)" xlink:href="#aC"/><use transform="matrix(0.007595486111111112,0,0,0.007595486111111112,8.727213541666668,0)" xlink:href="#aK"/><use transform="matrix(0.007595486111111112,0,0,0.007595486111111112,23.196614583333336,0)" xlink:href="#aA"/><use transform="matrix(0.007595486111111112,0,0,0.007595486111111112,31.847873263888893,0)" xlink:href="#aF"/><use transform="matrix(0.007595486111111112,0,0,0.007595486111111112,35.78233506944445,0)" xlink:href="#ba"/><use transform="matrix(0.007595486111111112,0,0,0.007595486111111112,39.71679687500001,0)" xlink:href="#aE"/></g><g id="aj"><use transform="matrix(0.007595486111111112,0,0,0.007595486111111112,0,0)" xlink:href="#aD"/><use transform="matrix(0.007595486111111112,0,0,0.007595486111111112,9.532335069444445,0)" xlink:href="#aC"/><use transform="matrix(0.007595486111111112,0,0,0.007595486111111112,18.259548611111114,0)" xlink:href="#bq"/><use transform="matrix(0.007595486111111112,0,0,0.007595486111111112,25.66514756944445,0)" xlink:href="#aF"/><use transform="matrix(0.007595486111111112,0,0,0.007595486111111112,29.599609375000007,0)" xlink:href="#aD"/><use transform="matrix(0.007595486111111112,0,0,0.007595486111111112,39.13194444444445,0)" xlink:href="#aC"/><use transform="matrix(0.007595486111111112,0,0,0.007595486111111112,47.859157986111114,0)" xlink:href="#aE"/></g><g id="ak"><use transform="matrix(0.007595486111111112,0,0,0.007595486111111112,0,0)" xlink:href="#aI"/><use transform="matrix(0.007595486111111112,0,0,0.007595486111111112,12.099609375000002,0)" xlink:href="#az"/><use transform="matrix(0.007595486111111112,0,0,0.007595486111111112,21.64713541666667,0)" xlink:href="#aA"/><use transform="matrix(0.007595486111111112,0,0,0.007595486111111112,30.29839409722223,0)" xlink:href="#aJ"/></g><g id="al"><use transform="matrix(0.007595486111111112,0,0,0.007595486111111112,0,0)" xlink:href="#aJ"/><use transform="matrix(0.007595486111111112,0,0,0.007595486111111112,5.491536458333334,0)" xlink:href="#bs"/><use transform="matrix(0.007595486111111112,0,0,0.007595486111111112,13.330078125000002,0)" xlink:href="#bb"/><use transform="matrix(0.007595486111111112,0,0,0.007595486111111112,22.862413194444446,0)" xlink:href="#aC"/></g><g id="am"><use transform="matrix(0.007595486111111112,0,0,0.007595486111111112,0,0)" xlink:href="#aA"/><use transform="matrix(0.007595486111111112,0,0,0.007595486111111112,8.651258680555557,0)" xlink:href="#bq"/><use transform="matrix(0.007595486111111112,0,0,0.007595486111111112,16.056857638888893,0)" xlink:href="#bq"/><use transform="matrix(0.007595486111111112,0,0,0.007595486111111112,23.46245659722223,0)" xlink:href="#aC"/><use transform="matrix(0.007595486111111112,0,0,0.007595486111111112,32.1896701388889,0)" xlink:href="#aE"/><use transform="matrix(0.007595486111111112,0,0,0.007595486111111112,39.61046006944446,0)" xlink:href="#aE"/></g><g id="an"><use transform="matrix(0.007595486111111112,0,0,0.007595486111111112,0,0)" xlink:href="#aJ"/><use transform="matrix(0.007595486111111112,0,0,0.007595486111111112,5.491536458333334,0)" xlink:href="#az"/><use transform="matrix(0.007595486111111112,0,0,0.007595486111111112,15.039062500000002,0)" xlink:href="#aC"/><use transform="matrix(0.007595486111111112,0,0,0.007595486111111112,23.454861111111114,0)" xlink:href="#bs"/></g><g id="ao"><use transform="matrix(0.007595486111111112,0,0,0.007595486111111112,0,0)" xlink:href="#az"/><use transform="matrix(0.007595486111111112,0,0,0.007595486111111112,9.547526041666668,0)" xlink:href="#aA"/><use transform="matrix(0.007595486111111112,0,0,0.007595486111111112,18.198784722222225,0)" xlink:href="#aM"/><use transform="matrix(0.007595486111111112,0,0,0.007595486111111112,25.991753472222225,0)" xlink:href="#aC"/></g><g id="ap"><use transform="matrix(0.007595486111111112,0,0,0.007595486111111112,0,0)" xlink:href="#bo"/><use transform="matrix(0.007595486111111112,0,0,0.007595486111111112,5.271267361111112,0)" xlink:href="#aL"/><use transform="matrix(0.007595486111111112,0,0,0.007595486111111112,14.666883680555557,0)" xlink:href="#aB"/></g><g id="aq"><use transform="matrix(0.007595486111111112,0,0,0.007595486111111112,0,0)" xlink:href="#aJ"/><use transform="matrix(0.007595486111111112,0,0,0.007595486111111112,5.491536458333334,0)" xlink:href="#az"/><use transform="matrix(0.007595486111111112,0,0,0.007595486111111112,15.039062500000002,0)" xlink:href="#aC"/></g><g id="ar"><use transform="matrix(0.007595486111111112,0,0,0.007595486111111112,0,0)" xlink:href="#bo"/><use transform="matrix(0.007595486111111112,0,0,0.007595486111111112,5.271267361111112,0)" xlink:href="#aF"/><use transform="matrix(0.007595486111111112,0,0,0.007595486111111112,9.205729166666668,0)" xlink:href="#ba"/><use transform="matrix(0.007595486111111112,0,0,0.007595486111111112,13.140190972222223,0)" xlink:href="#aC"/></g><path d="M30 0v-248h187v28H63v79h144v27H63v87h162V0H30" id="bt"/><path d="M85-194c31 0 48 13 60 33l-1-100h32l1 261h-30c-2-10 0-23-3-31C134-8 116 4 85 4 32 4 16-35 15-94c0-66 23-100 70-100zm9 24c-40 0-46 34-46 75 0 40 6 74 45 74 42 0 51-32 51-76 0-42-9-74-50-73" id="bu"/><path d="M24-231v-30h32v30H24zM24 0v-190h32V0H24" id="bv"/><path d="M59-47c-2 24 18 29 38 22v24C64 9 27 4 27-40v-127H5v-23h24l9-43h21v43h35v23H59v120" id="bw"/><g id="as"><use transform="matrix(0.05,0,0,0.05,0,0)" xlink:href="#bt"/><use transform="matrix(0.05,0,0,0.05,12,0)" xlink:href="#bu"/><use transform="matrix(0.05,0,0,0.05,22,0)" xlink:href="#bv"/><use transform="matrix(0.05,0,0,0.05,25.950000000000003,0)" xlink:href="#bw"/></g><path d="M205 0l-28-72H64L36 0H1l101-248h38L239 0h-34zm-38-99l-47-123c-12 45-31 82-46 123h93" id="bx"/><path d="M96-169c-40 0-48 33-48 73s9 75 48 75c24 0 41-14 43-38l32 2c-6 37-31 61-74 61-59 0-76-41-82-99-10-93 101-131 147-64 4 7 5 14 7 22l-32 3c-4-21-16-35-41-35" id="by"/><path d="M108 0H70L1-190h34L89-25l56-165h34" id="bz"/><path d="M100-194c63 0 86 42 84 106H49c0 40 14 67 53 68 26 1 43-12 49-29l28 8c-11 28-37 45-77 45C44 4 14-33 15-96c1-61 26-98 85-98zm52 81c6-60-76-77-97-28-3 7-6 17-6 28h103" id="bA"/><g id="at"><use transform="matrix(0.05,0,0,0.05,0,0)" xlink:href="#bx"/><use transform="matrix(0.05,0,0,0.05,12,0)" xlink:href="#by"/><use transform="matrix(0.05,0,0,0.05,21,0)" xlink:href="#bw"/><use transform="matrix(0.05,0,0,0.05,26,0)" xlink:href="#bv"/><use transform="matrix(0.05,0,0,0.05,29.950000000000003,0)" xlink:href="#bz"/><use transform="matrix(0.05,0,0,0.05,38.95,0)" xlink:href="#bA"/></g><path d="M137 0h-34L2-248h35l83 218 83-218h36" id="bB"/><path d="M206 0h-36l-40-164L89 0H53L-1-190h32L70-26l43-164h34l41 164 42-164h31" id="bC"/><path d="M114-163C36-179 61-72 57 0H25l-1-190h30c1 12-1 29 2 39 6-27 23-49 58-41v29" id="bD"/><g id="au"><use transform="matrix(0.05,0,0,0.05,0,0)" xlink:href="#bB"/><use transform="matrix(0.05,0,0,0.05,11.65,0)" xlink:href="#bv"/><use transform="matrix(0.05,0,0,0.05,15.600000000000001,0)" xlink:href="#bA"/><use transform="matrix(0.05,0,0,0.05,25.6,0)" xlink:href="#bC"/><use transform="matrix(0.05,0,0,0.05,38.550000000000004,0)" xlink:href="#bA"/><use transform="matrix(0.05,0,0,0.05,48.550000000000004,0)" xlink:href="#bD"/></g><g id="av"><use transform="matrix(0.05,0,0,0.05,0,0)" xlink:href="#bB"/><use transform="matrix(0.05,0,0,0.05,11.65,0)" xlink:href="#bv"/><use transform="matrix(0.05,0,0,0.05,15.600000000000001,0)" xlink:href="#bA"/><use transform="matrix(0.05,0,0,0.05,25.6,0)" xlink:href="#bC"/><use transform="matrix(0.05,0,0,0.05,38.550000000000004,0)" xlink:href="#bA"/><use transform="matrix(0.05,0,0,0.05,48.550000000000004,0)" xlink:href="#bD"/></g><path fill="#34495e" d="M881-995c0-154-85-213-246-213H494v434h102c173 1 285-62 285-221zm-230-467c334-1 543 136 543 456 0 330-225 489-567 486H494V0H184v-1462h467" id="bE"/><path fill="#34495e" d="M618-1141c286 0 465 117 465 396V0H870l-59-152h-8C704-33 632 18 432 20 216 22 86-113 86-334c0-119 44-202 124-262 109-82 356-99 570-100 11-142-39-219-174-219-89 0-194 27-315 81l-101-206c129-67 271-101 428-101zm-71 938c137 0 235-88 233-223v-92c-190 3-382 4-381 186 0 86 49 129 148 129" id="bF"/><path fill="#34495e" d="M498-350c-2 85 52 126 133 127 53 0 117-12 192-35v227C747 3 654 20 543 20c-247 0-350-124-350-370v-539H47v-129l168-102 88-236h195v238h313v229H498v539" id="bG"/><path fill="#34495e" d="M836-686c0-141-77-236-213-236-140 0-206 98-215 236h428zm223 627C946-4 838 19 666 20 308 22 92-191 92-551c0-356 187-588 529-588 314 0 504 195 501 508v148H401c5 169 104 277 279 276 158-2 261-33 379-88v236" id="bH"/><path fill="#34495e" d="M795-1139c261-1 398 148 397 410V0H887v-653c-1-148-42-242-180-242-202 0-242 139-242 369V0H160v-1118h233l41 143h17c62-102 185-163 344-164" id="bI"/><g id="aw"><use transform="matrix(0.01193576388888889,0,0,0.01193576388888889,0,0)" xlink:href="#bE"/><use transform="matrix(0.01193576388888889,0,0,0.01193576388888889,15.349392361111112,0)" xlink:href="#bF"/><use transform="matrix(0.01193576388888889,0,0,0.01193576388888889,30.113932291666668,0)" xlink:href="#bG"/><use transform="matrix(0.01193576388888889,0,0,0.01193576388888889,40.72482638888889,0)" xlink:href="#bH"/><use transform="matrix(0.01193576388888889,0,0,0.01193576388888889,55.16710069444445,0)" xlink:href="#bI"/><use transform="matrix(0.01193576388888889,0,0,0.01193576388888889,71.2326388888889,0)" xlink:href="#bG"/></g><path fill="#34495e" d="M92-557c0-327 132-582 430-582 141 0 248 55 322 164h10c-38-188-18-371-23-581h306V0H903l-59-145h-13C762-35 656 20 514 20 222 20 92-237 92-557zm309 4c0 190 54 330 220 330 191 0 231-123 231-332 0-214-44-336-236-336-161 0-215 151-215 338" id="bJ"/><path fill="#34495e" d="M479-1407c-1 99-61 150-166 150-111 0-166-50-166-150 0-99 55-149 166-149s166 50 166 149zM465 0H160v-1118h305V0" id="bK"/><path fill="#34495e" d="M549-1139c43 0 163 15 194 21h390v155l-175 45c32 50 48 106 48 168 2 289-261 415-574 373-89 78-53 146 121 146h190c229-1 375 93 377 311 0 131-55 232-164 304S691 492 487 492c-156 0-275-28-357-82S6 280 6 182C6 26 113-51 254-84c-55-22-119-89-117-162 3-107 68-140 144-190C169-483 89-600 90-756c1-259 185-383 459-383zM467 14c-100-2-199 51-197 144 3 184 368 146 487 90 62-30 93-71 93-123 0-42-19-70-55-87-64-30-222-23-328-24zm82-569c118 0 165-80 166-197 0-135-55-202-166-202-112 0-168 67-168 202 0 117 52 197 168 197" id="bL"/><g id="ax"><use transform="matrix(0.01193576388888889,0,0,0.01193576388888889,0,0)" xlink:href="#bE"/><use transform="matrix(0.01193576388888889,0,0,0.01193576388888889,15.349392361111112,0)" xlink:href="#bH"/><use transform="matrix(0.01193576388888889,0,0,0.01193576388888889,29.791666666666668,0)" xlink:href="#bI"/><use transform="matrix(0.01193576388888889,0,0,0.01193576388888889,45.857204861111114,0)" xlink:href="#bJ"/><use transform="matrix(0.01193576388888889,0,0,0.01193576388888889,61.325954861111114,0)" xlink:href="#bK"/><use transform="matrix(0.01193576388888889,0,0,0.01193576388888889,68.78580729166667,0)" xlink:href="#bI"/><use transform="matrix(0.01193576388888889,0,0,0.01193576388888889,84.85134548611111,0)" xlink:href="#bL"/></g></defs></g></svg>