<svg version="1.1" viewBox="0.0 0.0 960.0 540.0" fill="none" stroke="none" stroke-linecap="square" stroke-miterlimit="10" xmlns:xlink="http://www.w3.org/1999/xlink" xmlns="http://www.w3.org/2000/svg"><clipPath id="p.0"><path d="m0 0l960.0 0l0 540.0l-960.0 0l0 -540.0z" clip-rule="nonzero"/></clipPath><g clip-path="url(#p.0)"><path fill="#000000" fill-opacity="0.0" d="m0 0l960.0 0l0 540.0l-960.0 0z" fill-rule="evenodd"/><path fill="#34495e" d="m-0.62992126 0l961.2599 0l0 387.62204l-961.2599 0z" fill-rule="evenodd"/><path fill="#000000" fill-opacity="0.0" d="m148.77165 222.87665l662.45667 0l0 134.51968l-662.45667 0z" fill-rule="evenodd"/><path fill="#ffffff" d="m231.292 225.16524l-21.640625 48.531235l-3.53125 0l-21.625 -48.531235l3.875 0l19.625 43.95311l19.609375 -43.95311l3.6875 0zm7.822769 0l3.546875 0l0 48.531235l-3.546875 0l0 -48.531235zm54.154907 48.531235l-11.578125 -16.21875q-2.5625 0.34375 -4.71875 0.34375l-13.859375 0l0 15.875l-3.546875 0l0 -48.531235l17.40625 0q9.15625 0 14.34375 4.34375q5.203125 4.328125 5.203125 12.015625q0 5.765625 -2.953125 9.6875q-2.9375 3.90625 -8.40625 5.4999847l12.125 16.984375l-4.015625 0zm-16.296875 -18.999985q7.765625 0 11.859375 -3.421875q4.09375 -3.4375 4.09375 -9.75q0 -6.3125 -4.09375 -9.734375q-4.09375 -3.4375 -11.859375 -3.4375l-13.859375 0l0 26.34375l13.859375 0zm41.113525 -26.34375l-17.46875 0l0 -3.1875l38.46875 0l0 3.1875l-17.46875 0l0 45.343735l-3.53125 0l0 -45.343735zm47.76416 45.687485q-9.21875 0 -14.3125 -5.328125q-5.09375 -5.34375 -5.09375 -15.60936l0 -27.9375l3.53125 0l0 27.796875q0 8.95311 4.09375 13.39061q4.09375 4.4375 11.84375 4.4375q7.703125 0 11.796875 -4.4375q4.09375 -4.4375 4.09375 -13.39061l0 -27.796875l3.53125 0l0 27.9375q0 10.26561 -5.140625 15.60936q-5.125 5.328125 -14.34375 5.328125zm64.968414 -14.0l-28.15625 0l-6.171875 13.65625l-3.8125 0l22.328125 -48.531235l3.53125 0l22.328125 48.531235l-3.8125 0l-6.234375 -13.65625zm-1.328125 -2.984375l-12.75 -27.999985l-12.6875 27.999985l25.4375 0zm20.173157 -31.89061l3.546875 0l0 45.343735l27.9375 0l0 3.1875l-31.484375 0l0 -48.531235zm58.374237 0l19.203094 0q7.5625 0 13.421875 3.125q5.859375 3.109375 9.109375 8.625q3.265625 5.515625 3.265625 12.515625q0 6.9999847 -3.265625 12.51561q-3.25 5.515625 -9.109375 8.640625q-5.859375 3.109375 -13.421875 3.109375l-19.203094 0l0 -48.531235zm18.93747 45.343735q6.71875 0 11.84375 -2.671875q5.140625 -2.671875 7.90625 -7.453125q2.78125 -4.7812347 2.78125 -10.95311q0 -6.171875 -2.78125 -10.953125q-2.765625 -4.78125 -7.90625 -7.453125q-5.125 -2.671875 -11.84375 -2.671875l-15.3905945 0l0 42.156235l15.3905945 0zm71.81189 0l0 3.1875l-33.484375 0l0 -48.531235l32.453125 0l0 3.1875l-28.90625 0l0 19.140625l25.859375 0l0 3.109375l-25.859375 0l0 19.906235l29.9375 0zm25.661682 3.53125q-5.34375 0 -10.171875 -1.828125q-4.8125 -1.84375 -7.515625 -4.75l1.59375 -2.640625q2.578125 2.703125 6.90625 4.40625q4.328125 1.703125 9.109375 1.703125q6.9375 0 10.46875 -2.640625q3.546875 -2.640625 3.546875 -6.859375q0 -3.265625 -1.875 -5.203125q-1.875 -1.9374847 -4.65625 -2.9687347q-2.765625 -1.046875 -7.484375 -2.15625q-5.328125 -1.328125 -8.5625 -2.5625q-3.21875 -1.25 -5.46875 -3.84375q-2.25 -2.609375 -2.25 -6.984375q0 -3.53125 1.859375 -6.46875q1.875 -2.953125 5.71875 -4.6875q3.859375 -1.734375 9.609375 -1.734375q4.015625 0 7.890625 1.1875q3.890625 1.171875 6.734375 3.171875l-1.3125 2.84375q-2.90625 -2.0 -6.421875 -3.03125q-3.5 -1.046875 -6.890625 -1.046875q-6.71875 0 -10.1875 2.703125q-3.46875 2.703125 -3.46875 7.0q0 3.25 1.859375 5.203125q1.875 1.9375 4.640625 2.984375q2.78125 1.03125 7.578125 2.203125q5.328125 1.328125 8.515625 2.578125q3.1875 1.234375 5.4375 3.765625q2.265625 2.5312347 2.265625 6.8281097q0 3.546875 -1.90625 6.453125q-1.90625 2.90625 -5.859375 4.640625q-3.953125 1.734375 -9.703125 1.734375zm29.4552 -48.874985l3.546875 0l0 48.531235l-3.546875 0l0 -48.531235zm55.123657 24.46875l3.390625 0l0 18.17186q-3.1875 3.046875 -7.734375 4.640625q-4.53125 1.59375 -9.59375 1.59375q-7.203125 0 -13.0 -3.1875q-5.78125 -3.1875 -9.078125 -8.796875q-3.296875 -5.625 -3.296875 -12.624985q0 -7.0 3.296875 -12.609375q3.296875 -5.625 9.078125 -8.8125q5.796875 -3.1875 13.0625 -3.1875q5.34375 0 9.8125 1.703125q4.46875 1.6875 7.671875 4.953125l-2.21875 2.359375q-3.0625 -3.0625 -6.84375 -4.40625q-3.765625 -1.359375 -8.34375 -1.359375q-6.234375 0 -11.265625 2.78125q-5.03125 2.765625 -7.875 7.65625q-2.84375 4.890625 -2.84375 10.921875q0 5.96875 2.875 10.85936q2.890625 4.875 7.875 7.6875q5.0 2.8125 11.234375 2.8125q8.3125 0 13.796875 -4.4375l0 -16.718735zm58.434387 -24.46875l0 48.531235l-2.90625 0l-33.0625 -42.156235l0 42.156235l-3.546875 0l0 -48.531235l2.984375 0l33.0 42.156235l0 -42.156235l3.53125 0z" fill-rule="nonzero"/><path fill="#ffffff" d="m335.9384 311.35272l-17.46875 0l0 -3.1875l38.46875 0l0 3.1875l-17.46875 0l0 45.34375l-3.53125 0l0 -45.34375zm69.25046 -3.1875l0 48.53125l-3.53125 0l0 -23.09375l-32.4375 0l0 23.09375l-3.546875 0l0 -48.53125l3.546875 0l0 22.328125l32.4375 0l0 -22.328125l3.53125 0zm50.401794 45.34375l0 3.1875l-33.484375 0l0 -48.53125l32.453125 0l0 3.1875l-28.90625 0l0 19.140625l25.859375 0l0 3.109375l-25.859375 0l0 19.90625l29.9375 0zm42.92737 -10.46875l-28.15625 0l-6.171875 13.65625l-3.8125 0l22.328125 -48.53125l3.53125 0l22.328125 48.53125l-3.8125 0l-6.234375 -13.65625zm-1.328125 -2.984375l-12.75 -28.0l-12.6875 28.0l25.4375 0zm27.043335 -28.703125l-17.46875 0l0 -3.1875l38.46875 0l0 3.1875l-17.46875 0l0 45.34375l-3.53125 0l0 -45.34375zm63.43799 45.34375l-11.578125 -16.21875q-2.5625 0.34375 -4.71875 0.34375l-13.859375 0l0 15.875l-3.546875 0l0 -48.53125l17.40625 0q9.15625 0 14.34375 4.34375q5.203125 4.328125 5.203125 12.015625q0 5.765625 -2.953125 9.6875q-2.9375 3.90625 -8.40625 5.5l12.125 16.984375l-4.015625 0zm-16.296875 -19.0q7.765625 0 11.859375 -3.421875q4.09375 -3.4375 4.09375 -9.75q0 -6.3125 -4.09375 -9.734375q-4.09375 -3.4375 -11.859375 -3.4375l-13.859375 0l0 26.34375l13.859375 0zm65.99432 15.8125l0 3.1875l-33.484375 0l0 -48.53125l32.453125 0l0 3.1875l-28.90625 0l0 19.140625l25.859375 0l0 3.109375l-25.859375 0l0 19.90625l29.9375 0z" fill-rule="nonzero"/><path fill="#000000" fill-opacity="0.0" d="m180.47244 396.90002l599.0552 0l0 65.07086l-599.0552 0z" fill-rule="evenodd"/><path fill="#5c6d7e" d="m277.086 429.4442l0 1.53125l-11.875 0l0 -16.796875l11.515625 0l0 1.53125l-9.734375 0l0 5.984375l8.6875 0l0 1.5l-8.6875 0l0 6.25l10.09375 0zm19.571564 -11.1875q2.375 0 3.71875 1.375q1.359375 1.359375 1.359375 4.03125l0 7.3125l-1.703125 0l0 -7.15625q0 -1.96875 -0.953125 -3.0q-0.9375 -1.03125 -2.671875 -1.03125q-1.96875 0 -3.09375 1.21875q-1.125 1.203125 -1.125 3.34375l0 6.625l-1.703125 0l0 -7.15625q0 -1.96875 -0.953125 -3.0q-0.9375 -1.03125 -2.703125 -1.03125q-1.9375 0 -3.078125 1.21875q-1.140625 1.203125 -1.140625 3.34375l0 6.625l-1.703125 0l0 -12.625l1.640625 0l0 2.3125q0.671875 -1.15625 1.859375 -1.78125q1.203125 -0.625 2.765625 -0.625q1.578125 0 2.734375 0.671875q1.171875 0.671875 1.75 1.984375q0.703125 -1.234375 2.0 -1.9375q1.3125 -0.71875 3.0 -0.71875zm25.463928 0q2.375 0 3.71875 1.375q1.359375 1.359375 1.359375 4.03125l0 7.3125l-1.703125 0l0 -7.15625q0 -1.96875 -0.953125 -3.0q-0.9375 -1.03125 -2.671875 -1.03125q-1.96875 0 -3.09375 1.21875q-1.125 1.203125 -1.125 3.34375l0 6.625l-1.703125 0l0 -7.15625q0 -1.96875 -0.953125 -3.0q-0.9375 -1.03125 -2.703125 -1.03125q-1.9375 0 -3.078125 1.21875q-1.140625 1.203125 -1.140625 3.34375l0 6.625l-1.703125 0l0 -12.625l1.640625 0l0 2.3125q0.671875 -1.15625 1.859375 -1.78125q1.203125 -0.625 2.765625 -0.625q1.578125 0 2.734375 0.671875q1.171875 0.671875 1.75 1.984375q0.703125 -1.234375 2.0 -1.9375q1.3125 -0.71875 3.0 -0.71875zm14.135803 0q2.46875 0 3.78125 1.234375q1.328125 1.234375 1.328125 3.65625l0 7.828125l-1.640625 0l0 -1.96875q-0.5625 0.984375 -1.6875 1.546875q-1.109375 0.546875 -2.65625 0.546875q-2.109375 0 -3.359375 -1.0q-1.25 -1.015625 -1.25 -2.671875q0 -1.609375 1.15625 -2.59375q1.171875 -0.984375 3.71875 -0.984375l4.015625 0l0 -0.765625q0 -1.640625 -0.921875 -2.484375q-0.90625 -0.859375 -2.65625 -0.859375q-1.203125 0 -2.3125 0.40625q-1.09375 0.390625 -1.890625 1.078125l-0.765625 -1.265625q0.953125 -0.8125 2.296875 -1.25q1.34375 -0.453125 2.84375 -0.453125zm-0.609375 11.5q1.4375 0 2.46875 -0.65625q1.046875 -0.671875 1.546875 -1.921875l0 -2.0625l-3.96875 0q-3.234375 0 -3.234375 2.265625q0 1.09375 0.84375 1.734375q0.84375 0.640625 2.34375 0.640625zm10.347473 -16.59375l1.703125 0l0 17.8125l-1.703125 0l0 -17.8125zm17.065338 5.1875l-6.3125 14.140625q-0.765625 1.765625 -1.78125 2.515625q-1.0 0.75 -2.421875 0.75q-0.90625 0 -1.703125 -0.296875q-0.796875 -0.28125 -1.359375 -0.859375l0.78125 -1.265625q0.96875 0.953125 2.3125 0.953125q0.859375 0 1.46875 -0.484375q0.609375 -0.46875 1.140625 -1.625l0.546875 -1.234375l-5.625 -12.59375l1.765625 0l4.75 10.734375l4.75 -10.734375l1.6875 0zm8.83609 -0.09375q2.375 0 3.765625 1.390625q1.40625 1.375 1.40625 4.015625l0 7.3125l-1.703125 0l0 -7.15625q0 -1.96875 -0.984375 -3.0q-0.984375 -1.03125 -2.796875 -1.03125q-2.046875 0 -3.234375 1.21875q-1.1875 1.203125 -1.1875 3.34375l0 6.625l-1.703125 0l0 -12.625l1.640625 0l0 2.328125q0.6875 -1.15625 1.921875 -1.78125q1.234375 -0.640625 2.875 -0.640625zm27.926575 12.71875l-3.828125 -5.40625q-0.65625 0.078125 -1.34375 0.078125l-4.515625 0l0 5.328125l-1.78125 0l0 -16.796875l6.296875 0q3.203125 0 5.03125 1.53125q1.828125 1.53125 1.828125 4.21875q0 1.96875 -1.0 3.328125q-1.0 1.359375 -2.84375 1.953125l4.109375 5.765625l-1.953125 0zm-5.234375 -6.84375q2.5 0 3.8125 -1.09375q1.328125 -1.109375 1.328125 -3.109375q0 -2.03125 -1.328125 -3.125q-1.3125 -1.09375 -3.8125 -1.09375l-4.453125 0l0 8.421875l4.453125 0zm15.060059 -5.875q2.46875 0 3.78125 1.234375q1.328125 1.234375 1.328125 3.65625l0 7.828125l-1.640625 0l0 -1.96875q-0.5625 0.984375 -1.6875 1.546875q-1.109375 0.546875 -2.65625 0.546875q-2.109375 0 -3.359375 -1.0q-1.25 -1.015625 -1.25 -2.671875q0 -1.609375 1.15625 -2.59375q1.171875 -0.984375 3.71875 -0.984375l4.015625 0l0 -0.765625q0 -1.640625 -0.921875 -2.484375q-0.90625 -0.859375 -2.65625 -0.859375q-1.203125 0 -2.3125 0.40625q-1.09375 0.390625 -1.890625 1.078125l-0.765625 -1.265625q0.953125 -0.8125 2.296875 -1.25q1.34375 -0.453125 2.84375 -0.453125zm-0.609375 11.5q1.4375 0 2.46875 -0.65625q1.046875 -0.671875 1.546875 -1.921875l0 -2.0625l-3.96875 0q-3.234375 0 -3.234375 2.265625q0 1.09375 0.84375 1.734375q0.84375 0.640625 2.34375 0.640625zm26.097473 -11.5q2.375 0 3.71875 1.375q1.359375 1.359375 1.359375 4.03125l0 7.3125l-1.703125 0l0 -7.15625q0 -1.96875 -0.953125 -3.0q-0.9375 -1.03125 -2.671875 -1.03125q-1.96875 0 -3.09375 1.21875q-1.125 1.203125 -1.125 3.34375l0 6.625l-1.703125 0l0 -7.15625q0 -1.96875 -0.953125 -3.0q-0.9375 -1.03125 -2.703125 -1.03125q-1.9375 0 -3.078125 1.21875q-1.140625 1.203125 -1.140625 3.34375l0 6.625l-1.703125 0l0 -12.625l1.640625 0l0 2.3125q0.671875 -1.15625 1.859375 -1.78125q1.203125 -0.625 2.765625 -0.625q1.578125 0 2.734375 0.671875q1.171875 0.671875 1.75 1.984375q0.703125 -1.234375 2.0 -1.9375q1.3125 -0.71875 3.0 -0.71875zm14.918182 12.84375q-1.8125 0 -3.28125 -0.828125q-1.46875 -0.828125 -2.3125 -2.296875q-0.828125 -1.46875 -0.828125 -3.3125q0 -1.84375 0.828125 -3.3125q0.84375 -1.46875 2.3125 -2.28125q1.46875 -0.8125 3.28125 -0.8125q1.828125 0 3.28125 0.8125q1.46875 0.8125 2.296875 2.28125q0.828125 1.46875 0.828125 3.3125q0 1.84375 -0.828125 3.3125q-0.828125 1.46875 -2.296875 2.296875q-1.453125 0.828125 -3.28125 0.828125zm0 -1.515625q1.34375 0 2.40625 -0.609375q1.078125 -0.609375 1.671875 -1.734375q0.609375 -1.140625 0.609375 -2.578125q0 -1.4375 -0.609375 -2.5625q-0.59375 -1.140625 -1.671875 -1.75q-1.0625 -0.609375 -2.40625 -0.609375q-1.34375 0 -2.40625 0.609375q-1.0625 0.609375 -1.6875 1.75q-0.609375 1.125 -0.609375 2.5625q0 1.4375 0.609375 2.578125q0.625 1.125 1.6875 1.734375q1.0625 0.609375 2.40625 0.609375zm13.282318 1.515625q-1.546875 0 -2.953125 -0.4375q-1.390625 -0.453125 -2.1875 -1.125l0.765625 -1.34375q0.796875 0.625 1.984375 1.015625q1.203125 0.390625 2.5 0.390625q1.734375 0 2.5625 -0.53125q0.828125 -0.546875 0.828125 -1.53125q0 -0.6875 -0.453125 -1.078125q-0.453125 -0.40625 -1.15625 -0.609375q-0.703125 -0.203125 -1.84375 -0.390625q-1.546875 -0.296875 -2.484375 -0.59375q-0.921875 -0.296875 -1.59375 -1.015625q-0.65625 -0.71875 -0.65625 -2.0q0 -1.578125 1.3125 -2.578125q1.328125 -1.015625 3.6875 -1.015625q1.21875 0 2.4375 0.328125q1.234375 0.3125 2.015625 0.84375l-0.734375 1.375q-1.5625 -1.078125 -3.71875 -1.078125q-1.640625 0 -2.46875 0.578125q-0.828125 0.5625 -0.828125 1.5q0 0.71875 0.46875 1.15625q0.46875 0.4375 1.15625 0.640625q0.703125 0.203125 1.9375 0.421875q1.5 0.28125 2.40625 0.578125q0.921875 0.28125 1.5625 0.984375q0.65625 0.6875 0.65625 1.90625q0 1.65625 -1.390625 2.640625q-1.375 0.96875 -3.8125 0.96875zm27.023956 0.140625l-2.328125 -2.40625q-2.140625 2.28125 -5.625 2.28125q-1.625 0 -2.921875 -0.53125q-1.28125 -0.546875 -2.0 -1.515625q-0.71875 -0.96875 -0.71875 -2.21875q0 -1.515625 0.953125 -2.71875q0.96875 -1.203125 3.28125 -2.515625q-1.203125 -1.25 -1.671875 -2.125q-0.453125 -0.875 -0.453125 -1.859375q0 -1.609375 1.15625 -2.59375q1.15625 -0.984375 3.09375 -0.984375q1.8125 0 2.859375 0.890625q1.0625 0.890625 1.0625 2.453125q0 1.234375 -0.84375 2.234375q-0.84375 1.0 -2.90625 2.203125l4.609375 4.75q0.765625 -1.375 1.125 -3.234375l1.390625 0.421875q-0.453125 2.265625 -1.484375 3.859375l2.40625 2.484375l-0.984375 1.125zm-7.234375 -15.90625q-1.25 0 -1.953125 0.625q-0.703125 0.609375 -0.703125 1.640625q0 0.75 0.375 1.421875q0.390625 0.671875 1.515625 1.828125q1.828125 -1.0625 2.515625 -1.796875q0.703125 -0.75 0.703125 -1.640625q0 -0.953125 -0.65625 -1.515625q-0.640625 -0.5625 -1.796875 -0.5625zm-0.625 14.375q2.796875 0 4.515625 -1.90625l-5.0625 -5.203125q-1.984375 1.125 -2.75 2.046875q-0.75 0.90625 -0.75 2.03125q0 1.375 1.109375 2.203125q1.125 0.828125 2.9375 0.828125zm18.172058 -15.53125l6.84375 0q2.65625 0 4.6875 1.078125q2.046875 1.0625 3.171875 2.96875q1.140625 1.90625 1.140625 4.34375q0 2.453125 -1.140625 4.359375q-1.125 1.90625 -3.171875 2.984375q-2.03125 1.0625 -4.6875 1.0625l-6.84375 0l0 -16.796875zm6.75 15.265625q2.203125 0 3.859375 -0.875q1.65625 -0.875 2.5625 -2.421875q0.921875 -1.5625 0.921875 -3.578125q0 -2.015625 -0.921875 -3.5625q-0.90625 -1.546875 -2.5625 -2.421875q-1.65625 -0.875 -3.859375 -0.875l-4.96875 0l0 13.734375l4.96875 0zm17.136414 -11.1875q2.46875 0 3.78125 1.234375q1.328125 1.234375 1.328125 3.65625l0 7.828125l-1.640625 0l0 -1.96875q-0.5625 0.984375 -1.6875 1.546875q-1.109375 0.546875 -2.65625 0.546875q-2.109375 0 -3.359375 -1.0q-1.25 -1.015625 -1.25 -2.671875q0 -1.609375 1.15625 -2.59375q1.171875 -0.984375 3.71875 -0.984375l4.015625 0l0 -0.765625q0 -1.640625 -0.921875 -2.484375q-0.90625 -0.859375 -2.65625 -0.859375q-1.203125 0 -2.3125 0.40625q-1.09375 0.390625 -1.890625 1.078125l-0.765625 -1.265625q0.953125 -0.8125 2.296875 -1.25q1.34375 -0.453125 2.84375 -0.453125zm-0.609375 11.5q1.4375 0 2.46875 -0.65625q1.046875 -0.671875 1.546875 -1.921875l0 -2.0625l-3.96875 0q-3.234375 0 -3.234375 2.265625q0 1.09375 0.84375 1.734375q0.84375 0.640625 2.34375 0.640625zm20.716858 -11.40625l-5.609375 12.625l-1.765625 0l-5.578125 -12.625l1.765625 0l4.734375 10.75l4.765625 -10.75l1.6875 0zm2.3985596 0l1.703125 0l0 12.625l-1.703125 0l0 -12.625zm0.859375 -2.765625q-0.53125 0 -0.890625 -0.359375q-0.359375 -0.359375 -0.359375 -0.859375q0 -0.484375 0.359375 -0.84375q0.359375 -0.359375 0.890625 -0.359375q0.53125 0 0.890625 0.359375q0.359375 0.34375 0.359375 0.828125q0 0.515625 -0.359375 0.875q-0.359375 0.359375 -0.890625 0.359375zm17.112244 -2.421875l0 17.8125l-1.625 0l0 -2.5q-0.765625 1.28125 -2.03125 1.953125q-1.265625 0.671875 -2.84375 0.671875q-1.78125 0 -3.21875 -0.8125q-1.4375 -0.828125 -2.25 -2.28125q-0.8125 -1.46875 -0.8125 -3.34375q0 -1.875 0.8125 -3.328125q0.8125 -1.46875 2.25 -2.265625q1.4375 -0.8125 3.21875 -0.8125q1.53125 0 2.765625 0.640625q1.25 0.625 2.03125 1.859375l0 -7.59375l1.703125 0zm-6.359375 16.421875q1.328125 0 2.390625 -0.609375q1.0625 -0.609375 1.671875 -1.734375q0.625 -1.140625 0.625 -2.578125q0 -1.4375 -0.625 -2.5625q-0.609375 -1.140625 -1.671875 -1.75q-1.0625 -0.609375 -2.390625 -0.609375q-1.34375 0 -2.40625 0.609375q-1.0625 0.609375 -1.6875 1.75q-0.609375 1.125 -0.609375 2.5625q0 1.4375 0.609375 2.578125q0.625 1.125 1.6875 1.734375q1.0625 0.609375 2.40625 0.609375zm29.231812 1.390625l-3.828125 -5.40625q-0.65625 0.078125 -1.34375 0.078125l-4.515625 0l0 5.328125l-1.78125 0l0 -16.796875l6.296875 0q3.203125 0 5.03125 1.53125q1.828125 1.53125 1.828125 4.21875q0 1.96875 -1.0 3.328125q-1.0 1.359375 -2.84375 1.953125l4.109375 5.765625l-1.953125 0zm-5.234375 -6.84375q2.5 0 3.8125 -1.09375q1.328125 -1.109375 1.328125 -3.109375q0 -2.03125 -1.328125 -3.125q-1.3125 -1.09375 -3.8125 -1.09375l-4.453125 0l0 8.421875l4.453125 0zm15.914429 6.96875q-1.8125 0 -3.28125 -0.828125q-1.46875 -0.828125 -2.3125 -2.296875q-0.828125 -1.46875 -0.828125 -3.3125q0 -1.84375 0.828125 -3.3125q0.84375 -1.46875 2.3125 -2.28125q1.46875 -0.8125 3.28125 -0.8125q1.828125 0 3.28125 0.8125q1.46875 0.8125 2.296875 2.28125q0.828125 1.46875 0.828125 3.3125q0 1.84375 -0.828125 3.3125q-0.828125 1.46875 -2.296875 2.296875q-1.453125 0.828125 -3.28125 0.828125zm0 -1.515625q1.34375 0 2.40625 -0.609375q1.078125 -0.609375 1.671875 -1.734375q0.609375 -1.140625 0.609375 -2.578125q0 -1.4375 -0.609375 -2.5625q-0.59375 -1.140625 -1.671875 -1.75q-1.0625 -0.609375 -2.40625 -0.609375q-1.34375 0 -2.40625 0.609375q-1.0625 0.609375 -1.6875 1.75q-0.609375 1.125 -0.609375 2.5625q0 1.4375 0.609375 2.578125q0.625 1.125 1.6875 1.734375q1.0625 0.609375 2.40625 0.609375zm21.407349 -16.421875l0 17.8125l-1.625 0l0 -2.5q-0.765625 1.28125 -2.03125 1.953125q-1.265625 0.671875 -2.84375 0.671875q-1.78125 0 -3.21875 -0.8125q-1.4375 -0.828125 -2.25 -2.28125q-0.8125 -1.46875 -0.8125 -3.34375q0 -1.875 0.8125 -3.328125q0.8125 -1.46875 2.25 -2.265625q1.4375 -0.8125 3.21875 -0.8125q1.53125 0 2.765625 0.640625q1.25 0.625 2.03125 1.859375l0 -7.59375l1.703125 0zm-6.359375 16.421875q1.328125 0 2.390625 -0.609375q1.0625 -0.609375 1.671875 -1.734375q0.625 -1.140625 0.625 -2.578125q0 -1.4375 -0.625 -2.5625q-0.609375 -1.140625 -1.671875 -1.75q-1.0625 -0.609375 -2.390625 -0.609375q-1.34375 0 -2.40625 0.609375q-1.0625 0.609375 -1.6875 1.75q-0.609375 1.125 -0.609375 2.5625q0 1.4375 0.609375 2.578125q0.625 1.125 1.6875 1.734375q1.0625 0.609375 2.40625 0.609375zm12.756348 -8.765625q0.59375 -1.265625 1.78125 -1.90625q1.1875 -0.65625 2.9375 -0.65625l0 1.65625l-0.40625 -0.03125q-1.984375 0 -3.125 1.234375q-1.125 1.21875 -1.125 3.421875l0 6.4375l-1.703125 0l0 -12.625l1.640625 0l0 2.46875zm7.791321 -2.46875l1.703125 0l0 12.625l-1.703125 0l0 -12.625zm0.859375 -2.765625q-0.53125 0 -0.890625 -0.359375q-0.359375 -0.359375 -0.359375 -0.859375q0 -0.484375 0.359375 -0.84375q0.359375 -0.359375 0.890625 -0.359375q0.53125 0 0.890625 0.359375q0.359375 0.34375 0.359375 0.828125q0 0.515625 -0.359375 0.875q-0.359375 0.359375 -0.890625 0.359375zm17.284119 2.765625l0 11.09375q0 3.21875 -1.578125 4.765625q-1.5625 1.546875 -4.734375 1.546875q-1.75 0 -3.328125 -0.515625q-1.5625 -0.515625 -2.546875 -1.4375l0.859375 -1.296875q0.90625 0.828125 2.21875 1.28125q1.3125 0.453125 2.75 0.453125q2.40625 0 3.53125 -1.125q1.125 -1.109375 1.125 -3.453125l0 -1.609375q-0.796875 1.1875 -2.078125 1.8125q-1.28125 0.625 -2.84375 0.625q-1.78125 0 -3.234375 -0.78125q-1.4375 -0.78125 -2.265625 -2.171875q-0.828125 -1.40625 -0.828125 -3.1875q0 -1.78125 0.828125 -3.171875q0.828125 -1.390625 2.265625 -2.15625q1.4375 -0.765625 3.234375 -0.765625q1.609375 0 2.90625 0.65625q1.296875 0.640625 2.09375 1.859375l0 -2.421875l1.625 0zm-6.453125 10.640625q1.359375 0 2.46875 -0.59375q1.109375 -0.59375 1.71875 -1.640625q0.609375 -1.0625 0.609375 -2.40625q0 -1.34375 -0.609375 -2.390625q-0.609375 -1.046875 -1.703125 -1.625q-1.09375 -0.59375 -2.484375 -0.59375q-1.375 0 -2.46875 0.578125q-1.078125 0.578125 -1.703125 1.640625q-0.609375 1.046875 -0.609375 2.390625q0 1.34375 0.609375 2.40625q0.625 1.046875 1.703125 1.640625q1.09375 0.59375 2.46875 0.59375zm22.604553 -10.640625l0 12.625l-1.625 0l0 -2.296875q-0.671875 1.140625 -1.859375 1.78125q-1.171875 0.640625 -2.6875 0.640625q-2.46875 0 -3.90625 -1.375q-1.421875 -1.390625 -1.421875 -4.046875l0 -7.328125l1.703125 0l0 7.15625q0 1.984375 0.984375 3.015625q0.984375 1.03125 2.8125 1.03125q2.0 0 3.140625 -1.203125q1.15625 -1.21875 1.15625 -3.375l0 -6.625l1.703125 0zm15.776978 6.84375l-10.5625 0q0.140625 1.96875 1.5 3.1875q1.375 1.203125 3.46875 1.203125q1.171875 0 2.15625 -0.421875q0.984375 -0.421875 1.703125 -1.234375l0.953125 1.109375q-0.828125 1.0 -2.09375 1.53125q-1.265625 0.53125 -2.765625 0.53125q-1.953125 0 -3.453125 -0.828125q-1.5 -0.828125 -2.34375 -2.296875q-0.828125 -1.46875 -0.828125 -3.3125q0 -1.84375 0.796875 -3.3125q0.8125 -1.46875 2.203125 -2.28125q1.40625 -0.8125 3.15625 -0.8125q1.765625 0 3.15625 0.8125q1.390625 0.8125 2.171875 2.265625q0.796875 1.453125 0.796875 3.328125l-0.015625 0.53125zm-6.109375 -5.46875q-1.8125 0 -3.0625 1.171875q-1.234375 1.15625 -1.390625 3.015625l8.953125 0q-0.171875 -1.859375 -1.40625 -3.015625q-1.234375 -1.171875 -3.09375 -1.171875zm18.391602 9.828125l0 1.421875l-10.265625 0l0 -1.125l7.9375 -10.0625l-7.796875 0l0 -1.4375l9.984375 0l0 1.125l-7.953125 10.078125l8.09375 0z" fill-rule="nonzero"/><path fill="#000000" fill-opacity="0.0" d="m322.51968 150.82939l314.9606 0l0 44.7874l-314.9606 0z" fill-rule="evenodd"/><path fill="#d6dade" d="m406.90125 183.26003q-2.078125 0 -4.0625 -0.46875q-1.984375 -0.46875 -3.25 -1.265625l1.828125 -4.125q1.203125 0.6875 2.6875 1.109375q1.484375 0.421875 2.859375 0.421875q1.171875 0 1.671875 -0.21875q0.5 -0.234375 0.5 -0.6875q0 -0.53125 -0.65625 -0.796875q-0.65625 -0.265625 -2.171875 -0.578125q-1.9375 -0.40625 -3.234375 -0.875q-1.296875 -0.46875 -2.265625 -1.53125q-0.953125 -1.078125 -0.953125 -2.890625q0 -1.59375 0.890625 -2.890625q0.890625 -1.296875 2.640625 -2.03125q1.765625 -0.75 4.296875 -0.75q1.71875 0 3.390625 0.375q1.671875 0.375 2.9375 1.09375l-1.703125 4.109375q-2.46875 -1.25 -4.671875 -1.25q-2.1875 0 -2.1875 1.046875q0 0.515625 0.640625 0.765625q0.65625 0.25 2.140625 0.53125q1.921875 0.359375 3.234375 0.828125q1.328125 0.46875 2.296875 1.53125q0.96875 1.046875 0.96875 2.875q0 1.578125 -0.890625 2.875q-0.875 1.28125 -2.640625 2.046875q-1.765625 0.75 -4.296875 0.75zm17.59607 -17.1875q2.328125 0 4.046875 0.765625q1.734375 0.765625 2.671875 2.203125q0.9375 1.4375 0.9375 3.359375q0 1.921875 -0.9375 3.375q-0.9375 1.4375 -2.671875 2.203125q-1.71875 0.765625 -4.046875 0.765625l-2.421875 0l0 4.125l-5.65625 0l0 -16.796875l8.078125 0zm-0.359375 8.296875q1.15625 0 1.734375 -0.515625q0.578125 -0.515625 0.578125 -1.453125q0 -0.9375 -0.578125 -1.453125q-0.578125 -0.515625 -1.734375 -0.515625l-2.0625 0l0 3.9375l2.0625 0zm17.0607 4.28125l-1.53125 0l0 4.21875l-5.65625 0l0 -16.796875l8.078125 0q2.328125 0 4.046875 0.765625q1.734375 0.765625 2.671875 2.203125q0.9375 1.4375 0.9375 3.359375q0 1.8125 -0.8125 3.15625q-0.8125 1.34375 -2.359375 2.125l3.53125 5.1875l-6.046875 0l-2.859375 -4.21875zm2.84375 -6.25q0 -0.9375 -0.578125 -1.453125q-0.578125 -0.515625 -1.734375 -0.515625l-2.0625 0l0 3.9375l2.0625 0q1.15625 0 1.734375 -0.515625q0.578125 -0.515625 0.578125 -1.453125zm7.848694 -6.328125l5.65625 0l0 16.796875l-5.65625 0l0 -16.796875zm24.946869 0l0 16.796875l-4.65625 0l-6.375 -7.625l0 7.625l-5.515625 0l0 -16.796875l4.65625 0l6.375 7.625l0 -7.625l5.515625 0zm13.858429 7.9375l4.921875 0l0 7.109375q-1.5 1.03125 -3.46875 1.59375q-1.96875 0.546875 -3.859375 0.546875q-2.6875 0 -4.828125 -1.109375q-2.125 -1.125 -3.34375 -3.125q-1.203125 -2.015625 -1.203125 -4.5625q0 -2.53125 1.203125 -4.53125q1.21875 -2.015625 3.390625 -3.125q2.171875 -1.125 4.90625 -1.125q2.46875 0 4.421875 0.828125q1.953125 0.828125 3.25 2.421875l-3.625 3.1875q-1.578125 -1.84375 -3.765625 -1.84375q-1.875 0 -2.984375 1.125q-1.09375 1.125 -1.09375 3.0625q0 1.90625 1.09375 3.0625q1.09375 1.140625 2.921875 1.140625q1.078125 0 2.0625 -0.40625l0 -4.25zm27.312164 4.46875l0 4.390625l-13.4687195 0l0 -3.484375l6.078125 -5.609375q0.78125 -0.75 1.046875 -1.265625q0.265625 -0.53125 0.265625 -1.046875q0 -0.625 -0.421875 -0.96875q-0.421875 -0.34375 -1.203125 -0.34375q-0.78125 0 -1.453125 0.40625q-0.671875 0.40625 -1.03125 1.15625l-4.265625 -2.140625q0.953125 -1.796875 2.796875 -2.84375q1.859375 -1.046875 4.46875 -1.046875q1.9999695 0 3.5312195 0.65625q1.546875 0.640625 2.40625 1.84375q0.859375 1.203125 0.859375 2.765625q0 1.390625 -0.59375 2.609375q-0.578125 1.203125 -2.28125 2.734375l-2.40625 2.1875l5.671875 0zm8.74823 4.78125q-2.21875 0 -3.9375 -1.046875q-1.71875 -1.046875 -2.6875 -3.015625q-0.96875 -1.984375 -0.96875 -4.734375q0 -2.734375 0.96875 -4.703125q0.96875 -1.984375 2.6875 -3.03125q1.71875 -1.046875 3.9375 -1.046875q2.234375 0 3.953125 1.046875q1.71875 1.046875 2.6875 3.03125q0.96875 1.96875 0.96875 4.703125q0 2.75 -0.96875 4.734375q-0.96875 1.96875 -2.6875 3.015625q-1.71875 1.046875 -3.953125 1.046875zm0 -4.546875q1.921875 0 1.921875 -4.25q0 -4.234375 -1.921875 -4.234375q-1.90625 0 -1.90625 4.234375q0 4.25 1.90625 4.25zm16.727356 -12.640625l0 16.796875l-5.65625 0l0 -12.53125l-2.875 0l0 -4.265625l8.53125 0zm8.485046 -0.390625q2.421875 0 4.234375 0.9375q1.8125 0.9375 2.8125 2.796875q1.015625 1.84375 1.015625 4.53125q0 2.875 -1.171875 4.984375q-1.15625 2.109375 -3.265625 3.21875q-2.09375 1.109375 -4.875 1.109375q-1.515625 0 -2.890625 -0.359375q-1.359375 -0.34375 -2.328125 -0.96875l2.046875 -3.953125q1.25 0.875 3.046875 0.875q1.46875 0 2.40625 -0.71875q0.953125 -0.734375 1.25 -2.125q-1.328125 0.9375 -3.34375 0.9375q-1.53125 0 -2.859375 -0.671875q-1.3125 -0.671875 -2.109375 -1.890625q-0.796875 -1.234375 -0.796875 -2.8125q0 -1.765625 0.90625 -3.109375q0.90625 -1.34375 2.453125 -2.0625q1.5625 -0.71875 3.46875 -0.71875zm0.375 7.34375q0.765625 0 1.25 -0.46875q0.484375 -0.46875 0.484375 -1.25q0 -0.796875 -0.484375 -1.25q-0.484375 -0.453125 -1.25 -0.453125q-0.765625 0 -1.25 0.453125q-0.46875 0.453125 -0.46875 1.25q0 0.78125 0.46875 1.25q0.484375 0.46875 1.25 0.46875z" fill-rule="nonzero"/></g></svg>