<svg xmlns="http://www.w3.org/2000/svg" xmlns:xlink="http://www.w3.org/1999/xlink" xmlns:lucid="lucid" width="1514" height="282"><g transform="translate(-154 -117)" lucid:page-tab-id="2avMV5DxdEH4"><path d="M0 0h1760v1360H0z" fill="#fff"/><path d="M180 197.8c0-1.65 1.34-3 3-3h244.28c1.66 0 3 1.35 3 3v114c0 1.66-1.34 3-3 3H183c-1.66 0-3-1.34-3-3z" stroke="#ccc" fill="#fff"/><use xlink:href="#a" transform="matrix(1,0,0,1,185,199.80388082226273) translate(22.382595486111114 47.814670138888886)"/><use xlink:href="#b" transform="matrix(1,0,0,1,185,199.80388082226273) translate(88.40907118055556 47.814670138888886)"/><use xlink:href="#c" transform="matrix(1,0,0,1,185,199.80388082226273) translate(118.03146701388889 47.814670138888886)"/><use xlink:href="#d" transform="matrix(1,0,0,1,185,199.80388082226273) translate(168.791015625 47.814670138888886)"/><use xlink:href="#e" transform="matrix(1,0,0,1,185,199.80388082226273) translate(203.23111979166666 47.814670138888886)"/><use xlink:href="#f" transform="matrix(1,0,0,1,185,199.80388082226273) translate(2.8079427083333286 78.07725694444444)"/><use xlink:href="#g" transform="matrix(1,0,0,1,185,199.80388082226273) translate(97.46940104166666 78.07725694444444)"/><use xlink:href="#h" transform="matrix(1,0,0,1,185,199.80388082226273) translate(185.18641493055554 78.07725694444444)"/><path d="M500 197.8c0-1.65 1.34-3 3-3h244.28c1.66 0 3 1.35 3 3v114c0 1.66-1.34 3-3 3H503c-1.66 0-3-1.34-3-3z" stroke="#ccc" fill="#fff"/><use xlink:href="#i" transform="matrix(1,0,0,1,505,199.80388082226273) translate(27.93272569444447 47.814670138888886)"/><use xlink:href="#j" transform="matrix(1,0,0,1,505,199.80388082226273) translate(87.74175347222224 47.814670138888886)"/><use xlink:href="#k" transform="matrix(1,0,0,1,505,199.80388082226273) translate(189.66232638888886 47.814670138888886)"/><use xlink:href="#l" transform="matrix(1,0,0,1,505,199.80388082226273) translate(77.21657986111111 78.07725694444444)"/><path d="M820 197.8c0-1.65 1.34-3 3-3h244.28c1.66 0 3 1.35 3 3v114c0 1.66-1.34 3-3 3H823c-1.66 0-3-1.34-3-3z" stroke="#ccc" fill="#fff"/><use xlink:href="#m" transform="matrix(1,0,0,1,825,199.80388082226273) translate(27.72113715277777 34.064670138888886)"/><use xlink:href="#n" transform="matrix(1,0,0,1,825,199.80388082226273) translate(122.794921875 34.064670138888886)"/><use xlink:href="#o" transform="matrix(1,0,0,1,825,199.80388082226273) translate(48.494791666666686 64.32725694444444)"/><use xlink:href="#p" transform="matrix(1,0,0,1,825,199.80388082226273) translate(150.41536458333331 64.32725694444444)"/><use xlink:href="#q" transform="matrix(1,0,0,1,825,199.80388082226273) translate(69.82183159722223 94.58984375)"/><path d="M751.28 254.8h51.84" stroke="#ccc" fill="none"/><path d="M751.3 255.3h-.52v-1h.5z" fill="#ccc"/><path d="M817.88 254.8l-14.26 4.64v-9.27z" stroke="#ccc" fill="#ccc"/><path d="M1400 197.8c0-1.65 1.34-3 3-3h244.28c1.66 0 3 1.35 3 3v114c0 1.66-1.34 3-3 3H1403c-1.66 0-3-1.34-3-3z" stroke="#ccc" fill="#fff"/><use xlink:href="#r" transform="matrix(1,0,0,1,1405,199.80388082226273) translate(38.14322916666666 47.814670138888886)"/><use xlink:href="#s" transform="matrix(1,0,0,1,1405,199.80388082226273) translate(94.97916666666666 47.814670138888886)"/><use xlink:href="#t" transform="matrix(1,0,0,1,1405,199.80388082226273) translate(153.75737847222223 47.814670138888886)"/><use xlink:href="#u" transform="matrix(1,0,0,1,1405,199.80388082226273) translate(64.3693576388889 78.07725694444444)"/><path d="M1071.28 254.8h311.84" stroke="#ccc" fill="none"/><path d="M1071.3 255.3h-.52v-1h.5z" fill="#ccc"/><path d="M1397.88 254.8l-14.26 4.64v-9.27z" stroke="#ccc" fill="#ccc"/><path d="M325.14 160c0 11.05-8.95 20-20 20s-20-8.95-20-20 8.95-20 20-20 20 8.95 20 20z" fill="#3aa6dd"/><g><use xlink:href="#v" transform="matrix(1,0,0,1,290.13998126519846,145) translate(9.605 22.072999999999997)"/></g><path d="M431.28 254.8h51.84" stroke="#ccc" fill="none"/><path d="M431.3 255.3h-.52v-1h.5z" fill="#ccc"/><path d="M497.88 254.8l-14.26 4.64v-9.27z" stroke="#ccc" fill="#ccc"/><path d="M645.14 160c0 11.05-8.95 20-20 20s-20-8.95-20-20 8.95-20 20-20 20 8.95 20 20z" fill="#3aa6dd"/><g><use xlink:href="#w" transform="matrix(1,0,0,1,610.1399812651798,145) translate(9.596 22.072999999999997)"/></g><path d="M965.14 160c0 11.05-8.95 20-20 20s-20-8.95-20-20 8.95-20 20-20 20 8.95 20 20z" fill="#3aa6dd"/><g><use xlink:href="#x" transform="matrix(1,0,0,1,930.1399812651798,145) translate(9.605 22.072999999999997)"/></g><path d="M1538.5 160c0 11.05-8.96 20-20 20-11.05 0-20-8.95-20-20s8.95-20 20-20c11.04 0 20 8.95 20 20z" fill="#3aa6dd"/><g><use xlink:href="#y" transform="matrix(1,0,0,1,1503.4912957234774,145) translate(9.605 22.072999999999997)"/></g><path d="M625.14 331.7V380h320v-64.2" stroke="#ccc" fill="none"/><path d="M625.14 316.92l4.64 14.27h-9.28z" stroke="#ccc" fill="#ccc"/><path d="M945.64 315.82h-1v-.52h1z" fill="#ccc"/><defs><path fill="#666" d="M184 0v-1462h310v1206h593V0H184" id="z"/><path fill="#666" d="M633-893c-183 0-230 133-230 332s48 336 232 336c183 0 229-137 229-336s-47-332-231-332zm4-246c347 5 535 225 539 578S978 25 631 20C283 15 96-208 92-561c-4-355 196-583 545-578" id="A"/><path fill="#666" d="M549-1139c43 0 163 15 194 21h390v155l-175 45c32 50 48 106 48 168 2 289-261 415-574 373-89 78-53 146 121 146h190c229-1 375 93 377 311 0 131-55 232-164 304S691 492 487 492c-156 0-275-28-357-82S6 280 6 182C6 26 113-51 254-84c-55-22-119-89-117-162 3-107 68-140 144-190C169-483 89-600 90-756c1-259 185-383 459-383zM467 14c-100-2-199 51-197 144 3 184 368 146 487 90 62-30 93-71 93-123 0-42-19-70-55-87-64-30-222-23-328-24zm82-569c118 0 165-80 166-197 0-135-55-202-166-202-112 0-168 67-168 202 0 117 52 197 168 197" id="B"/><path fill="#666" d="M479-1407c-1 99-61 150-166 150-111 0-166-50-166-150 0-99 55-149 166-149s166 50 166 149zM465 0H160v-1118h305V0" id="C"/><path fill="#666" d="M795-1139c261-1 398 148 397 410V0H887v-653c-1-148-42-242-180-242-202 0-242 139-242 369V0H160v-1118h233l41 143h17c62-102 185-163 344-164" id="D"/><g id="a"><use transform="matrix(0.010850694444444444,0,0,0.010850694444444444,0,0)" xlink:href="#z"/><use transform="matrix(0.010850694444444444,0,0,0.010850694444444444,12.554253472222221,0)" xlink:href="#A"/><use transform="matrix(0.010850694444444444,0,0,0.010850694444444444,26.31293402777778,0)" xlink:href="#B"/><use transform="matrix(0.010850694444444444,0,0,0.010850694444444444,38.8671875,0)" xlink:href="#C"/><use transform="matrix(0.010850694444444444,0,0,0.010850694444444444,45.64887152777778,0)" xlink:href="#D"/></g><path fill="#666" d="M451-930c71-134 228-244 436-200l-23 286c-220-45-399 61-399 275V0H160v-1118h231l45 188h15" id="E"/><g id="b"><use transform="matrix(0.010850694444444444,0,0,0.010850694444444444,0,0)" xlink:href="#A"/><use transform="matrix(0.010850694444444444,0,0,0.010850694444444444,13.758680555555555,0)" xlink:href="#E"/></g><path fill="#666" d="M836-831c-99-39-182-77-306-82-139-6-173 83-92 144 51 39 327 139 383 188 71 62 119 126 119 249C940-74 747 21 463 20 305 20 202 0 94-45v-252c93 45 253 94 379 94 111 0 166-32 166-96 0-68-41-76-98-109-79-46-276-119-333-167-74-61-116-125-116-252 0-368 555-367 836-224" id="F"/><g id="c"><use transform="matrix(0.010850694444444444,0,0,0.010850694444444444,0,0)" xlink:href="#F"/><use transform="matrix(0.010850694444444444,0,0,0.010850694444444444,11.046006944444445,0)" xlink:href="#C"/><use transform="matrix(0.010850694444444444,0,0,0.010850694444444444,17.82769097222222,0)" xlink:href="#B"/><use transform="matrix(0.010850694444444444,0,0,0.010850694444444444,30.381944444444443,0)" xlink:href="#D"/></g><path fill="#666" d="M639-223c202 0 242-139 242-369v-526h305V0H952l-41-143h-16C834-43 709 20 551 20c-263 0-397-147-397-409v-729h305v653c1 148 42 242 180 242" id="G"/><path fill="#666" d="M782-1139c293 0 422 256 422 578 0 230-70 418-202 512-65 46-141 69-228 69-131 0-234-48-309-143h-16c32 222 9 383 16 615H160v-1610h248l43 145h14c71-111 177-166 317-166zm111 574c0-190-40-330-209-330-184 0-221 128-219 332 2 209 40 336 223 336 137 0 205-113 205-338" id="H"/><g id="d"><use transform="matrix(0.010850694444444444,0,0,0.010850694444444444,0,0)" xlink:href="#G"/><use transform="matrix(0.010850694444444444,0,0,0.010850694444444444,14.605034722222221,0)" xlink:href="#H"/></g><path fill="#666" d="M637-1325c-111 0-131 91-123 207h264v229H514V0H209v-889H41v-147l168-82c-18-311 94-449 395-449 105 0 199 16 281 47l-78 224c-61-19-118-29-170-29" id="I"/><g id="e"><use transform="matrix(0.010850694444444444,0,0,0.010850694444444444,0,0)" xlink:href="#C"/><use transform="matrix(0.010850694444444444,0,0,0.010850694444444444,6.781684027777778,0)" xlink:href="#I"/></g><path fill="#666" d="M618-1141c286 0 465 117 465 396V0H870l-59-152h-8C704-33 632 18 432 20 216 22 86-113 86-334c0-119 44-202 124-262 109-82 356-99 570-100 11-142-39-219-174-219-89 0-194 27-315 81l-101-206c129-67 271-101 428-101zm-71 938c137 0 235-88 233-223v-92c-190 3-382 4-381 186 0 86 49 129 148 129" id="J"/><path fill="#666" d="M954-63C853 0 774 20 614 20 266 20 92-171 92-553c0-369 188-586 549-586 129 0 245 25 348 76l-90 236c-84-31-156-66-258-66-159 0-238 113-238 338 0 219 79 328 238 328 137 0 223-38 313-97v261" id="K"/><path fill="#666" d="M498-350c-2 85 52 126 133 127 53 0 117-12 192-35v227C747 3 654 20 543 20c-247 0-350-124-350-370v-539H47v-129l168-102 88-236h195v238h313v229H498v539" id="L"/><g id="f"><use transform="matrix(0.010850694444444444,0,0,0.010850694444444444,0,0)" xlink:href="#J"/><use transform="matrix(0.010850694444444444,0,0,0.010850694444444444,13.422309027777777,0)" xlink:href="#K"/><use transform="matrix(0.010850694444444444,0,0,0.010850694444444444,24.84809027777778,0)" xlink:href="#K"/><use transform="matrix(0.010850694444444444,0,0,0.010850694444444444,36.27387152777778,0)" xlink:href="#A"/><use transform="matrix(0.010850694444444444,0,0,0.010850694444444444,50.03255208333333,0)" xlink:href="#G"/><use transform="matrix(0.010850694444444444,0,0,0.010850694444444444,64.63758680555556,0)" xlink:href="#D"/><use transform="matrix(0.010850694444444444,0,0,0.010850694444444444,79.24262152777777,0)" xlink:href="#L"/></g><path fill="#666" d="M92-557c0-327 132-582 430-582 141 0 248 55 322 164h10c-38-188-18-371-23-581h306V0H903l-59-145h-13C762-35 656 20 514 20 222 20 92-237 92-557zm309 4c0 190 54 330 220 330 191 0 231-123 231-332 0-214-44-336-236-336-161 0-215 151-215 338" id="M"/><path fill="#666" d="M836-686c0-141-77-236-213-236-140 0-206 98-215 236h428zm223 627C946-4 838 19 666 20 308 22 92-191 92-551c0-356 187-588 529-588 314 0 504 195 501 508v148H401c5 169 104 277 279 276 158-2 261-33 379-88v236" id="N"/><path fill="#666" d="M412-1462l-41 528H174l-41-528h279" id="O"/><g id="g"><use transform="matrix(0.010850694444444444,0,0,0.010850694444444444,0,0)" xlink:href="#M"/><use transform="matrix(0.010850694444444444,0,0,0.010850694444444444,14.0625,0)" xlink:href="#A"/><use transform="matrix(0.010850694444444444,0,0,0.010850694444444444,27.82118055555556,0)" xlink:href="#N"/><use transform="matrix(0.010850694444444444,0,0,0.010850694444444444,40.950520833333336,0)" xlink:href="#F"/><use transform="matrix(0.010850694444444444,0,0,0.010850694444444444,51.99652777777778,0)" xlink:href="#D"/><use transform="matrix(0.010850694444444444,0,0,0.010850694444444444,66.38454861111111,0)" xlink:href="#O"/><use transform="matrix(0.010850694444444444,0,0,0.010850694444444444,72.29817708333334,0)" xlink:href="#L"/></g><path fill="#666" d="M389-571L29-1118h346l217 356 219-356h346L793-571 1174 0H827L592-383 356 0H10" id="P"/><g id="h"><use transform="matrix(0.010850694444444444,0,0,0.010850694444444444,0,0)" xlink:href="#N"/><use transform="matrix(0.010850694444444444,0,0,0.010850694444444444,12.684461805555555,0)" xlink:href="#P"/><use transform="matrix(0.010850694444444444,0,0,0.010850694444444444,25.53168402777778,0)" xlink:href="#C"/><use transform="matrix(0.010850694444444444,0,0,0.010850694444444444,32.31336805555556,0)" xlink:href="#F"/><use transform="matrix(0.010850694444444444,0,0,0.010850694444444444,43.359375,0)" xlink:href="#L"/></g><path fill="#666" d="M596-1225c-134-8-223 103-163 219 11 21 33 41 61 60s93 53 196 102c137 65 230 130 281 196s76 147 76 242c-3 286-231 426-539 426C352 20 214-9 94-68v-288c159 68 260 115 438 120 123 3 211-41 211-155 0-73-44-105-95-141-63-46-329-160-390-220-78-77-147-167-147-315 0-273 208-420 495-416 177 2 298 46 434 103l-100 241c-131-51-199-78-344-86" id="Q"/><g id="i"><use transform="matrix(0.010850694444444444,0,0,0.010850694444444444,0,0)" xlink:href="#Q"/><use transform="matrix(0.010850694444444444,0,0,0.010850694444444444,12.239583333333332,0)" xlink:href="#N"/><use transform="matrix(0.010850694444444444,0,0,0.010850694444444444,25.368923611111104,0)" xlink:href="#D"/><use transform="matrix(0.010850694444444444,0,0,0.010850694444444444,39.97395833333333,0)" xlink:href="#M"/></g><path fill="#666" d="M1384-895c-176 0-222 133-223 334V0H856v-653c-1-144-37-242-168-242-78 0-135 29-170 86s-53 152-53 283V0H160v-1118h233l41 143h17c56-98 174-164 325-164 167 0 281 55 340 164h27c55-99 179-165 330-164 265 2 385 133 385 410V0h-306v-653c-1-144-37-242-168-242" id="R"/><g id="j"><use transform="matrix(0.010850694444444444,0,0,0.010850694444444444,0,0)" xlink:href="#R"/><use transform="matrix(0.010850694444444444,0,0,0.010850694444444444,21.82074652777778,0)" xlink:href="#N"/><use transform="matrix(0.010850694444444444,0,0,0.010850694444444444,34.95008680555556,0)" xlink:href="#F"/><use transform="matrix(0.010850694444444444,0,0,0.010850694444444444,45.99609375,0)" xlink:href="#F"/><use transform="matrix(0.010850694444444444,0,0,0.010850694444444444,57.04210069444444,0)" xlink:href="#J"/><use transform="matrix(0.010850694444444444,0,0,0.010850694444444444,70.46440972222221,0)" xlink:href="#B"/><use transform="matrix(0.010850694444444444,0,0,0.010850694444444444,83.01866319444443,0)" xlink:href="#N"/></g><g id="k"><use transform="matrix(0.010850694444444444,0,0,0.010850694444444444,0,0)" xlink:href="#L"/><use transform="matrix(0.010850694444444444,0,0,0.010850694444444444,9.64626736111111,0)" xlink:href="#A"/></g><path fill="#666" d="M791-1139c262-1 402 148 401 410V0H887v-653c0-161-60-242-180-242-201 0-242 142-242 369V0H160v-1556h305c-1 210 6 368-14 581h16c68-109 176-164 324-164" id="S"/><path fill="#666" d="M782-1139c292 0 422 259 422 578 0 185-39 328-116 429S907 20 774 20c-131 0-234-48-309-143h-21L393 0H160v-1556h305c-3 221 8 361-12 583h12c71-111 177-166 317-166zM465-596c-3 221 29 369 223 369 63 0 110-31 150-87 71-99 72-401-1-498-40-53-88-83-153-83-174 0-216 109-219 299" id="T"/><g id="l"><use transform="matrix(0.010850694444444444,0,0,0.010850694444444444,0,0)" xlink:href="#K"/><use transform="matrix(0.010850694444444444,0,0,0.010850694444444444,11.42578125,0)" xlink:href="#S"/><use transform="matrix(0.010850694444444444,0,0,0.010850694444444444,26.03081597222222,0)" xlink:href="#J"/><use transform="matrix(0.010850694444444444,0,0,0.010850694444444444,39.453125,0)" xlink:href="#L"/><use transform="matrix(0.010850694444444444,0,0,0.010850694444444444,49.09939236111111,0)" xlink:href="#T"/><use transform="matrix(0.010850694444444444,0,0,0.010850694444444444,63.16189236111112,0)" xlink:href="#A"/><use transform="matrix(0.010850694444444444,0,0,0.010850694444444444,76.92057291666667,0)" xlink:href="#L"/></g><path fill="#666" d="M1133-1128c-95-42-202-97-328-97-258 0-367 218-367 498 0 326 122 489 367 489 103 0 227-26 373-77v260C1058-5 924 20 776 20c-443 0-662-290-657-749 5-455 236-754 686-754 142 0 285 34 428 103" id="U"/><g id="m"><use transform="matrix(0.010850694444444444,0,0,0.010850694444444444,0,0)" xlink:href="#U"/><use transform="matrix(0.010850694444444444,0,0,0.010850694444444444,14.16015625,0)" xlink:href="#S"/><use transform="matrix(0.010850694444444444,0,0,0.010850694444444444,28.76519097222222,0)" xlink:href="#J"/><use transform="matrix(0.010850694444444444,0,0,0.010850694444444444,42.1875,0)" xlink:href="#L"/><use transform="matrix(0.010850694444444444,0,0,0.010850694444444444,51.83376736111112,0)" xlink:href="#T"/><use transform="matrix(0.010850694444444444,0,0,0.010850694444444444,65.89626736111111,0)" xlink:href="#A"/><use transform="matrix(0.010850694444444444,0,0,0.010850694444444444,79.65494791666667,0)" xlink:href="#L"/></g><path fill="#666" d="M426 0L0-1118h319l216 637c24 81 39 157 45 229h6c3-64 15-141 45-229l215-637h319L739 0H426" id="V"/><g id="n"><use transform="matrix(0.010850694444444444,0,0,0.010850694444444444,0,0)" xlink:href="#E"/><use transform="matrix(0.010850694444444444,0,0,0.010850694444444444,9.64626736111111,0)" xlink:href="#N"/><use transform="matrix(0.010850694444444444,0,0,0.010850694444444444,22.77560763888889,0)" xlink:href="#K"/><use transform="matrix(0.010850694444444444,0,0,0.010850694444444444,34.201388888888886,0)" xlink:href="#C"/><use transform="matrix(0.010850694444444444,0,0,0.010850694444444444,40.983072916666664,0)" xlink:href="#N"/><use transform="matrix(0.010850694444444444,0,0,0.010850694444444444,53.66753472222222,0)" xlink:href="#V"/><use transform="matrix(0.010850694444444444,0,0,0.010850694444444444,66.30859375,0)" xlink:href="#N"/><use transform="matrix(0.010850694444444444,0,0,0.010850694444444444,79.43793402777777,0)" xlink:href="#F"/></g><g id="o"><use transform="matrix(0.010850694444444444,0,0,0.010850694444444444,0,0)" xlink:href="#R"/><use transform="matrix(0.010850694444444444,0,0,0.010850694444444444,21.82074652777778,0)" xlink:href="#N"/><use transform="matrix(0.010850694444444444,0,0,0.010850694444444444,34.95008680555556,0)" xlink:href="#F"/><use transform="matrix(0.010850694444444444,0,0,0.010850694444444444,45.99609375,0)" xlink:href="#F"/><use transform="matrix(0.010850694444444444,0,0,0.010850694444444444,57.04210069444444,0)" xlink:href="#J"/><use transform="matrix(0.010850694444444444,0,0,0.010850694444444444,70.46440972222221,0)" xlink:href="#B"/><use transform="matrix(0.010850694444444444,0,0,0.010850694444444444,83.01866319444443,0)" xlink:href="#N"/></g><g id="p"><use transform="matrix(0.010850694444444444,0,0,0.010850694444444444,0,0)" xlink:href="#J"/><use transform="matrix(0.010850694444444444,0,0,0.010850694444444444,13.422309027777777,0)" xlink:href="#D"/><use transform="matrix(0.010850694444444444,0,0,0.010850694444444444,28.02734375,0)" xlink:href="#M"/></g><g id="q"><use transform="matrix(0.010850694444444444,0,0,0.010850694444444444,0,0)" xlink:href="#E"/><use transform="matrix(0.010850694444444444,0,0,0.010850694444444444,9.64626736111111,0)" xlink:href="#N"/><use transform="matrix(0.010850694444444444,0,0,0.010850694444444444,22.77560763888889,0)" xlink:href="#F"/><use transform="matrix(0.010850694444444444,0,0,0.010850694444444444,33.82161458333333,0)" xlink:href="#H"/><use transform="matrix(0.010850694444444444,0,0,0.010850694444444444,47.88411458333333,0)" xlink:href="#A"/><use transform="matrix(0.010850694444444444,0,0,0.010850694444444444,61.642795138888886,0)" xlink:href="#D"/><use transform="matrix(0.010850694444444444,0,0,0.010850694444444444,76.24782986111111,0)" xlink:href="#M"/><use transform="matrix(0.010850694444444444,0,0,0.010850694444444444,90.31032986111111,0)" xlink:href="#F"/></g><path fill="#666" d="M776-240c213 0 289-110 289-329v-893h309v946c-8 356-241 531-606 536-358 5-595-195-594-540v-942h309v895c2 220 76 327 293 327" id="W"/><g id="r"><use transform="matrix(0.010850694444444444,0,0,0.010850694444444444,0,0)" xlink:href="#W"/><use transform="matrix(0.010850694444444444,0,0,0.010850694444444444,16.796875,0)" xlink:href="#F"/><use transform="matrix(0.010850694444444444,0,0,0.010850694444444444,27.842881944444443,0)" xlink:href="#N"/><use transform="matrix(0.010850694444444444,0,0,0.010850694444444444,40.97222222222222,0)" xlink:href="#E"/></g><g id="s"><use transform="matrix(0.010850694444444444,0,0,0.010850694444444444,0,0)" xlink:href="#N"/><use transform="matrix(0.010850694444444444,0,0,0.010850694444444444,12.684461805555555,0)" xlink:href="#P"/><use transform="matrix(0.010850694444444444,0,0,0.010850694444444444,25.53168402777778,0)" xlink:href="#C"/><use transform="matrix(0.010850694444444444,0,0,0.010850694444444444,32.31336805555556,0)" xlink:href="#L"/><use transform="matrix(0.010850694444444444,0,0,0.010850694444444444,41.95963541666667,0)" xlink:href="#F"/></g><g id="t"><use transform="matrix(0.010850694444444444,0,0,0.010850694444444444,0,0)" xlink:href="#K"/><use transform="matrix(0.010850694444444444,0,0,0.010850694444444444,11.42578125,0)" xlink:href="#S"/><use transform="matrix(0.010850694444444444,0,0,0.010850694444444444,26.03081597222222,0)" xlink:href="#J"/><use transform="matrix(0.010850694444444444,0,0,0.010850694444444444,39.453125,0)" xlink:href="#L"/></g><g id="u"><use transform="matrix(0.010850694444444444,0,0,0.010850694444444444,0,0)" xlink:href="#C"/><use transform="matrix(0.010850694444444444,0,0,0.010850694444444444,6.781684027777778,0)" xlink:href="#D"/><use transform="matrix(0.010850694444444444,0,0,0.010850694444444444,21.38671875,0)" xlink:href="#L"/><use transform="matrix(0.010850694444444444,0,0,0.010850694444444444,31.03298611111111,0)" xlink:href="#N"/><use transform="matrix(0.010850694444444444,0,0,0.010850694444444444,44.162326388888886,0)" xlink:href="#E"/><use transform="matrix(0.010850694444444444,0,0,0.010850694444444444,54.25347222222221,0)" xlink:href="#I"/><use transform="matrix(0.010850694444444444,0,0,0.010850694444444444,62.85807291666666,0)" xlink:href="#J"/><use transform="matrix(0.010850694444444444,0,0,0.010850694444444444,76.28038194444443,0)" xlink:href="#K"/><use transform="matrix(0.010850694444444444,0,0,0.010850694444444444,87.70616319444443,0)" xlink:href="#K"/><use transform="matrix(0.010850694444444444,0,0,0.010850694444444444,99.13194444444441,0)" xlink:href="#N"/></g><path fill="#fff" d="M277-692c47-35 119-19 119 46v542c65 5 170-21 165 51 0 35-20 53-60 53H163c-41 0-61-18-61-53-5-71 100-47 165-51v-456c-41 21-73 54-121 67-48 0-68-75-24-103" id="X"/><use transform="matrix(0.018,0,0,0.018,0,0)" xlink:href="#X" id="v"/><path fill="#fff" d="M177-694c157-58 350 7 344 172-6 113-45 161-114 234L234-104h264c40 0 60 17 60 51 0 35-20 53-60 53H118C58 3 50-70 85-108l228-245c44-51 76-87 81-161 7-96-104-113-184-82-39 15-71 49-117 59-45 0-55-77-19-101 31-21 64-42 103-56" id="Y"/><use transform="matrix(0.018,0,0,0.018,0,0)" xlink:href="#Y" id="w"/><path fill="#fff" d="M408-362c78 19 126 78 130 171C547 33 201 51 63-68c-40-34-18-121 37-96 60 28 102 70 185 69 82 0 129-29 130-107 2-99-88-109-194-104-29 1-48-24-48-51-1-45 37-51 88-51 91 0 137-34 137-103 1-65-43-100-109-100-54 0-120 39-178 69-52 27-81-63-37-96 52-40 132-76 220-76 127-3 227 67 227 187-2 83-48 142-113 165" id="Z"/><use transform="matrix(0.018,0,0,0.018,0,0)" xlink:href="#Z" id="x"/><path fill="#fff" d="M474-238c55-2 111-4 111 50 0 53-56 53-111 50 2 70 8 144-63 144s-65-74-63-144H86c-55 4-69-59-41-100l309-444c28-49 120-32 120 36v408zm-312 0h186v-269" id="aa"/><use transform="matrix(0.018,0,0,0.018,0,0)" xlink:href="#aa" id="y"/></defs></g></svg>